G04 #@! TF.GenerationSoftware,KiCad,Pcbnew,5.1.5*
G04 #@! TF.CreationDate,2020-03-06T00:10:35-08:00*
G04 #@! TF.ProjectId,orangepi-neo-gps,6f72616e-6765-4706-992d-6e656f2d6770,1*
G04 #@! TF.SameCoordinates,Original*
G04 #@! TF.FileFunction,Legend,Top*
G04 #@! TF.FilePolarity,Positive*
%FSLAX46Y46*%
G04 Gerber Fmt 4.6, Leading zero omitted, Abs format (unit mm)*
G04 Created by KiCad (PCBNEW 5.1.5) date 2020-03-06 00:10:35*
%MOMM*%
%LPD*%
G04 APERTURE LIST*
%ADD10C,0.375000*%
%ADD11C,0.250000*%
%ADD12C,0.120000*%
G04 APERTURE END LIST*
D10*
X60328571Y-32866071D02*
X60828571Y-34366071D01*
X61328571Y-32866071D01*
X61828571Y-33580357D02*
X62328571Y-33580357D01*
X62542857Y-34366071D02*
X61828571Y-34366071D01*
X61828571Y-32866071D01*
X62542857Y-32866071D01*
X63042857Y-32866071D02*
X64042857Y-32866071D01*
X63400000Y-34366071D01*
X64471428Y-32866071D02*
X65471428Y-34366071D01*
X65471428Y-32866071D02*
X64471428Y-34366071D01*
X66042857Y-33580357D02*
X66542857Y-33580357D01*
X66757142Y-34366071D02*
X66042857Y-34366071D01*
X66042857Y-32866071D01*
X66757142Y-32866071D01*
X67400000Y-34366071D02*
X67400000Y-32866071D01*
X68257142Y-34366071D01*
X68257142Y-32866071D01*
X70400000Y-32866071D02*
X70685714Y-32866071D01*
X70828571Y-32937500D01*
X70971428Y-33080357D01*
X71042857Y-33366071D01*
X71042857Y-33866071D01*
X70971428Y-34151785D01*
X70828571Y-34294642D01*
X70685714Y-34366071D01*
X70400000Y-34366071D01*
X70257142Y-34294642D01*
X70114285Y-34151785D01*
X70042857Y-33866071D01*
X70042857Y-33366071D01*
X70114285Y-33080357D01*
X70257142Y-32937500D01*
X70400000Y-32866071D01*
X71685714Y-34366071D02*
X71685714Y-32866071D01*
X72257142Y-32866071D01*
X72400000Y-32937500D01*
X72471428Y-33008928D01*
X72542857Y-33151785D01*
X72542857Y-33366071D01*
X72471428Y-33508928D01*
X72400000Y-33580357D01*
X72257142Y-33651785D01*
X71685714Y-33651785D01*
X73185714Y-34366071D02*
X73185714Y-32866071D01*
X74685714Y-34366071D02*
X73828571Y-34366071D01*
X74257142Y-34366071D02*
X74257142Y-32866071D01*
X74114285Y-33080357D01*
X73971428Y-33223214D01*
X73828571Y-33294642D01*
X77257142Y-32937500D02*
X77114285Y-32866071D01*
X76900000Y-32866071D01*
X76685714Y-32937500D01*
X76542857Y-33080357D01*
X76471428Y-33223214D01*
X76400000Y-33508928D01*
X76400000Y-33723214D01*
X76471428Y-34008928D01*
X76542857Y-34151785D01*
X76685714Y-34294642D01*
X76900000Y-34366071D01*
X77042857Y-34366071D01*
X77257142Y-34294642D01*
X77328571Y-34223214D01*
X77328571Y-33723214D01*
X77042857Y-33723214D01*
X77971428Y-34366071D02*
X77971428Y-32866071D01*
X78542857Y-32866071D01*
X78685714Y-32937500D01*
X78757142Y-33008928D01*
X78828571Y-33151785D01*
X78828571Y-33366071D01*
X78757142Y-33508928D01*
X78685714Y-33580357D01*
X78542857Y-33651785D01*
X77971428Y-33651785D01*
X79400000Y-34294642D02*
X79614285Y-34366071D01*
X79971428Y-34366071D01*
X80114285Y-34294642D01*
X80185714Y-34223214D01*
X80257142Y-34080357D01*
X80257142Y-33937500D01*
X80185714Y-33794642D01*
X80114285Y-33723214D01*
X79971428Y-33651785D01*
X79685714Y-33580357D01*
X79542857Y-33508928D01*
X79471428Y-33437500D01*
X79400000Y-33294642D01*
X79400000Y-33151785D01*
X79471428Y-33008928D01*
X79542857Y-32937500D01*
X79685714Y-32866071D01*
X80042857Y-32866071D01*
X80257142Y-32937500D01*
X82042857Y-34366071D02*
X82042857Y-33366071D01*
X82042857Y-33651785D02*
X82114285Y-33508928D01*
X82185714Y-33437500D01*
X82328571Y-33366071D01*
X82471428Y-33366071D01*
X83542857Y-34294642D02*
X83400000Y-34366071D01*
X83114285Y-34366071D01*
X82971428Y-34294642D01*
X82900000Y-34151785D01*
X82900000Y-33580357D01*
X82971428Y-33437500D01*
X83114285Y-33366071D01*
X83400000Y-33366071D01*
X83542857Y-33437500D01*
X83614285Y-33580357D01*
X83614285Y-33723214D01*
X82900000Y-33866071D01*
X84114285Y-33366071D02*
X84471428Y-34366071D01*
X84828571Y-33366071D01*
X87328571Y-34366071D02*
X86471428Y-34366071D01*
X86900000Y-34366071D02*
X86900000Y-32866071D01*
X86757142Y-33080357D01*
X86614285Y-33223214D01*
X86471428Y-33294642D01*
X66614285Y-35633928D02*
X66685714Y-35562500D01*
X66828571Y-35491071D01*
X67185714Y-35491071D01*
X67328571Y-35562500D01*
X67400000Y-35633928D01*
X67471428Y-35776785D01*
X67471428Y-35919642D01*
X67400000Y-36133928D01*
X66542857Y-36991071D01*
X67471428Y-36991071D01*
X68400000Y-35491071D02*
X68542857Y-35491071D01*
X68685714Y-35562500D01*
X68757142Y-35633928D01*
X68828571Y-35776785D01*
X68900000Y-36062500D01*
X68900000Y-36419642D01*
X68828571Y-36705357D01*
X68757142Y-36848214D01*
X68685714Y-36919642D01*
X68542857Y-36991071D01*
X68400000Y-36991071D01*
X68257142Y-36919642D01*
X68185714Y-36848214D01*
X68114285Y-36705357D01*
X68042857Y-36419642D01*
X68042857Y-36062500D01*
X68114285Y-35776785D01*
X68185714Y-35633928D01*
X68257142Y-35562500D01*
X68400000Y-35491071D01*
X69471428Y-35633928D02*
X69542857Y-35562500D01*
X69685714Y-35491071D01*
X70042857Y-35491071D01*
X70185714Y-35562500D01*
X70257142Y-35633928D01*
X70328571Y-35776785D01*
X70328571Y-35919642D01*
X70257142Y-36133928D01*
X69400000Y-36991071D01*
X70328571Y-36991071D01*
X71257142Y-35491071D02*
X71400000Y-35491071D01*
X71542857Y-35562500D01*
X71614285Y-35633928D01*
X71685714Y-35776785D01*
X71757142Y-36062500D01*
X71757142Y-36419642D01*
X71685714Y-36705357D01*
X71614285Y-36848214D01*
X71542857Y-36919642D01*
X71400000Y-36991071D01*
X71257142Y-36991071D01*
X71114285Y-36919642D01*
X71042857Y-36848214D01*
X70971428Y-36705357D01*
X70900000Y-36419642D01*
X70900000Y-36062500D01*
X70971428Y-35776785D01*
X71042857Y-35633928D01*
X71114285Y-35562500D01*
X71257142Y-35491071D01*
X72400000Y-36419642D02*
X73542857Y-36419642D01*
X74542857Y-35491071D02*
X74685714Y-35491071D01*
X74828571Y-35562500D01*
X74900000Y-35633928D01*
X74971428Y-35776785D01*
X75042857Y-36062500D01*
X75042857Y-36419642D01*
X74971428Y-36705357D01*
X74900000Y-36848214D01*
X74828571Y-36919642D01*
X74685714Y-36991071D01*
X74542857Y-36991071D01*
X74400000Y-36919642D01*
X74328571Y-36848214D01*
X74257142Y-36705357D01*
X74185714Y-36419642D01*
X74185714Y-36062500D01*
X74257142Y-35776785D01*
X74328571Y-35633928D01*
X74400000Y-35562500D01*
X74542857Y-35491071D01*
X75542857Y-35491071D02*
X76471428Y-35491071D01*
X75971428Y-36062500D01*
X76185714Y-36062500D01*
X76328571Y-36133928D01*
X76400000Y-36205357D01*
X76471428Y-36348214D01*
X76471428Y-36705357D01*
X76400000Y-36848214D01*
X76328571Y-36919642D01*
X76185714Y-36991071D01*
X75757142Y-36991071D01*
X75614285Y-36919642D01*
X75542857Y-36848214D01*
X77114285Y-36419642D02*
X78257142Y-36419642D01*
X79257142Y-35491071D02*
X79400000Y-35491071D01*
X79542857Y-35562500D01*
X79614285Y-35633928D01*
X79685714Y-35776785D01*
X79757142Y-36062500D01*
X79757142Y-36419642D01*
X79685714Y-36705357D01*
X79614285Y-36848214D01*
X79542857Y-36919642D01*
X79400000Y-36991071D01*
X79257142Y-36991071D01*
X79114285Y-36919642D01*
X79042857Y-36848214D01*
X78971428Y-36705357D01*
X78900000Y-36419642D01*
X78900000Y-36062500D01*
X78971428Y-35776785D01*
X79042857Y-35633928D01*
X79114285Y-35562500D01*
X79257142Y-35491071D01*
X81042857Y-35991071D02*
X81042857Y-36991071D01*
X80685714Y-35419642D02*
X80328571Y-36491071D01*
X81257142Y-36491071D01*
D11*
X47719047Y-29471428D02*
X48480952Y-29471428D01*
X48100000Y-29852380D02*
X48100000Y-29090476D01*
X29328571Y-37628571D02*
X29661904Y-37628571D01*
X29804761Y-38152380D02*
X29328571Y-38152380D01*
X29328571Y-37152380D01*
X29804761Y-37152380D01*
X30138095Y-37152380D02*
X30804761Y-38152380D01*
X30804761Y-37152380D02*
X30138095Y-38152380D01*
X31042857Y-37152380D02*
X31614285Y-37152380D01*
X31328571Y-38152380D02*
X31328571Y-37152380D01*
X36295238Y-43552380D02*
X36295238Y-42552380D01*
X36771428Y-43552380D02*
X36771428Y-42552380D01*
X37342857Y-43552380D01*
X37342857Y-42552380D01*
X37676190Y-42552380D02*
X38247619Y-42552380D01*
X37961904Y-43552380D02*
X37961904Y-42552380D01*
X59590000Y-58161904D02*
X59542380Y-58257142D01*
X59542380Y-58400000D01*
X59590000Y-58542857D01*
X59685238Y-58638095D01*
X59780476Y-58685714D01*
X59970952Y-58733333D01*
X60113809Y-58733333D01*
X60304285Y-58685714D01*
X60399523Y-58638095D01*
X60494761Y-58542857D01*
X60542380Y-58400000D01*
X60542380Y-58304761D01*
X60494761Y-58161904D01*
X60447142Y-58114285D01*
X60113809Y-58114285D01*
X60113809Y-58304761D01*
X60542380Y-57685714D02*
X59542380Y-57685714D01*
X60542380Y-57114285D01*
X59542380Y-57114285D01*
X60542380Y-56638095D02*
X59542380Y-56638095D01*
X59542380Y-56400000D01*
X59590000Y-56257142D01*
X59685238Y-56161904D01*
X59780476Y-56114285D01*
X59970952Y-56066666D01*
X60113809Y-56066666D01*
X60304285Y-56114285D01*
X60399523Y-56161904D01*
X60494761Y-56257142D01*
X60542380Y-56400000D01*
X60542380Y-56638095D01*
X63082380Y-58076190D02*
X63082380Y-58647619D01*
X63082380Y-58361904D02*
X62082380Y-58361904D01*
X62225238Y-58457142D01*
X62320476Y-58552380D01*
X62368095Y-58647619D01*
X62082380Y-57742857D02*
X63082380Y-57504761D01*
X62368095Y-57314285D01*
X63082380Y-57123809D01*
X62082380Y-56885714D01*
X63082380Y-56504761D02*
X62082380Y-56504761D01*
X63082380Y-55457142D02*
X62606190Y-55790476D01*
X63082380Y-56028571D02*
X62082380Y-56028571D01*
X62082380Y-55647619D01*
X62130000Y-55552380D01*
X62177619Y-55504761D01*
X62272857Y-55457142D01*
X62415714Y-55457142D01*
X62510952Y-55504761D01*
X62558571Y-55552380D01*
X62606190Y-55647619D01*
X62606190Y-56028571D01*
X62558571Y-55028571D02*
X62558571Y-54695238D01*
X63082380Y-54552380D02*
X63082380Y-55028571D01*
X62082380Y-55028571D01*
X62082380Y-54552380D01*
X64670000Y-58171428D02*
X64622380Y-58266666D01*
X64622380Y-58409523D01*
X64670000Y-58552380D01*
X64765238Y-58647619D01*
X64860476Y-58695238D01*
X65050952Y-58742857D01*
X65193809Y-58742857D01*
X65384285Y-58695238D01*
X65479523Y-58647619D01*
X65574761Y-58552380D01*
X65622380Y-58409523D01*
X65622380Y-58314285D01*
X65574761Y-58171428D01*
X65527142Y-58123809D01*
X65193809Y-58123809D01*
X65193809Y-58314285D01*
X65622380Y-57695238D02*
X64622380Y-57695238D01*
X64622380Y-57314285D01*
X64670000Y-57219047D01*
X64717619Y-57171428D01*
X64812857Y-57123809D01*
X64955714Y-57123809D01*
X65050952Y-57171428D01*
X65098571Y-57219047D01*
X65146190Y-57314285D01*
X65146190Y-57695238D01*
X65574761Y-56742857D02*
X65622380Y-56600000D01*
X65622380Y-56361904D01*
X65574761Y-56266666D01*
X65527142Y-56219047D01*
X65431904Y-56171428D01*
X65336666Y-56171428D01*
X65241428Y-56219047D01*
X65193809Y-56266666D01*
X65146190Y-56361904D01*
X65098571Y-56552380D01*
X65050952Y-56647619D01*
X65003333Y-56695238D01*
X64908095Y-56742857D01*
X64812857Y-56742857D01*
X64717619Y-56695238D01*
X64670000Y-56647619D01*
X64622380Y-56552380D01*
X64622380Y-56314285D01*
X64670000Y-56171428D01*
X65717619Y-55980952D02*
X65717619Y-55219047D01*
X65622380Y-54980952D02*
X64622380Y-54980952D01*
X64622380Y-54600000D01*
X64670000Y-54504761D01*
X64717619Y-54457142D01*
X64812857Y-54409523D01*
X64955714Y-54409523D01*
X65050952Y-54457142D01*
X65098571Y-54504761D01*
X65146190Y-54600000D01*
X65146190Y-54980952D01*
X65622380Y-53980952D02*
X64622380Y-53980952D01*
X64622380Y-53600000D01*
X64670000Y-53504761D01*
X64717619Y-53457142D01*
X64812857Y-53409523D01*
X64955714Y-53409523D01*
X65050952Y-53457142D01*
X65098571Y-53504761D01*
X65146190Y-53600000D01*
X65146190Y-53980952D01*
X65574761Y-53028571D02*
X65622380Y-52885714D01*
X65622380Y-52647619D01*
X65574761Y-52552380D01*
X65527142Y-52504761D01*
X65431904Y-52457142D01*
X65336666Y-52457142D01*
X65241428Y-52504761D01*
X65193809Y-52552380D01*
X65146190Y-52647619D01*
X65098571Y-52838095D01*
X65050952Y-52933333D01*
X65003333Y-52980952D01*
X64908095Y-53028571D01*
X64812857Y-53028571D01*
X64717619Y-52980952D01*
X64670000Y-52933333D01*
X64622380Y-52838095D01*
X64622380Y-52600000D01*
X64670000Y-52457142D01*
X67210000Y-58171428D02*
X67162380Y-58266666D01*
X67162380Y-58409523D01*
X67210000Y-58552380D01*
X67305238Y-58647619D01*
X67400476Y-58695238D01*
X67590952Y-58742857D01*
X67733809Y-58742857D01*
X67924285Y-58695238D01*
X68019523Y-58647619D01*
X68114761Y-58552380D01*
X68162380Y-58409523D01*
X68162380Y-58314285D01*
X68114761Y-58171428D01*
X68067142Y-58123809D01*
X67733809Y-58123809D01*
X67733809Y-58314285D01*
X68162380Y-57695238D02*
X67162380Y-57695238D01*
X67162380Y-57314285D01*
X67210000Y-57219047D01*
X67257619Y-57171428D01*
X67352857Y-57123809D01*
X67495714Y-57123809D01*
X67590952Y-57171428D01*
X67638571Y-57219047D01*
X67686190Y-57314285D01*
X67686190Y-57695238D01*
X68114761Y-56742857D02*
X68162380Y-56600000D01*
X68162380Y-56361904D01*
X68114761Y-56266666D01*
X68067142Y-56219047D01*
X67971904Y-56171428D01*
X67876666Y-56171428D01*
X67781428Y-56219047D01*
X67733809Y-56266666D01*
X67686190Y-56361904D01*
X67638571Y-56552380D01*
X67590952Y-56647619D01*
X67543333Y-56695238D01*
X67448095Y-56742857D01*
X67352857Y-56742857D01*
X67257619Y-56695238D01*
X67210000Y-56647619D01*
X67162380Y-56552380D01*
X67162380Y-56314285D01*
X67210000Y-56171428D01*
X68257619Y-55980952D02*
X68257619Y-55219047D01*
X68162380Y-54409523D02*
X67686190Y-54742857D01*
X68162380Y-54980952D02*
X67162380Y-54980952D01*
X67162380Y-54600000D01*
X67210000Y-54504761D01*
X67257619Y-54457142D01*
X67352857Y-54409523D01*
X67495714Y-54409523D01*
X67590952Y-54457142D01*
X67638571Y-54504761D01*
X67686190Y-54600000D01*
X67686190Y-54980952D01*
X67162380Y-54076190D02*
X68162380Y-53409523D01*
X67162380Y-53409523D02*
X68162380Y-54076190D01*
X69750000Y-58052380D02*
X69702380Y-58147619D01*
X69702380Y-58290476D01*
X69750000Y-58433333D01*
X69845238Y-58528571D01*
X69940476Y-58576190D01*
X70130952Y-58623809D01*
X70273809Y-58623809D01*
X70464285Y-58576190D01*
X70559523Y-58528571D01*
X70654761Y-58433333D01*
X70702380Y-58290476D01*
X70702380Y-58195238D01*
X70654761Y-58052380D01*
X70607142Y-58004761D01*
X70273809Y-58004761D01*
X70273809Y-58195238D01*
X70702380Y-57576190D02*
X69702380Y-57576190D01*
X69702380Y-57195238D01*
X69750000Y-57100000D01*
X69797619Y-57052380D01*
X69892857Y-57004761D01*
X70035714Y-57004761D01*
X70130952Y-57052380D01*
X70178571Y-57100000D01*
X70226190Y-57195238D01*
X70226190Y-57576190D01*
X70654761Y-56623809D02*
X70702380Y-56480952D01*
X70702380Y-56242857D01*
X70654761Y-56147619D01*
X70607142Y-56100000D01*
X70511904Y-56052380D01*
X70416666Y-56052380D01*
X70321428Y-56100000D01*
X70273809Y-56147619D01*
X70226190Y-56242857D01*
X70178571Y-56433333D01*
X70130952Y-56528571D01*
X70083333Y-56576190D01*
X69988095Y-56623809D01*
X69892857Y-56623809D01*
X69797619Y-56576190D01*
X69750000Y-56528571D01*
X69702380Y-56433333D01*
X69702380Y-56195238D01*
X69750000Y-56052380D01*
X70797619Y-55861904D02*
X70797619Y-55100000D01*
X69702380Y-55004761D02*
X69702380Y-54433333D01*
X70702380Y-54719047D02*
X69702380Y-54719047D01*
X69702380Y-54195238D02*
X70702380Y-53528571D01*
X69702380Y-53528571D02*
X70702380Y-54195238D01*
D12*
X55350000Y-34400000D02*
X55350000Y-31200000D01*
X55350000Y-31200000D02*
X53800000Y-31200000D01*
X59850000Y-34400000D02*
X55350000Y-34400000D01*
X59850000Y-34400000D02*
X59850000Y-55300000D01*
X58050000Y-57100000D02*
X55350000Y-57100000D01*
X59850000Y-55300000D02*
X58050000Y-57100000D01*
X55350000Y-57100000D02*
X55350000Y-60300000D01*
X55350000Y-60300000D02*
X53800000Y-60300000D01*
X47650000Y-57100000D02*
X47650000Y-60300000D01*
X47650000Y-60300000D02*
X49200000Y-60300000D01*
X47650000Y-34400000D02*
X47650000Y-31200000D01*
X47650000Y-31200000D02*
X49200000Y-31200000D01*
X43150000Y-57100000D02*
X43150000Y-34400000D01*
X43150000Y-57100000D02*
X47650000Y-57100000D01*
X43150000Y-34400000D02*
X47650000Y-34400000D01*
X56500000Y-58750000D02*
X58500000Y-58750000D01*
X57500000Y-57750000D02*
X57500000Y-59750000D01*
X35770000Y-65230000D02*
X35770000Y-65200000D01*
X35770000Y-58770000D02*
X35770000Y-58800000D01*
X42230000Y-58770000D02*
X42230000Y-58800000D01*
X42230000Y-65200000D02*
X42230000Y-65230000D01*
X35770000Y-63300000D02*
X35770000Y-60700000D01*
X42230000Y-65230000D02*
X35770000Y-65230000D01*
X42230000Y-63300000D02*
X42230000Y-60700000D01*
X42230000Y-58770000D02*
X35770000Y-58770000D01*
X33890000Y-33000000D02*
X33890000Y-34500000D01*
X33890000Y-33000000D02*
X33890000Y-31500000D01*
X37110000Y-33000000D02*
X37110000Y-34500000D01*
X37110000Y-33000000D02*
X37110000Y-30075000D01*
X39290000Y-34961252D02*
X39290000Y-34438748D01*
X40710000Y-34961252D02*
X40710000Y-34438748D01*
X30390000Y-38970000D02*
X30390000Y-41630000D01*
X35530000Y-38970000D02*
X30390000Y-38970000D01*
X35530000Y-41630000D02*
X30390000Y-41630000D01*
X35530000Y-38970000D02*
X35530000Y-41630000D01*
X36800000Y-38970000D02*
X38130000Y-38970000D01*
X38130000Y-38970000D02*
X38130000Y-40300000D01*
X46880000Y-32630000D02*
X46880000Y-26610000D01*
X46880000Y-26610000D02*
X41580000Y-26610000D01*
X41580000Y-26610000D02*
X41580000Y-32630000D01*
X41580000Y-32630000D02*
X46880000Y-32630000D01*
X47170000Y-31600000D02*
X47170000Y-27600000D01*
X45500000Y-26610000D02*
X45500000Y-27610000D01*
X45500000Y-27610000D02*
X42960000Y-27610000D01*
X42960000Y-27610000D02*
X42960000Y-26610000D01*
X45500000Y-27610000D02*
X45250000Y-28140000D01*
X45250000Y-28140000D02*
X43210000Y-28140000D01*
X43210000Y-28140000D02*
X42960000Y-27610000D01*
X45250000Y-26610000D02*
X45250000Y-27610000D01*
X43210000Y-26610000D02*
X43210000Y-27610000D01*
X46300000Y-32630000D02*
X46300000Y-32030000D01*
X46300000Y-32030000D02*
X44700000Y-32030000D01*
X44700000Y-32030000D02*
X44700000Y-32630000D01*
X43760000Y-32630000D02*
X43760000Y-32030000D01*
X43760000Y-32030000D02*
X42160000Y-32030000D01*
X42160000Y-32030000D02*
X42160000Y-32630000D01*
X58750000Y-59370000D02*
X58750000Y-64570000D01*
X68970000Y-59370000D02*
X58750000Y-59370000D01*
X71570000Y-64570000D02*
X58750000Y-64570000D01*
X68970000Y-59370000D02*
X68970000Y-61970000D01*
X68970000Y-61970000D02*
X71570000Y-61970000D01*
X71570000Y-61970000D02*
X71570000Y-64570000D01*
X70240000Y-59370000D02*
X71570000Y-59370000D01*
X71570000Y-59370000D02*
X71570000Y-60700000D01*
D11*
X46128571Y-60660714D02*
X46176190Y-60517857D01*
X46223809Y-60470238D01*
X46319047Y-60422619D01*
X46461904Y-60422619D01*
X46557142Y-60470238D01*
X46604761Y-60517857D01*
X46652380Y-60613095D01*
X46652380Y-60994047D01*
X45652380Y-60994047D01*
X45652380Y-60660714D01*
X45700000Y-60565476D01*
X45747619Y-60517857D01*
X45842857Y-60470238D01*
X45938095Y-60470238D01*
X46033333Y-60517857D01*
X46080952Y-60565476D01*
X46128571Y-60660714D01*
X46128571Y-60994047D01*
X45652380Y-60136904D02*
X45652380Y-59565476D01*
X46652380Y-59851190D02*
X45652380Y-59851190D01*
X46652380Y-58708333D02*
X46652380Y-59279761D01*
X46652380Y-58994047D02*
X45652380Y-58994047D01*
X45795238Y-59089285D01*
X45890476Y-59184523D01*
X45938095Y-59279761D01*
X26887142Y-56776666D02*
X27363333Y-56776666D01*
X26791904Y-57062380D02*
X27125238Y-56062380D01*
X27458571Y-57062380D01*
X27791904Y-57062380D02*
X27791904Y-56062380D01*
X28363333Y-57062380D01*
X28363333Y-56062380D01*
X28696666Y-56062380D02*
X29268095Y-56062380D01*
X28982380Y-57062380D02*
X28982380Y-56062380D01*
X37666666Y-66454761D02*
X37809523Y-66502380D01*
X38047619Y-66502380D01*
X38142857Y-66454761D01*
X38190476Y-66407142D01*
X38238095Y-66311904D01*
X38238095Y-66216666D01*
X38190476Y-66121428D01*
X38142857Y-66073809D01*
X38047619Y-66026190D01*
X37857142Y-65978571D01*
X37761904Y-65930952D01*
X37714285Y-65883333D01*
X37666666Y-65788095D01*
X37666666Y-65692857D01*
X37714285Y-65597619D01*
X37761904Y-65550000D01*
X37857142Y-65502380D01*
X38095238Y-65502380D01*
X38238095Y-65550000D01*
X38571428Y-65502380D02*
X38809523Y-66502380D01*
X39000000Y-65788095D01*
X39190476Y-66502380D01*
X39428571Y-65502380D01*
X40333333Y-66502380D02*
X39761904Y-66502380D01*
X40047619Y-66502380D02*
X40047619Y-65502380D01*
X39952380Y-65645238D01*
X39857142Y-65740476D01*
X39761904Y-65788095D01*
X34952380Y-33761904D02*
X35761904Y-33761904D01*
X35857142Y-33714285D01*
X35904761Y-33666666D01*
X35952380Y-33571428D01*
X35952380Y-33380952D01*
X35904761Y-33285714D01*
X35857142Y-33238095D01*
X35761904Y-33190476D01*
X34952380Y-33190476D01*
X35952380Y-32190476D02*
X35952380Y-32761904D01*
X35952380Y-32476190D02*
X34952380Y-32476190D01*
X35095238Y-32571428D01*
X35190476Y-32666666D01*
X35238095Y-32761904D01*
X42057142Y-34866666D02*
X42104761Y-34914285D01*
X42152380Y-35057142D01*
X42152380Y-35152380D01*
X42104761Y-35295238D01*
X42009523Y-35390476D01*
X41914285Y-35438095D01*
X41723809Y-35485714D01*
X41580952Y-35485714D01*
X41390476Y-35438095D01*
X41295238Y-35390476D01*
X41200000Y-35295238D01*
X41152380Y-35152380D01*
X41152380Y-35057142D01*
X41200000Y-34914285D01*
X41247619Y-34866666D01*
X41152380Y-34009523D02*
X41152380Y-34200000D01*
X41200000Y-34295238D01*
X41247619Y-34342857D01*
X41390476Y-34438095D01*
X41580952Y-34485714D01*
X41961904Y-34485714D01*
X42057142Y-34438095D01*
X42104761Y-34390476D01*
X42152380Y-34295238D01*
X42152380Y-34104761D01*
X42104761Y-34009523D01*
X42057142Y-33961904D01*
X41961904Y-33914285D01*
X41723809Y-33914285D01*
X41628571Y-33961904D01*
X41580952Y-34009523D01*
X41533333Y-34104761D01*
X41533333Y-34295238D01*
X41580952Y-34390476D01*
X41628571Y-34438095D01*
X41723809Y-34485714D01*
X39528571Y-43285714D02*
X39576190Y-43142857D01*
X39623809Y-43095238D01*
X39719047Y-43047619D01*
X39861904Y-43047619D01*
X39957142Y-43095238D01*
X40004761Y-43142857D01*
X40052380Y-43238095D01*
X40052380Y-43619047D01*
X39052380Y-43619047D01*
X39052380Y-43285714D01*
X39100000Y-43190476D01*
X39147619Y-43142857D01*
X39242857Y-43095238D01*
X39338095Y-43095238D01*
X39433333Y-43142857D01*
X39480952Y-43190476D01*
X39528571Y-43285714D01*
X39528571Y-43619047D01*
X40052380Y-42619047D02*
X39052380Y-42619047D01*
X39766666Y-42190476D02*
X39766666Y-41714285D01*
X40052380Y-42285714D02*
X39052380Y-41952380D01*
X40052380Y-41619047D01*
X40004761Y-41333333D02*
X40052380Y-41190476D01*
X40052380Y-40952380D01*
X40004761Y-40857142D01*
X39957142Y-40809523D01*
X39861904Y-40761904D01*
X39766666Y-40761904D01*
X39671428Y-40809523D01*
X39623809Y-40857142D01*
X39576190Y-40952380D01*
X39528571Y-41142857D01*
X39480952Y-41238095D01*
X39433333Y-41285714D01*
X39338095Y-41333333D01*
X39242857Y-41333333D01*
X39147619Y-41285714D01*
X39100000Y-41238095D01*
X39052380Y-41142857D01*
X39052380Y-40904761D01*
X39100000Y-40761904D01*
X40147619Y-40571428D02*
X40147619Y-39809523D01*
X40004761Y-39619047D02*
X40052380Y-39476190D01*
X40052380Y-39238095D01*
X40004761Y-39142857D01*
X39957142Y-39095238D01*
X39861904Y-39047619D01*
X39766666Y-39047619D01*
X39671428Y-39095238D01*
X39623809Y-39142857D01*
X39576190Y-39238095D01*
X39528571Y-39428571D01*
X39480952Y-39523809D01*
X39433333Y-39571428D01*
X39338095Y-39619047D01*
X39242857Y-39619047D01*
X39147619Y-39571428D01*
X39100000Y-39523809D01*
X39052380Y-39428571D01*
X39052380Y-39190476D01*
X39100000Y-39047619D01*
X39528571Y-38619047D02*
X39528571Y-38285714D01*
X40052380Y-38142857D02*
X40052380Y-38619047D01*
X39052380Y-38619047D01*
X39052380Y-38142857D01*
X40052380Y-37238095D02*
X40052380Y-37714285D01*
X39052380Y-37714285D01*
X47604761Y-27628571D02*
X47938095Y-27628571D01*
X48080952Y-28152380D02*
X47604761Y-28152380D01*
X47604761Y-27152380D01*
X48080952Y-27152380D01*
X48414285Y-27152380D02*
X49080952Y-28152380D01*
X49080952Y-27152380D02*
X48414285Y-28152380D01*
X49319047Y-27152380D02*
X49890476Y-27152380D01*
X49604761Y-28152380D02*
X49604761Y-27152380D01*
X49985714Y-28247619D02*
X50747619Y-28247619D01*
X51319047Y-27628571D02*
X51461904Y-27676190D01*
X51509523Y-27723809D01*
X51557142Y-27819047D01*
X51557142Y-27961904D01*
X51509523Y-28057142D01*
X51461904Y-28104761D01*
X51366666Y-28152380D01*
X50985714Y-28152380D01*
X50985714Y-27152380D01*
X51319047Y-27152380D01*
X51414285Y-27200000D01*
X51461904Y-27247619D01*
X51509523Y-27342857D01*
X51509523Y-27438095D01*
X51461904Y-27533333D01*
X51414285Y-27580952D01*
X51319047Y-27628571D01*
X50985714Y-27628571D01*
X51985714Y-28152380D02*
X51985714Y-27152380D01*
X52414285Y-27866666D02*
X52890476Y-27866666D01*
X52319047Y-28152380D02*
X52652380Y-27152380D01*
X52985714Y-28152380D01*
X53271428Y-28104761D02*
X53414285Y-28152380D01*
X53652380Y-28152380D01*
X53747619Y-28104761D01*
X53795238Y-28057142D01*
X53842857Y-27961904D01*
X53842857Y-27866666D01*
X53795238Y-27771428D01*
X53747619Y-27723809D01*
X53652380Y-27676190D01*
X53461904Y-27628571D01*
X53366666Y-27580952D01*
X53319047Y-27533333D01*
X53271428Y-27438095D01*
X53271428Y-27342857D01*
X53319047Y-27247619D01*
X53366666Y-27200000D01*
X53461904Y-27152380D01*
X53700000Y-27152380D01*
X53842857Y-27200000D01*
X72022380Y-62303333D02*
X72736666Y-62303333D01*
X72879523Y-62350952D01*
X72974761Y-62446190D01*
X73022380Y-62589047D01*
X73022380Y-62684285D01*
X72117619Y-61874761D02*
X72070000Y-61827142D01*
X72022380Y-61731904D01*
X72022380Y-61493809D01*
X72070000Y-61398571D01*
X72117619Y-61350952D01*
X72212857Y-61303333D01*
X72308095Y-61303333D01*
X72450952Y-61350952D01*
X73022380Y-61922380D01*
X73022380Y-61303333D01*
M02*
