M48
; DRILL file {KiCad 5.1.5} date Fri 06 Mar 2020 12:09:14 AM PST
; FORMAT={-:-/ absolute / metric / decimal}
; #@! TF.CreationDate,2020-03-06T00:09:14-08:00
; #@! TF.GenerationSoftware,Kicad,Pcbnew,5.1.5
; #@! TF.FileFunction,Plated,1,2,PTH
FMAT,2
METRIC
T1C0.400
T2C0.460
T3C0.650
T4C0.700
T5C1.000
T6C1.200
T7C3.200
%
G90
G05
T1
X31.25Y-48.5
X31.25Y-50.5
X32.25Y-48.5
X32.25Y-50.5
X32.9Y-46.0
X32.9Y-46.9
X32.9Y-47.8
X33.25Y-50.5
X34.25Y-50.75
X35.25Y-50.5
X35.6Y-47.7
X35.75Y-48.5
X36.25Y-50.5
X36.75Y-48.5
X37.25Y-50.5
X37.75Y-48.5
X38.25Y-50.5
X38.75Y-48.5
X39.25Y-50.5
X39.75Y-48.25
X40.25Y-50.5
X40.5Y-47.5
X41.0Y-50.0
X41.25Y-46.75
X41.4Y-36.9
X41.75Y-49.25
X42.0Y-46.0
X42.5Y-48.5
X42.75Y-45.25
X43.25Y-47.75
X43.5Y-44.5
X44.0Y-47.0
X44.25Y-43.75
X44.3Y-33.1
X44.75Y-46.25
X45.0Y-43.25
X45.5Y-45.5
X45.9Y-43.1
X46.3Y-45.1
X46.5Y-48.0
X46.8Y-43.1
X47.2Y-45.1
X47.7Y-43.1
X51.7Y-50.3
X52.594Y-50.991
X53.164Y-51.877
X53.179Y-48.788
X53.5Y-57.2
X53.9Y-49.6
X55.1Y-43.5
X55.102Y-49.9
X57.3Y-45.8
X57.4Y-55.9
X58.6Y-52.6
X58.6Y-53.7
X59.0Y-54.8
X63.4Y-57.7
X65.3Y-30.9
X65.845Y-52.424
X65.981Y-53.711
X67.6Y-31.2
X69.1Y-34.8
T2
X31.47Y-45.12
X31.47Y-53.88
T5
X31.72Y-40.3
X34.26Y-40.3
X36.8Y-40.3
X60.08Y-60.7
X60.08Y-63.24
X62.62Y-60.7
X62.62Y-63.24
X65.16Y-60.7
X65.16Y-63.24
X67.7Y-60.7
X67.7Y-63.24
X70.24Y-60.7
X70.24Y-63.24
X35.375Y-67.882
X35.375Y-70.422
X37.915Y-67.882
X37.915Y-70.422
X40.455Y-67.882
X40.455Y-70.422
X42.995Y-67.882
X42.995Y-70.422
X45.535Y-67.882
X45.535Y-70.422
X48.075Y-67.882
X48.075Y-70.422
X50.615Y-67.882
X50.615Y-70.422
X53.155Y-67.882
X53.155Y-70.422
X55.695Y-67.882
X55.695Y-70.422
X58.235Y-67.882
X58.235Y-70.422
X60.775Y-67.882
X60.775Y-70.422
X63.315Y-67.882
X63.315Y-70.422
X65.855Y-67.882
X65.855Y-70.422
X68.395Y-67.882
X68.395Y-70.422
X70.935Y-67.882
X70.935Y-70.422
X73.475Y-67.882
X73.475Y-70.422
X76.015Y-67.882
X76.015Y-70.422
X78.555Y-67.882
X78.555Y-70.422
X81.095Y-67.882
X81.095Y-70.422
X83.635Y-67.882
X83.635Y-70.422
T6
X42.96Y-29.6
X45.5Y-29.6
T7
X27.95Y-70.05
X91.062Y-27.95
X91.062Y-70.05
X27.95Y-27.95
T3
G00X80.555Y-29.435
M15
G01X80.555Y-29.835
M16
G05
G00X85.395Y-29.435
M15
G01X85.395Y-29.835
M16
G05
T4
G00X80.245Y-26.385
M15
G01X80.245Y-26.885
M16
G05
G00X85.705Y-26.385
M15
G01X85.705Y-26.885
M16
G05
T0
M30
