G04 #@! TF.GenerationSoftware,KiCad,Pcbnew,5.1.5*
G04 #@! TF.CreationDate,2020-03-05T23:31:40-08:00*
G04 #@! TF.ProjectId,orangepi-neo-gps,6f72616e-6765-4706-992d-6e656f2d6770,rev?*
G04 #@! TF.SameCoordinates,Original*
G04 #@! TF.FileFunction,Legend,Bot*
G04 #@! TF.FilePolarity,Positive*
%FSLAX46Y46*%
G04 Gerber Fmt 4.6, Leading zero omitted, Abs format (unit mm)*
G04 Created by KiCad (PCBNEW 5.1.5) date 2020-03-05 23:31:40*
%MOMM*%
%LPD*%
G04 APERTURE LIST*
%ADD10C,0.120000*%
%ADD11C,0.250000*%
G04 APERTURE END LIST*
D10*
X31840000Y-62647936D02*
X31840000Y-63852064D01*
X33660000Y-62647936D02*
X33660000Y-63852064D01*
X64497936Y-54490000D02*
X65702064Y-54490000D01*
X64497936Y-56310000D02*
X65702064Y-56310000D01*
X37038748Y-47210000D02*
X37561252Y-47210000D01*
X37038748Y-45790000D02*
X37561252Y-45790000D01*
X71852064Y-33840000D02*
X70647936Y-33840000D01*
X71852064Y-35660000D02*
X70647936Y-35660000D01*
X68510000Y-28397936D02*
X68510000Y-29602064D01*
X66690000Y-28397936D02*
X66690000Y-29602064D01*
X34500000Y-61000000D02*
X36500000Y-61000000D01*
X36500000Y-61000000D02*
X36500000Y-64900000D01*
X34500000Y-61000000D02*
X34500000Y-64900000D01*
X34045000Y-66552000D02*
X34045000Y-69152000D01*
X34045000Y-66552000D02*
X84965000Y-66552000D01*
X84965000Y-66552000D02*
X84965000Y-71752000D01*
X36645000Y-71752000D02*
X84965000Y-71752000D01*
X36645000Y-69152000D02*
X36645000Y-71752000D01*
X34045000Y-69152000D02*
X36645000Y-69152000D01*
X34045000Y-71752000D02*
X35375000Y-71752000D01*
X34045000Y-70422000D02*
X34045000Y-71752000D01*
X78825000Y-27815000D02*
X78825000Y-29365000D01*
X78825000Y-27815000D02*
X79125000Y-27815000D01*
X79125000Y-25015000D02*
X79125000Y-27815000D01*
X87125000Y-27815000D02*
X87125000Y-29365000D01*
X86825000Y-27815000D02*
X87125000Y-27815000D01*
X86825000Y-25015000D02*
X86825000Y-27815000D01*
X82075000Y-31065000D02*
X81675000Y-30615000D01*
X81275000Y-31065000D02*
X82075000Y-31065000D01*
X81675000Y-30615000D02*
X81275000Y-31065000D01*
X32250000Y-49250000D02*
X31750000Y-49500000D01*
X32250000Y-49750000D02*
X32250000Y-49250000D01*
X31750000Y-49500000D02*
X32250000Y-49750000D01*
X33540000Y-48238748D02*
X33540000Y-48761252D01*
X34960000Y-48238748D02*
X34960000Y-48761252D01*
X65361252Y-58410000D02*
X64838748Y-58410000D01*
X65361252Y-56990000D02*
X64838748Y-56990000D01*
X33540000Y-44238748D02*
X33540000Y-44761252D01*
X34960000Y-44238748D02*
X34960000Y-44761252D01*
X83040000Y-33488748D02*
X83040000Y-34011252D01*
X84460000Y-33488748D02*
X84460000Y-34011252D01*
X82210000Y-33488748D02*
X82210000Y-34011252D01*
X80790000Y-33488748D02*
X80790000Y-34011252D01*
X66010000Y-28838748D02*
X66010000Y-29361252D01*
X64590000Y-28838748D02*
X64590000Y-29361252D01*
X76261252Y-34040000D02*
X75738748Y-34040000D01*
X76261252Y-35460000D02*
X75738748Y-35460000D01*
X41160000Y-60100000D02*
X41160000Y-54090000D01*
X34340000Y-57850000D02*
X34340000Y-54090000D01*
X41160000Y-54090000D02*
X39900000Y-54090000D01*
X34340000Y-54090000D02*
X35600000Y-54090000D01*
X48540000Y-49900000D02*
X48540000Y-47900000D01*
X60960000Y-49900000D02*
X60960000Y-47900000D01*
X48540000Y-41890000D02*
X60960000Y-41890000D01*
X48650000Y-58110000D02*
X60960000Y-58110000D01*
X48540000Y-42500000D02*
X48540000Y-41890000D01*
X60960000Y-58110000D02*
X60960000Y-57500000D01*
X60960000Y-42500000D02*
X60960000Y-41900000D01*
X75410000Y-26340000D02*
X75410000Y-27600000D01*
X75410000Y-33160000D02*
X75410000Y-31900000D01*
X71650000Y-26340000D02*
X75410000Y-26340000D01*
X69400000Y-33160000D02*
X75410000Y-33160000D01*
D11*
X31287142Y-63083333D02*
X31334761Y-63035714D01*
X31382380Y-62892857D01*
X31382380Y-62797619D01*
X31334761Y-62654761D01*
X31239523Y-62559523D01*
X31144285Y-62511904D01*
X30953809Y-62464285D01*
X30810952Y-62464285D01*
X30620476Y-62511904D01*
X30525238Y-62559523D01*
X30430000Y-62654761D01*
X30382380Y-62797619D01*
X30382380Y-62892857D01*
X30430000Y-63035714D01*
X30477619Y-63083333D01*
X31382380Y-64035714D02*
X31382380Y-63464285D01*
X31382380Y-63750000D02*
X30382380Y-63750000D01*
X30525238Y-63654761D01*
X30620476Y-63559523D01*
X30668095Y-63464285D01*
X68766666Y-55757142D02*
X68814285Y-55804761D01*
X68957142Y-55852380D01*
X69052380Y-55852380D01*
X69195238Y-55804761D01*
X69290476Y-55709523D01*
X69338095Y-55614285D01*
X69385714Y-55423809D01*
X69385714Y-55280952D01*
X69338095Y-55090476D01*
X69290476Y-54995238D01*
X69195238Y-54900000D01*
X69052380Y-54852380D01*
X68957142Y-54852380D01*
X68814285Y-54900000D01*
X68766666Y-54947619D01*
X68385714Y-54947619D02*
X68338095Y-54900000D01*
X68242857Y-54852380D01*
X68004761Y-54852380D01*
X67909523Y-54900000D01*
X67861904Y-54947619D01*
X67814285Y-55042857D01*
X67814285Y-55138095D01*
X67861904Y-55280952D01*
X68433333Y-55852380D01*
X67814285Y-55852380D01*
X39366666Y-45257142D02*
X39414285Y-45304761D01*
X39557142Y-45352380D01*
X39652380Y-45352380D01*
X39795238Y-45304761D01*
X39890476Y-45209523D01*
X39938095Y-45114285D01*
X39985714Y-44923809D01*
X39985714Y-44780952D01*
X39938095Y-44590476D01*
X39890476Y-44495238D01*
X39795238Y-44400000D01*
X39652380Y-44352380D01*
X39557142Y-44352380D01*
X39414285Y-44400000D01*
X39366666Y-44447619D01*
X39033333Y-44352380D02*
X38414285Y-44352380D01*
X38747619Y-44733333D01*
X38604761Y-44733333D01*
X38509523Y-44780952D01*
X38461904Y-44828571D01*
X38414285Y-44923809D01*
X38414285Y-45161904D01*
X38461904Y-45257142D01*
X38509523Y-45304761D01*
X38604761Y-45352380D01*
X38890476Y-45352380D01*
X38985714Y-45304761D01*
X39033333Y-45257142D01*
X71416666Y-36957142D02*
X71464285Y-37004761D01*
X71607142Y-37052380D01*
X71702380Y-37052380D01*
X71845238Y-37004761D01*
X71940476Y-36909523D01*
X71988095Y-36814285D01*
X72035714Y-36623809D01*
X72035714Y-36480952D01*
X71988095Y-36290476D01*
X71940476Y-36195238D01*
X71845238Y-36100000D01*
X71702380Y-36052380D01*
X71607142Y-36052380D01*
X71464285Y-36100000D01*
X71416666Y-36147619D01*
X70559523Y-36385714D02*
X70559523Y-37052380D01*
X70797619Y-36004761D02*
X71035714Y-36719047D01*
X70416666Y-36719047D01*
X67957142Y-32433333D02*
X68004761Y-32385714D01*
X68052380Y-32242857D01*
X68052380Y-32147619D01*
X68004761Y-32004761D01*
X67909523Y-31909523D01*
X67814285Y-31861904D01*
X67623809Y-31814285D01*
X67480952Y-31814285D01*
X67290476Y-31861904D01*
X67195238Y-31909523D01*
X67100000Y-32004761D01*
X67052380Y-32147619D01*
X67052380Y-32242857D01*
X67100000Y-32385714D01*
X67147619Y-32433333D01*
X67052380Y-33338095D02*
X67052380Y-32861904D01*
X67528571Y-32814285D01*
X67480952Y-32861904D01*
X67433333Y-32957142D01*
X67433333Y-33195238D01*
X67480952Y-33290476D01*
X67528571Y-33338095D01*
X67623809Y-33385714D01*
X67861904Y-33385714D01*
X67957142Y-33338095D01*
X68004761Y-33290476D01*
X68052380Y-33195238D01*
X68052380Y-32957142D01*
X68004761Y-32861904D01*
X67957142Y-32814285D01*
X37952380Y-62511904D02*
X36952380Y-62511904D01*
X36952380Y-62750000D01*
X37000000Y-62892857D01*
X37095238Y-62988095D01*
X37190476Y-63035714D01*
X37380952Y-63083333D01*
X37523809Y-63083333D01*
X37714285Y-63035714D01*
X37809523Y-62988095D01*
X37904761Y-62892857D01*
X37952380Y-62750000D01*
X37952380Y-62511904D01*
X37952380Y-64035714D02*
X37952380Y-63464285D01*
X37952380Y-63750000D02*
X36952380Y-63750000D01*
X37095238Y-63654761D01*
X37190476Y-63559523D01*
X37238095Y-63464285D01*
X32057380Y-68818666D02*
X32771666Y-68818666D01*
X32914523Y-68771047D01*
X33009761Y-68675809D01*
X33057380Y-68532952D01*
X33057380Y-68437714D01*
X33057380Y-69818666D02*
X33057380Y-69247238D01*
X33057380Y-69532952D02*
X32057380Y-69532952D01*
X32200238Y-69437714D01*
X32295476Y-69342476D01*
X32343095Y-69247238D01*
X33852380Y-51633333D02*
X33852380Y-51157142D01*
X32852380Y-51157142D01*
X33852380Y-52490476D02*
X33852380Y-51919047D01*
X33852380Y-52204761D02*
X32852380Y-52204761D01*
X32995238Y-52109523D01*
X33090476Y-52014285D01*
X33138095Y-51919047D01*
X68166666Y-58152380D02*
X68500000Y-57676190D01*
X68738095Y-58152380D02*
X68738095Y-57152380D01*
X68357142Y-57152380D01*
X68261904Y-57200000D01*
X68214285Y-57247619D01*
X68166666Y-57342857D01*
X68166666Y-57485714D01*
X68214285Y-57580952D01*
X68261904Y-57628571D01*
X68357142Y-57676190D01*
X68738095Y-57676190D01*
X67214285Y-58152380D02*
X67785714Y-58152380D01*
X67500000Y-58152380D02*
X67500000Y-57152380D01*
X67595238Y-57295238D01*
X67690476Y-57390476D01*
X67785714Y-57438095D01*
X36452380Y-44133333D02*
X35976190Y-43800000D01*
X36452380Y-43561904D02*
X35452380Y-43561904D01*
X35452380Y-43942857D01*
X35500000Y-44038095D01*
X35547619Y-44085714D01*
X35642857Y-44133333D01*
X35785714Y-44133333D01*
X35880952Y-44085714D01*
X35928571Y-44038095D01*
X35976190Y-43942857D01*
X35976190Y-43561904D01*
X35547619Y-44514285D02*
X35500000Y-44561904D01*
X35452380Y-44657142D01*
X35452380Y-44895238D01*
X35500000Y-44990476D01*
X35547619Y-45038095D01*
X35642857Y-45085714D01*
X35738095Y-45085714D01*
X35880952Y-45038095D01*
X36452380Y-44466666D01*
X36452380Y-45085714D01*
X85952380Y-33583333D02*
X85476190Y-33250000D01*
X85952380Y-33011904D02*
X84952380Y-33011904D01*
X84952380Y-33392857D01*
X85000000Y-33488095D01*
X85047619Y-33535714D01*
X85142857Y-33583333D01*
X85285714Y-33583333D01*
X85380952Y-33535714D01*
X85428571Y-33488095D01*
X85476190Y-33392857D01*
X85476190Y-33011904D01*
X84952380Y-33916666D02*
X84952380Y-34535714D01*
X85333333Y-34202380D01*
X85333333Y-34345238D01*
X85380952Y-34440476D01*
X85428571Y-34488095D01*
X85523809Y-34535714D01*
X85761904Y-34535714D01*
X85857142Y-34488095D01*
X85904761Y-34440476D01*
X85952380Y-34345238D01*
X85952380Y-34059523D01*
X85904761Y-33964285D01*
X85857142Y-33916666D01*
X80302380Y-33583333D02*
X79826190Y-33250000D01*
X80302380Y-33011904D02*
X79302380Y-33011904D01*
X79302380Y-33392857D01*
X79350000Y-33488095D01*
X79397619Y-33535714D01*
X79492857Y-33583333D01*
X79635714Y-33583333D01*
X79730952Y-33535714D01*
X79778571Y-33488095D01*
X79826190Y-33392857D01*
X79826190Y-33011904D01*
X79635714Y-34440476D02*
X80302380Y-34440476D01*
X79254761Y-34202380D02*
X79969047Y-33964285D01*
X79969047Y-34583333D01*
X65752380Y-32433333D02*
X65276190Y-32100000D01*
X65752380Y-31861904D02*
X64752380Y-31861904D01*
X64752380Y-32242857D01*
X64800000Y-32338095D01*
X64847619Y-32385714D01*
X64942857Y-32433333D01*
X65085714Y-32433333D01*
X65180952Y-32385714D01*
X65228571Y-32338095D01*
X65276190Y-32242857D01*
X65276190Y-31861904D01*
X64752380Y-33338095D02*
X64752380Y-32861904D01*
X65228571Y-32814285D01*
X65180952Y-32861904D01*
X65133333Y-32957142D01*
X65133333Y-33195238D01*
X65180952Y-33290476D01*
X65228571Y-33338095D01*
X65323809Y-33385714D01*
X65561904Y-33385714D01*
X65657142Y-33338095D01*
X65704761Y-33290476D01*
X65752380Y-33195238D01*
X65752380Y-32957142D01*
X65704761Y-32861904D01*
X65657142Y-32814285D01*
X76166666Y-36952380D02*
X76500000Y-36476190D01*
X76738095Y-36952380D02*
X76738095Y-35952380D01*
X76357142Y-35952380D01*
X76261904Y-36000000D01*
X76214285Y-36047619D01*
X76166666Y-36142857D01*
X76166666Y-36285714D01*
X76214285Y-36380952D01*
X76261904Y-36428571D01*
X76357142Y-36476190D01*
X76738095Y-36476190D01*
X75309523Y-35952380D02*
X75500000Y-35952380D01*
X75595238Y-36000000D01*
X75642857Y-36047619D01*
X75738095Y-36190476D01*
X75785714Y-36380952D01*
X75785714Y-36761904D01*
X75738095Y-36857142D01*
X75690476Y-36904761D01*
X75595238Y-36952380D01*
X75404761Y-36952380D01*
X75309523Y-36904761D01*
X75261904Y-36857142D01*
X75214285Y-36761904D01*
X75214285Y-36523809D01*
X75261904Y-36428571D01*
X75309523Y-36380952D01*
X75404761Y-36333333D01*
X75595238Y-36333333D01*
X75690476Y-36380952D01*
X75738095Y-36428571D01*
X75785714Y-36523809D01*
X41702380Y-55238095D02*
X42511904Y-55238095D01*
X42607142Y-55285714D01*
X42654761Y-55333333D01*
X42702380Y-55428571D01*
X42702380Y-55619047D01*
X42654761Y-55714285D01*
X42607142Y-55761904D01*
X42511904Y-55809523D01*
X41702380Y-55809523D01*
X41797619Y-56238095D02*
X41750000Y-56285714D01*
X41702380Y-56380952D01*
X41702380Y-56619047D01*
X41750000Y-56714285D01*
X41797619Y-56761904D01*
X41892857Y-56809523D01*
X41988095Y-56809523D01*
X42130952Y-56761904D01*
X42702380Y-56190476D01*
X42702380Y-56809523D01*
X55511904Y-58452380D02*
X55511904Y-59261904D01*
X55464285Y-59357142D01*
X55416666Y-59404761D01*
X55321428Y-59452380D01*
X55130952Y-59452380D01*
X55035714Y-59404761D01*
X54988095Y-59357142D01*
X54940476Y-59261904D01*
X54940476Y-58452380D01*
X54559523Y-58452380D02*
X53940476Y-58452380D01*
X54273809Y-58833333D01*
X54130952Y-58833333D01*
X54035714Y-58880952D01*
X53988095Y-58928571D01*
X53940476Y-59023809D01*
X53940476Y-59261904D01*
X53988095Y-59357142D01*
X54035714Y-59404761D01*
X54130952Y-59452380D01*
X54416666Y-59452380D01*
X54511904Y-59404761D01*
X54559523Y-59357142D01*
X77661904Y-32652380D02*
X77661904Y-33461904D01*
X77614285Y-33557142D01*
X77566666Y-33604761D01*
X77471428Y-33652380D01*
X77280952Y-33652380D01*
X77185714Y-33604761D01*
X77138095Y-33557142D01*
X77090476Y-33461904D01*
X77090476Y-32652380D01*
X76185714Y-32985714D02*
X76185714Y-33652380D01*
X76423809Y-32604761D02*
X76661904Y-33319047D01*
X76042857Y-33319047D01*
M02*
