G04 #@! TF.GenerationSoftware,KiCad,Pcbnew,5.1.5*
G04 #@! TF.CreationDate,2020-03-05T23:31:40-08:00*
G04 #@! TF.ProjectId,orangepi-neo-gps,6f72616e-6765-4706-992d-6e656f2d6770,rev?*
G04 #@! TF.SameCoordinates,Original*
G04 #@! TF.FileFunction,Paste,Top*
G04 #@! TF.FilePolarity,Positive*
%FSLAX46Y46*%
G04 Gerber Fmt 4.6, Leading zero omitted, Abs format (unit mm)*
G04 Created by KiCad (PCBNEW 5.1.5) date 2020-03-05 23:31:40*
%MOMM*%
%LPD*%
G04 APERTURE LIST*
%ADD10R,3.600000X2.600000*%
%ADD11R,5.080000X2.420000*%
%ADD12R,1.550000X1.300000*%
%ADD13C,0.100000*%
G04 APERTURE END LIST*
D10*
X51500000Y-31100000D03*
X51500000Y-60400000D03*
D11*
X28030000Y-53880000D03*
X28030000Y-45120000D03*
D12*
X42975000Y-59750000D03*
X42975000Y-64250000D03*
X35025000Y-64250000D03*
X35025000Y-59750000D03*
D13*
G36*
X36612252Y-30075602D02*
G01*
X36624386Y-30077402D01*
X36636286Y-30080382D01*
X36647835Y-30084515D01*
X36658925Y-30089760D01*
X36669446Y-30096066D01*
X36679299Y-30103374D01*
X36688388Y-30111612D01*
X36696626Y-30120701D01*
X36703934Y-30130554D01*
X36710240Y-30141075D01*
X36715485Y-30152165D01*
X36719618Y-30163714D01*
X36722598Y-30175614D01*
X36724398Y-30187748D01*
X36725000Y-30200000D01*
X36725000Y-31575000D01*
X36724398Y-31587252D01*
X36722598Y-31599386D01*
X36719618Y-31611286D01*
X36715485Y-31622835D01*
X36710240Y-31633925D01*
X36703934Y-31644446D01*
X36696626Y-31654299D01*
X36688388Y-31663388D01*
X36679299Y-31671626D01*
X36669446Y-31678934D01*
X36658925Y-31685240D01*
X36647835Y-31690485D01*
X36636286Y-31694618D01*
X36624386Y-31697598D01*
X36612252Y-31699398D01*
X36600000Y-31700000D01*
X36350000Y-31700000D01*
X36337748Y-31699398D01*
X36325614Y-31697598D01*
X36313714Y-31694618D01*
X36302165Y-31690485D01*
X36291075Y-31685240D01*
X36280554Y-31678934D01*
X36270701Y-31671626D01*
X36261612Y-31663388D01*
X36253374Y-31654299D01*
X36246066Y-31644446D01*
X36239760Y-31633925D01*
X36234515Y-31622835D01*
X36230382Y-31611286D01*
X36227402Y-31599386D01*
X36225602Y-31587252D01*
X36225000Y-31575000D01*
X36225000Y-30200000D01*
X36225602Y-30187748D01*
X36227402Y-30175614D01*
X36230382Y-30163714D01*
X36234515Y-30152165D01*
X36239760Y-30141075D01*
X36246066Y-30130554D01*
X36253374Y-30120701D01*
X36261612Y-30111612D01*
X36270701Y-30103374D01*
X36280554Y-30096066D01*
X36291075Y-30089760D01*
X36302165Y-30084515D01*
X36313714Y-30080382D01*
X36325614Y-30077402D01*
X36337748Y-30075602D01*
X36350000Y-30075000D01*
X36600000Y-30075000D01*
X36612252Y-30075602D01*
G37*
G36*
X35962252Y-30075602D02*
G01*
X35974386Y-30077402D01*
X35986286Y-30080382D01*
X35997835Y-30084515D01*
X36008925Y-30089760D01*
X36019446Y-30096066D01*
X36029299Y-30103374D01*
X36038388Y-30111612D01*
X36046626Y-30120701D01*
X36053934Y-30130554D01*
X36060240Y-30141075D01*
X36065485Y-30152165D01*
X36069618Y-30163714D01*
X36072598Y-30175614D01*
X36074398Y-30187748D01*
X36075000Y-30200000D01*
X36075000Y-31575000D01*
X36074398Y-31587252D01*
X36072598Y-31599386D01*
X36069618Y-31611286D01*
X36065485Y-31622835D01*
X36060240Y-31633925D01*
X36053934Y-31644446D01*
X36046626Y-31654299D01*
X36038388Y-31663388D01*
X36029299Y-31671626D01*
X36019446Y-31678934D01*
X36008925Y-31685240D01*
X35997835Y-31690485D01*
X35986286Y-31694618D01*
X35974386Y-31697598D01*
X35962252Y-31699398D01*
X35950000Y-31700000D01*
X35700000Y-31700000D01*
X35687748Y-31699398D01*
X35675614Y-31697598D01*
X35663714Y-31694618D01*
X35652165Y-31690485D01*
X35641075Y-31685240D01*
X35630554Y-31678934D01*
X35620701Y-31671626D01*
X35611612Y-31663388D01*
X35603374Y-31654299D01*
X35596066Y-31644446D01*
X35589760Y-31633925D01*
X35584515Y-31622835D01*
X35580382Y-31611286D01*
X35577402Y-31599386D01*
X35575602Y-31587252D01*
X35575000Y-31575000D01*
X35575000Y-30200000D01*
X35575602Y-30187748D01*
X35577402Y-30175614D01*
X35580382Y-30163714D01*
X35584515Y-30152165D01*
X35589760Y-30141075D01*
X35596066Y-30130554D01*
X35603374Y-30120701D01*
X35611612Y-30111612D01*
X35620701Y-30103374D01*
X35630554Y-30096066D01*
X35641075Y-30089760D01*
X35652165Y-30084515D01*
X35663714Y-30080382D01*
X35675614Y-30077402D01*
X35687748Y-30075602D01*
X35700000Y-30075000D01*
X35950000Y-30075000D01*
X35962252Y-30075602D01*
G37*
G36*
X35312252Y-30075602D02*
G01*
X35324386Y-30077402D01*
X35336286Y-30080382D01*
X35347835Y-30084515D01*
X35358925Y-30089760D01*
X35369446Y-30096066D01*
X35379299Y-30103374D01*
X35388388Y-30111612D01*
X35396626Y-30120701D01*
X35403934Y-30130554D01*
X35410240Y-30141075D01*
X35415485Y-30152165D01*
X35419618Y-30163714D01*
X35422598Y-30175614D01*
X35424398Y-30187748D01*
X35425000Y-30200000D01*
X35425000Y-31575000D01*
X35424398Y-31587252D01*
X35422598Y-31599386D01*
X35419618Y-31611286D01*
X35415485Y-31622835D01*
X35410240Y-31633925D01*
X35403934Y-31644446D01*
X35396626Y-31654299D01*
X35388388Y-31663388D01*
X35379299Y-31671626D01*
X35369446Y-31678934D01*
X35358925Y-31685240D01*
X35347835Y-31690485D01*
X35336286Y-31694618D01*
X35324386Y-31697598D01*
X35312252Y-31699398D01*
X35300000Y-31700000D01*
X35050000Y-31700000D01*
X35037748Y-31699398D01*
X35025614Y-31697598D01*
X35013714Y-31694618D01*
X35002165Y-31690485D01*
X34991075Y-31685240D01*
X34980554Y-31678934D01*
X34970701Y-31671626D01*
X34961612Y-31663388D01*
X34953374Y-31654299D01*
X34946066Y-31644446D01*
X34939760Y-31633925D01*
X34934515Y-31622835D01*
X34930382Y-31611286D01*
X34927402Y-31599386D01*
X34925602Y-31587252D01*
X34925000Y-31575000D01*
X34925000Y-30200000D01*
X34925602Y-30187748D01*
X34927402Y-30175614D01*
X34930382Y-30163714D01*
X34934515Y-30152165D01*
X34939760Y-30141075D01*
X34946066Y-30130554D01*
X34953374Y-30120701D01*
X34961612Y-30111612D01*
X34970701Y-30103374D01*
X34980554Y-30096066D01*
X34991075Y-30089760D01*
X35002165Y-30084515D01*
X35013714Y-30080382D01*
X35025614Y-30077402D01*
X35037748Y-30075602D01*
X35050000Y-30075000D01*
X35300000Y-30075000D01*
X35312252Y-30075602D01*
G37*
G36*
X34662252Y-30075602D02*
G01*
X34674386Y-30077402D01*
X34686286Y-30080382D01*
X34697835Y-30084515D01*
X34708925Y-30089760D01*
X34719446Y-30096066D01*
X34729299Y-30103374D01*
X34738388Y-30111612D01*
X34746626Y-30120701D01*
X34753934Y-30130554D01*
X34760240Y-30141075D01*
X34765485Y-30152165D01*
X34769618Y-30163714D01*
X34772598Y-30175614D01*
X34774398Y-30187748D01*
X34775000Y-30200000D01*
X34775000Y-31575000D01*
X34774398Y-31587252D01*
X34772598Y-31599386D01*
X34769618Y-31611286D01*
X34765485Y-31622835D01*
X34760240Y-31633925D01*
X34753934Y-31644446D01*
X34746626Y-31654299D01*
X34738388Y-31663388D01*
X34729299Y-31671626D01*
X34719446Y-31678934D01*
X34708925Y-31685240D01*
X34697835Y-31690485D01*
X34686286Y-31694618D01*
X34674386Y-31697598D01*
X34662252Y-31699398D01*
X34650000Y-31700000D01*
X34400000Y-31700000D01*
X34387748Y-31699398D01*
X34375614Y-31697598D01*
X34363714Y-31694618D01*
X34352165Y-31690485D01*
X34341075Y-31685240D01*
X34330554Y-31678934D01*
X34320701Y-31671626D01*
X34311612Y-31663388D01*
X34303374Y-31654299D01*
X34296066Y-31644446D01*
X34289760Y-31633925D01*
X34284515Y-31622835D01*
X34280382Y-31611286D01*
X34277402Y-31599386D01*
X34275602Y-31587252D01*
X34275000Y-31575000D01*
X34275000Y-30200000D01*
X34275602Y-30187748D01*
X34277402Y-30175614D01*
X34280382Y-30163714D01*
X34284515Y-30152165D01*
X34289760Y-30141075D01*
X34296066Y-30130554D01*
X34303374Y-30120701D01*
X34311612Y-30111612D01*
X34320701Y-30103374D01*
X34330554Y-30096066D01*
X34341075Y-30089760D01*
X34352165Y-30084515D01*
X34363714Y-30080382D01*
X34375614Y-30077402D01*
X34387748Y-30075602D01*
X34400000Y-30075000D01*
X34650000Y-30075000D01*
X34662252Y-30075602D01*
G37*
G36*
X34662252Y-34300602D02*
G01*
X34674386Y-34302402D01*
X34686286Y-34305382D01*
X34697835Y-34309515D01*
X34708925Y-34314760D01*
X34719446Y-34321066D01*
X34729299Y-34328374D01*
X34738388Y-34336612D01*
X34746626Y-34345701D01*
X34753934Y-34355554D01*
X34760240Y-34366075D01*
X34765485Y-34377165D01*
X34769618Y-34388714D01*
X34772598Y-34400614D01*
X34774398Y-34412748D01*
X34775000Y-34425000D01*
X34775000Y-35800000D01*
X34774398Y-35812252D01*
X34772598Y-35824386D01*
X34769618Y-35836286D01*
X34765485Y-35847835D01*
X34760240Y-35858925D01*
X34753934Y-35869446D01*
X34746626Y-35879299D01*
X34738388Y-35888388D01*
X34729299Y-35896626D01*
X34719446Y-35903934D01*
X34708925Y-35910240D01*
X34697835Y-35915485D01*
X34686286Y-35919618D01*
X34674386Y-35922598D01*
X34662252Y-35924398D01*
X34650000Y-35925000D01*
X34400000Y-35925000D01*
X34387748Y-35924398D01*
X34375614Y-35922598D01*
X34363714Y-35919618D01*
X34352165Y-35915485D01*
X34341075Y-35910240D01*
X34330554Y-35903934D01*
X34320701Y-35896626D01*
X34311612Y-35888388D01*
X34303374Y-35879299D01*
X34296066Y-35869446D01*
X34289760Y-35858925D01*
X34284515Y-35847835D01*
X34280382Y-35836286D01*
X34277402Y-35824386D01*
X34275602Y-35812252D01*
X34275000Y-35800000D01*
X34275000Y-34425000D01*
X34275602Y-34412748D01*
X34277402Y-34400614D01*
X34280382Y-34388714D01*
X34284515Y-34377165D01*
X34289760Y-34366075D01*
X34296066Y-34355554D01*
X34303374Y-34345701D01*
X34311612Y-34336612D01*
X34320701Y-34328374D01*
X34330554Y-34321066D01*
X34341075Y-34314760D01*
X34352165Y-34309515D01*
X34363714Y-34305382D01*
X34375614Y-34302402D01*
X34387748Y-34300602D01*
X34400000Y-34300000D01*
X34650000Y-34300000D01*
X34662252Y-34300602D01*
G37*
G36*
X35312252Y-34300602D02*
G01*
X35324386Y-34302402D01*
X35336286Y-34305382D01*
X35347835Y-34309515D01*
X35358925Y-34314760D01*
X35369446Y-34321066D01*
X35379299Y-34328374D01*
X35388388Y-34336612D01*
X35396626Y-34345701D01*
X35403934Y-34355554D01*
X35410240Y-34366075D01*
X35415485Y-34377165D01*
X35419618Y-34388714D01*
X35422598Y-34400614D01*
X35424398Y-34412748D01*
X35425000Y-34425000D01*
X35425000Y-35800000D01*
X35424398Y-35812252D01*
X35422598Y-35824386D01*
X35419618Y-35836286D01*
X35415485Y-35847835D01*
X35410240Y-35858925D01*
X35403934Y-35869446D01*
X35396626Y-35879299D01*
X35388388Y-35888388D01*
X35379299Y-35896626D01*
X35369446Y-35903934D01*
X35358925Y-35910240D01*
X35347835Y-35915485D01*
X35336286Y-35919618D01*
X35324386Y-35922598D01*
X35312252Y-35924398D01*
X35300000Y-35925000D01*
X35050000Y-35925000D01*
X35037748Y-35924398D01*
X35025614Y-35922598D01*
X35013714Y-35919618D01*
X35002165Y-35915485D01*
X34991075Y-35910240D01*
X34980554Y-35903934D01*
X34970701Y-35896626D01*
X34961612Y-35888388D01*
X34953374Y-35879299D01*
X34946066Y-35869446D01*
X34939760Y-35858925D01*
X34934515Y-35847835D01*
X34930382Y-35836286D01*
X34927402Y-35824386D01*
X34925602Y-35812252D01*
X34925000Y-35800000D01*
X34925000Y-34425000D01*
X34925602Y-34412748D01*
X34927402Y-34400614D01*
X34930382Y-34388714D01*
X34934515Y-34377165D01*
X34939760Y-34366075D01*
X34946066Y-34355554D01*
X34953374Y-34345701D01*
X34961612Y-34336612D01*
X34970701Y-34328374D01*
X34980554Y-34321066D01*
X34991075Y-34314760D01*
X35002165Y-34309515D01*
X35013714Y-34305382D01*
X35025614Y-34302402D01*
X35037748Y-34300602D01*
X35050000Y-34300000D01*
X35300000Y-34300000D01*
X35312252Y-34300602D01*
G37*
G36*
X35962252Y-34300602D02*
G01*
X35974386Y-34302402D01*
X35986286Y-34305382D01*
X35997835Y-34309515D01*
X36008925Y-34314760D01*
X36019446Y-34321066D01*
X36029299Y-34328374D01*
X36038388Y-34336612D01*
X36046626Y-34345701D01*
X36053934Y-34355554D01*
X36060240Y-34366075D01*
X36065485Y-34377165D01*
X36069618Y-34388714D01*
X36072598Y-34400614D01*
X36074398Y-34412748D01*
X36075000Y-34425000D01*
X36075000Y-35800000D01*
X36074398Y-35812252D01*
X36072598Y-35824386D01*
X36069618Y-35836286D01*
X36065485Y-35847835D01*
X36060240Y-35858925D01*
X36053934Y-35869446D01*
X36046626Y-35879299D01*
X36038388Y-35888388D01*
X36029299Y-35896626D01*
X36019446Y-35903934D01*
X36008925Y-35910240D01*
X35997835Y-35915485D01*
X35986286Y-35919618D01*
X35974386Y-35922598D01*
X35962252Y-35924398D01*
X35950000Y-35925000D01*
X35700000Y-35925000D01*
X35687748Y-35924398D01*
X35675614Y-35922598D01*
X35663714Y-35919618D01*
X35652165Y-35915485D01*
X35641075Y-35910240D01*
X35630554Y-35903934D01*
X35620701Y-35896626D01*
X35611612Y-35888388D01*
X35603374Y-35879299D01*
X35596066Y-35869446D01*
X35589760Y-35858925D01*
X35584515Y-35847835D01*
X35580382Y-35836286D01*
X35577402Y-35824386D01*
X35575602Y-35812252D01*
X35575000Y-35800000D01*
X35575000Y-34425000D01*
X35575602Y-34412748D01*
X35577402Y-34400614D01*
X35580382Y-34388714D01*
X35584515Y-34377165D01*
X35589760Y-34366075D01*
X35596066Y-34355554D01*
X35603374Y-34345701D01*
X35611612Y-34336612D01*
X35620701Y-34328374D01*
X35630554Y-34321066D01*
X35641075Y-34314760D01*
X35652165Y-34309515D01*
X35663714Y-34305382D01*
X35675614Y-34302402D01*
X35687748Y-34300602D01*
X35700000Y-34300000D01*
X35950000Y-34300000D01*
X35962252Y-34300602D01*
G37*
G36*
X36612252Y-34300602D02*
G01*
X36624386Y-34302402D01*
X36636286Y-34305382D01*
X36647835Y-34309515D01*
X36658925Y-34314760D01*
X36669446Y-34321066D01*
X36679299Y-34328374D01*
X36688388Y-34336612D01*
X36696626Y-34345701D01*
X36703934Y-34355554D01*
X36710240Y-34366075D01*
X36715485Y-34377165D01*
X36719618Y-34388714D01*
X36722598Y-34400614D01*
X36724398Y-34412748D01*
X36725000Y-34425000D01*
X36725000Y-35800000D01*
X36724398Y-35812252D01*
X36722598Y-35824386D01*
X36719618Y-35836286D01*
X36715485Y-35847835D01*
X36710240Y-35858925D01*
X36703934Y-35869446D01*
X36696626Y-35879299D01*
X36688388Y-35888388D01*
X36679299Y-35896626D01*
X36669446Y-35903934D01*
X36658925Y-35910240D01*
X36647835Y-35915485D01*
X36636286Y-35919618D01*
X36624386Y-35922598D01*
X36612252Y-35924398D01*
X36600000Y-35925000D01*
X36350000Y-35925000D01*
X36337748Y-35924398D01*
X36325614Y-35922598D01*
X36313714Y-35919618D01*
X36302165Y-35915485D01*
X36291075Y-35910240D01*
X36280554Y-35903934D01*
X36270701Y-35896626D01*
X36261612Y-35888388D01*
X36253374Y-35879299D01*
X36246066Y-35869446D01*
X36239760Y-35858925D01*
X36234515Y-35847835D01*
X36230382Y-35836286D01*
X36227402Y-35824386D01*
X36225602Y-35812252D01*
X36225000Y-35800000D01*
X36225000Y-34425000D01*
X36225602Y-34412748D01*
X36227402Y-34400614D01*
X36230382Y-34388714D01*
X36234515Y-34377165D01*
X36239760Y-34366075D01*
X36246066Y-34355554D01*
X36253374Y-34345701D01*
X36261612Y-34336612D01*
X36270701Y-34328374D01*
X36280554Y-34321066D01*
X36291075Y-34314760D01*
X36302165Y-34309515D01*
X36313714Y-34305382D01*
X36325614Y-34302402D01*
X36337748Y-34300602D01*
X36350000Y-34300000D01*
X36600000Y-34300000D01*
X36612252Y-34300602D01*
G37*
G36*
X40474505Y-35151204D02*
G01*
X40498773Y-35154804D01*
X40522572Y-35160765D01*
X40545671Y-35169030D01*
X40567850Y-35179520D01*
X40588893Y-35192132D01*
X40608599Y-35206747D01*
X40626777Y-35223223D01*
X40643253Y-35241401D01*
X40657868Y-35261107D01*
X40670480Y-35282150D01*
X40680970Y-35304329D01*
X40689235Y-35327428D01*
X40695196Y-35351227D01*
X40698796Y-35375495D01*
X40700000Y-35399999D01*
X40700000Y-36050001D01*
X40698796Y-36074505D01*
X40695196Y-36098773D01*
X40689235Y-36122572D01*
X40680970Y-36145671D01*
X40670480Y-36167850D01*
X40657868Y-36188893D01*
X40643253Y-36208599D01*
X40626777Y-36226777D01*
X40608599Y-36243253D01*
X40588893Y-36257868D01*
X40567850Y-36270480D01*
X40545671Y-36280970D01*
X40522572Y-36289235D01*
X40498773Y-36295196D01*
X40474505Y-36298796D01*
X40450001Y-36300000D01*
X39549999Y-36300000D01*
X39525495Y-36298796D01*
X39501227Y-36295196D01*
X39477428Y-36289235D01*
X39454329Y-36280970D01*
X39432150Y-36270480D01*
X39411107Y-36257868D01*
X39391401Y-36243253D01*
X39373223Y-36226777D01*
X39356747Y-36208599D01*
X39342132Y-36188893D01*
X39329520Y-36167850D01*
X39319030Y-36145671D01*
X39310765Y-36122572D01*
X39304804Y-36098773D01*
X39301204Y-36074505D01*
X39300000Y-36050001D01*
X39300000Y-35399999D01*
X39301204Y-35375495D01*
X39304804Y-35351227D01*
X39310765Y-35327428D01*
X39319030Y-35304329D01*
X39329520Y-35282150D01*
X39342132Y-35261107D01*
X39356747Y-35241401D01*
X39373223Y-35223223D01*
X39391401Y-35206747D01*
X39411107Y-35192132D01*
X39432150Y-35179520D01*
X39454329Y-35169030D01*
X39477428Y-35160765D01*
X39501227Y-35154804D01*
X39525495Y-35151204D01*
X39549999Y-35150000D01*
X40450001Y-35150000D01*
X40474505Y-35151204D01*
G37*
G36*
X40474505Y-33101204D02*
G01*
X40498773Y-33104804D01*
X40522572Y-33110765D01*
X40545671Y-33119030D01*
X40567850Y-33129520D01*
X40588893Y-33142132D01*
X40608599Y-33156747D01*
X40626777Y-33173223D01*
X40643253Y-33191401D01*
X40657868Y-33211107D01*
X40670480Y-33232150D01*
X40680970Y-33254329D01*
X40689235Y-33277428D01*
X40695196Y-33301227D01*
X40698796Y-33325495D01*
X40700000Y-33349999D01*
X40700000Y-34000001D01*
X40698796Y-34024505D01*
X40695196Y-34048773D01*
X40689235Y-34072572D01*
X40680970Y-34095671D01*
X40670480Y-34117850D01*
X40657868Y-34138893D01*
X40643253Y-34158599D01*
X40626777Y-34176777D01*
X40608599Y-34193253D01*
X40588893Y-34207868D01*
X40567850Y-34220480D01*
X40545671Y-34230970D01*
X40522572Y-34239235D01*
X40498773Y-34245196D01*
X40474505Y-34248796D01*
X40450001Y-34250000D01*
X39549999Y-34250000D01*
X39525495Y-34248796D01*
X39501227Y-34245196D01*
X39477428Y-34239235D01*
X39454329Y-34230970D01*
X39432150Y-34220480D01*
X39411107Y-34207868D01*
X39391401Y-34193253D01*
X39373223Y-34176777D01*
X39356747Y-34158599D01*
X39342132Y-34138893D01*
X39329520Y-34117850D01*
X39319030Y-34095671D01*
X39310765Y-34072572D01*
X39304804Y-34048773D01*
X39301204Y-34024505D01*
X39300000Y-34000001D01*
X39300000Y-33349999D01*
X39301204Y-33325495D01*
X39304804Y-33301227D01*
X39310765Y-33277428D01*
X39319030Y-33254329D01*
X39329520Y-33232150D01*
X39342132Y-33211107D01*
X39356747Y-33191401D01*
X39373223Y-33173223D01*
X39391401Y-33156747D01*
X39411107Y-33142132D01*
X39432150Y-33129520D01*
X39454329Y-33119030D01*
X39477428Y-33110765D01*
X39501227Y-33104804D01*
X39525495Y-33101204D01*
X39549999Y-33100000D01*
X40450001Y-33100000D01*
X40474505Y-33101204D01*
G37*
M02*
