G04 #@! TF.GenerationSoftware,KiCad,Pcbnew,5.1.5*
G04 #@! TF.CreationDate,2020-03-05T23:31:40-08:00*
G04 #@! TF.ProjectId,orangepi-neo-gps,6f72616e-6765-4706-992d-6e656f2d6770,rev?*
G04 #@! TF.SameCoordinates,Original*
G04 #@! TF.FileFunction,Copper,L1,Top*
G04 #@! TF.FilePolarity,Positive*
%FSLAX46Y46*%
G04 Gerber Fmt 4.6, Leading zero omitted, Abs format (unit mm)*
G04 Created by KiCad (PCBNEW 5.1.5) date 2020-03-05 23:31:40*
%MOMM*%
%LPD*%
G04 APERTURE LIST*
%ADD10R,3.600000X2.600000*%
%ADD11C,5.700000*%
%ADD12R,1.700000X1.700000*%
%ADD13O,1.700000X1.700000*%
%ADD14O,1.100000X1.500000*%
%ADD15O,1.350000X1.700000*%
%ADD16R,5.080000X2.420000*%
%ADD17C,0.970000*%
%ADD18R,0.950000X0.460000*%
%ADD19R,1.550000X1.300000*%
%ADD20C,0.100000*%
%ADD21O,1.740000X2.200000*%
%ADD22C,0.800000*%
%ADD23C,0.254000*%
%ADD24C,0.508000*%
G04 APERTURE END LIST*
D10*
X51500000Y-31100000D03*
X51500000Y-60400000D03*
D11*
X27950000Y-27950000D03*
X27950000Y-70050000D03*
X91062000Y-27950000D03*
X91062000Y-70050000D03*
D12*
X35375000Y-70422000D03*
D13*
X35375000Y-67882000D03*
X37915000Y-70422000D03*
X37915000Y-67882000D03*
X40455000Y-70422000D03*
X40455000Y-67882000D03*
X42995000Y-70422000D03*
X42995000Y-67882000D03*
X45535000Y-70422000D03*
X45535000Y-67882000D03*
X48075000Y-70422000D03*
X48075000Y-67882000D03*
X50615000Y-70422000D03*
X50615000Y-67882000D03*
X53155000Y-70422000D03*
X53155000Y-67882000D03*
X55695000Y-70422000D03*
X55695000Y-67882000D03*
X58235000Y-70422000D03*
X58235000Y-67882000D03*
X60775000Y-70422000D03*
X60775000Y-67882000D03*
X63315000Y-70422000D03*
X63315000Y-67882000D03*
X65855000Y-70422000D03*
X65855000Y-67882000D03*
X68395000Y-70422000D03*
X68395000Y-67882000D03*
X70935000Y-70422000D03*
X70935000Y-67882000D03*
X73475000Y-70422000D03*
X73475000Y-67882000D03*
X76015000Y-70422000D03*
X76015000Y-67882000D03*
X78555000Y-70422000D03*
X78555000Y-67882000D03*
X81095000Y-70422000D03*
X81095000Y-67882000D03*
X83635000Y-70422000D03*
X83635000Y-67882000D03*
D14*
X80555000Y-29635000D03*
X85395000Y-29635000D03*
D15*
X80245000Y-26635000D03*
X85705000Y-26635000D03*
D16*
X28030000Y-53880000D03*
X28030000Y-45120000D03*
D17*
X31470000Y-53880000D03*
X31470000Y-45120000D03*
D18*
X31020000Y-53880000D03*
X31020000Y-45120000D03*
D19*
X42975000Y-59750000D03*
X42975000Y-64250000D03*
X35025000Y-64250000D03*
X35025000Y-59750000D03*
G04 #@! TA.AperFunction,SMDPad,CuDef*
D20*
G36*
X36612252Y-30075602D02*
G01*
X36624386Y-30077402D01*
X36636286Y-30080382D01*
X36647835Y-30084515D01*
X36658925Y-30089760D01*
X36669446Y-30096066D01*
X36679299Y-30103374D01*
X36688388Y-30111612D01*
X36696626Y-30120701D01*
X36703934Y-30130554D01*
X36710240Y-30141075D01*
X36715485Y-30152165D01*
X36719618Y-30163714D01*
X36722598Y-30175614D01*
X36724398Y-30187748D01*
X36725000Y-30200000D01*
X36725000Y-31575000D01*
X36724398Y-31587252D01*
X36722598Y-31599386D01*
X36719618Y-31611286D01*
X36715485Y-31622835D01*
X36710240Y-31633925D01*
X36703934Y-31644446D01*
X36696626Y-31654299D01*
X36688388Y-31663388D01*
X36679299Y-31671626D01*
X36669446Y-31678934D01*
X36658925Y-31685240D01*
X36647835Y-31690485D01*
X36636286Y-31694618D01*
X36624386Y-31697598D01*
X36612252Y-31699398D01*
X36600000Y-31700000D01*
X36350000Y-31700000D01*
X36337748Y-31699398D01*
X36325614Y-31697598D01*
X36313714Y-31694618D01*
X36302165Y-31690485D01*
X36291075Y-31685240D01*
X36280554Y-31678934D01*
X36270701Y-31671626D01*
X36261612Y-31663388D01*
X36253374Y-31654299D01*
X36246066Y-31644446D01*
X36239760Y-31633925D01*
X36234515Y-31622835D01*
X36230382Y-31611286D01*
X36227402Y-31599386D01*
X36225602Y-31587252D01*
X36225000Y-31575000D01*
X36225000Y-30200000D01*
X36225602Y-30187748D01*
X36227402Y-30175614D01*
X36230382Y-30163714D01*
X36234515Y-30152165D01*
X36239760Y-30141075D01*
X36246066Y-30130554D01*
X36253374Y-30120701D01*
X36261612Y-30111612D01*
X36270701Y-30103374D01*
X36280554Y-30096066D01*
X36291075Y-30089760D01*
X36302165Y-30084515D01*
X36313714Y-30080382D01*
X36325614Y-30077402D01*
X36337748Y-30075602D01*
X36350000Y-30075000D01*
X36600000Y-30075000D01*
X36612252Y-30075602D01*
G37*
G04 #@! TD.AperFunction*
G04 #@! TA.AperFunction,SMDPad,CuDef*
G36*
X35962252Y-30075602D02*
G01*
X35974386Y-30077402D01*
X35986286Y-30080382D01*
X35997835Y-30084515D01*
X36008925Y-30089760D01*
X36019446Y-30096066D01*
X36029299Y-30103374D01*
X36038388Y-30111612D01*
X36046626Y-30120701D01*
X36053934Y-30130554D01*
X36060240Y-30141075D01*
X36065485Y-30152165D01*
X36069618Y-30163714D01*
X36072598Y-30175614D01*
X36074398Y-30187748D01*
X36075000Y-30200000D01*
X36075000Y-31575000D01*
X36074398Y-31587252D01*
X36072598Y-31599386D01*
X36069618Y-31611286D01*
X36065485Y-31622835D01*
X36060240Y-31633925D01*
X36053934Y-31644446D01*
X36046626Y-31654299D01*
X36038388Y-31663388D01*
X36029299Y-31671626D01*
X36019446Y-31678934D01*
X36008925Y-31685240D01*
X35997835Y-31690485D01*
X35986286Y-31694618D01*
X35974386Y-31697598D01*
X35962252Y-31699398D01*
X35950000Y-31700000D01*
X35700000Y-31700000D01*
X35687748Y-31699398D01*
X35675614Y-31697598D01*
X35663714Y-31694618D01*
X35652165Y-31690485D01*
X35641075Y-31685240D01*
X35630554Y-31678934D01*
X35620701Y-31671626D01*
X35611612Y-31663388D01*
X35603374Y-31654299D01*
X35596066Y-31644446D01*
X35589760Y-31633925D01*
X35584515Y-31622835D01*
X35580382Y-31611286D01*
X35577402Y-31599386D01*
X35575602Y-31587252D01*
X35575000Y-31575000D01*
X35575000Y-30200000D01*
X35575602Y-30187748D01*
X35577402Y-30175614D01*
X35580382Y-30163714D01*
X35584515Y-30152165D01*
X35589760Y-30141075D01*
X35596066Y-30130554D01*
X35603374Y-30120701D01*
X35611612Y-30111612D01*
X35620701Y-30103374D01*
X35630554Y-30096066D01*
X35641075Y-30089760D01*
X35652165Y-30084515D01*
X35663714Y-30080382D01*
X35675614Y-30077402D01*
X35687748Y-30075602D01*
X35700000Y-30075000D01*
X35950000Y-30075000D01*
X35962252Y-30075602D01*
G37*
G04 #@! TD.AperFunction*
G04 #@! TA.AperFunction,SMDPad,CuDef*
G36*
X35312252Y-30075602D02*
G01*
X35324386Y-30077402D01*
X35336286Y-30080382D01*
X35347835Y-30084515D01*
X35358925Y-30089760D01*
X35369446Y-30096066D01*
X35379299Y-30103374D01*
X35388388Y-30111612D01*
X35396626Y-30120701D01*
X35403934Y-30130554D01*
X35410240Y-30141075D01*
X35415485Y-30152165D01*
X35419618Y-30163714D01*
X35422598Y-30175614D01*
X35424398Y-30187748D01*
X35425000Y-30200000D01*
X35425000Y-31575000D01*
X35424398Y-31587252D01*
X35422598Y-31599386D01*
X35419618Y-31611286D01*
X35415485Y-31622835D01*
X35410240Y-31633925D01*
X35403934Y-31644446D01*
X35396626Y-31654299D01*
X35388388Y-31663388D01*
X35379299Y-31671626D01*
X35369446Y-31678934D01*
X35358925Y-31685240D01*
X35347835Y-31690485D01*
X35336286Y-31694618D01*
X35324386Y-31697598D01*
X35312252Y-31699398D01*
X35300000Y-31700000D01*
X35050000Y-31700000D01*
X35037748Y-31699398D01*
X35025614Y-31697598D01*
X35013714Y-31694618D01*
X35002165Y-31690485D01*
X34991075Y-31685240D01*
X34980554Y-31678934D01*
X34970701Y-31671626D01*
X34961612Y-31663388D01*
X34953374Y-31654299D01*
X34946066Y-31644446D01*
X34939760Y-31633925D01*
X34934515Y-31622835D01*
X34930382Y-31611286D01*
X34927402Y-31599386D01*
X34925602Y-31587252D01*
X34925000Y-31575000D01*
X34925000Y-30200000D01*
X34925602Y-30187748D01*
X34927402Y-30175614D01*
X34930382Y-30163714D01*
X34934515Y-30152165D01*
X34939760Y-30141075D01*
X34946066Y-30130554D01*
X34953374Y-30120701D01*
X34961612Y-30111612D01*
X34970701Y-30103374D01*
X34980554Y-30096066D01*
X34991075Y-30089760D01*
X35002165Y-30084515D01*
X35013714Y-30080382D01*
X35025614Y-30077402D01*
X35037748Y-30075602D01*
X35050000Y-30075000D01*
X35300000Y-30075000D01*
X35312252Y-30075602D01*
G37*
G04 #@! TD.AperFunction*
G04 #@! TA.AperFunction,SMDPad,CuDef*
G36*
X34662252Y-30075602D02*
G01*
X34674386Y-30077402D01*
X34686286Y-30080382D01*
X34697835Y-30084515D01*
X34708925Y-30089760D01*
X34719446Y-30096066D01*
X34729299Y-30103374D01*
X34738388Y-30111612D01*
X34746626Y-30120701D01*
X34753934Y-30130554D01*
X34760240Y-30141075D01*
X34765485Y-30152165D01*
X34769618Y-30163714D01*
X34772598Y-30175614D01*
X34774398Y-30187748D01*
X34775000Y-30200000D01*
X34775000Y-31575000D01*
X34774398Y-31587252D01*
X34772598Y-31599386D01*
X34769618Y-31611286D01*
X34765485Y-31622835D01*
X34760240Y-31633925D01*
X34753934Y-31644446D01*
X34746626Y-31654299D01*
X34738388Y-31663388D01*
X34729299Y-31671626D01*
X34719446Y-31678934D01*
X34708925Y-31685240D01*
X34697835Y-31690485D01*
X34686286Y-31694618D01*
X34674386Y-31697598D01*
X34662252Y-31699398D01*
X34650000Y-31700000D01*
X34400000Y-31700000D01*
X34387748Y-31699398D01*
X34375614Y-31697598D01*
X34363714Y-31694618D01*
X34352165Y-31690485D01*
X34341075Y-31685240D01*
X34330554Y-31678934D01*
X34320701Y-31671626D01*
X34311612Y-31663388D01*
X34303374Y-31654299D01*
X34296066Y-31644446D01*
X34289760Y-31633925D01*
X34284515Y-31622835D01*
X34280382Y-31611286D01*
X34277402Y-31599386D01*
X34275602Y-31587252D01*
X34275000Y-31575000D01*
X34275000Y-30200000D01*
X34275602Y-30187748D01*
X34277402Y-30175614D01*
X34280382Y-30163714D01*
X34284515Y-30152165D01*
X34289760Y-30141075D01*
X34296066Y-30130554D01*
X34303374Y-30120701D01*
X34311612Y-30111612D01*
X34320701Y-30103374D01*
X34330554Y-30096066D01*
X34341075Y-30089760D01*
X34352165Y-30084515D01*
X34363714Y-30080382D01*
X34375614Y-30077402D01*
X34387748Y-30075602D01*
X34400000Y-30075000D01*
X34650000Y-30075000D01*
X34662252Y-30075602D01*
G37*
G04 #@! TD.AperFunction*
G04 #@! TA.AperFunction,SMDPad,CuDef*
G36*
X34662252Y-34300602D02*
G01*
X34674386Y-34302402D01*
X34686286Y-34305382D01*
X34697835Y-34309515D01*
X34708925Y-34314760D01*
X34719446Y-34321066D01*
X34729299Y-34328374D01*
X34738388Y-34336612D01*
X34746626Y-34345701D01*
X34753934Y-34355554D01*
X34760240Y-34366075D01*
X34765485Y-34377165D01*
X34769618Y-34388714D01*
X34772598Y-34400614D01*
X34774398Y-34412748D01*
X34775000Y-34425000D01*
X34775000Y-35800000D01*
X34774398Y-35812252D01*
X34772598Y-35824386D01*
X34769618Y-35836286D01*
X34765485Y-35847835D01*
X34760240Y-35858925D01*
X34753934Y-35869446D01*
X34746626Y-35879299D01*
X34738388Y-35888388D01*
X34729299Y-35896626D01*
X34719446Y-35903934D01*
X34708925Y-35910240D01*
X34697835Y-35915485D01*
X34686286Y-35919618D01*
X34674386Y-35922598D01*
X34662252Y-35924398D01*
X34650000Y-35925000D01*
X34400000Y-35925000D01*
X34387748Y-35924398D01*
X34375614Y-35922598D01*
X34363714Y-35919618D01*
X34352165Y-35915485D01*
X34341075Y-35910240D01*
X34330554Y-35903934D01*
X34320701Y-35896626D01*
X34311612Y-35888388D01*
X34303374Y-35879299D01*
X34296066Y-35869446D01*
X34289760Y-35858925D01*
X34284515Y-35847835D01*
X34280382Y-35836286D01*
X34277402Y-35824386D01*
X34275602Y-35812252D01*
X34275000Y-35800000D01*
X34275000Y-34425000D01*
X34275602Y-34412748D01*
X34277402Y-34400614D01*
X34280382Y-34388714D01*
X34284515Y-34377165D01*
X34289760Y-34366075D01*
X34296066Y-34355554D01*
X34303374Y-34345701D01*
X34311612Y-34336612D01*
X34320701Y-34328374D01*
X34330554Y-34321066D01*
X34341075Y-34314760D01*
X34352165Y-34309515D01*
X34363714Y-34305382D01*
X34375614Y-34302402D01*
X34387748Y-34300602D01*
X34400000Y-34300000D01*
X34650000Y-34300000D01*
X34662252Y-34300602D01*
G37*
G04 #@! TD.AperFunction*
G04 #@! TA.AperFunction,SMDPad,CuDef*
G36*
X35312252Y-34300602D02*
G01*
X35324386Y-34302402D01*
X35336286Y-34305382D01*
X35347835Y-34309515D01*
X35358925Y-34314760D01*
X35369446Y-34321066D01*
X35379299Y-34328374D01*
X35388388Y-34336612D01*
X35396626Y-34345701D01*
X35403934Y-34355554D01*
X35410240Y-34366075D01*
X35415485Y-34377165D01*
X35419618Y-34388714D01*
X35422598Y-34400614D01*
X35424398Y-34412748D01*
X35425000Y-34425000D01*
X35425000Y-35800000D01*
X35424398Y-35812252D01*
X35422598Y-35824386D01*
X35419618Y-35836286D01*
X35415485Y-35847835D01*
X35410240Y-35858925D01*
X35403934Y-35869446D01*
X35396626Y-35879299D01*
X35388388Y-35888388D01*
X35379299Y-35896626D01*
X35369446Y-35903934D01*
X35358925Y-35910240D01*
X35347835Y-35915485D01*
X35336286Y-35919618D01*
X35324386Y-35922598D01*
X35312252Y-35924398D01*
X35300000Y-35925000D01*
X35050000Y-35925000D01*
X35037748Y-35924398D01*
X35025614Y-35922598D01*
X35013714Y-35919618D01*
X35002165Y-35915485D01*
X34991075Y-35910240D01*
X34980554Y-35903934D01*
X34970701Y-35896626D01*
X34961612Y-35888388D01*
X34953374Y-35879299D01*
X34946066Y-35869446D01*
X34939760Y-35858925D01*
X34934515Y-35847835D01*
X34930382Y-35836286D01*
X34927402Y-35824386D01*
X34925602Y-35812252D01*
X34925000Y-35800000D01*
X34925000Y-34425000D01*
X34925602Y-34412748D01*
X34927402Y-34400614D01*
X34930382Y-34388714D01*
X34934515Y-34377165D01*
X34939760Y-34366075D01*
X34946066Y-34355554D01*
X34953374Y-34345701D01*
X34961612Y-34336612D01*
X34970701Y-34328374D01*
X34980554Y-34321066D01*
X34991075Y-34314760D01*
X35002165Y-34309515D01*
X35013714Y-34305382D01*
X35025614Y-34302402D01*
X35037748Y-34300602D01*
X35050000Y-34300000D01*
X35300000Y-34300000D01*
X35312252Y-34300602D01*
G37*
G04 #@! TD.AperFunction*
G04 #@! TA.AperFunction,SMDPad,CuDef*
G36*
X35962252Y-34300602D02*
G01*
X35974386Y-34302402D01*
X35986286Y-34305382D01*
X35997835Y-34309515D01*
X36008925Y-34314760D01*
X36019446Y-34321066D01*
X36029299Y-34328374D01*
X36038388Y-34336612D01*
X36046626Y-34345701D01*
X36053934Y-34355554D01*
X36060240Y-34366075D01*
X36065485Y-34377165D01*
X36069618Y-34388714D01*
X36072598Y-34400614D01*
X36074398Y-34412748D01*
X36075000Y-34425000D01*
X36075000Y-35800000D01*
X36074398Y-35812252D01*
X36072598Y-35824386D01*
X36069618Y-35836286D01*
X36065485Y-35847835D01*
X36060240Y-35858925D01*
X36053934Y-35869446D01*
X36046626Y-35879299D01*
X36038388Y-35888388D01*
X36029299Y-35896626D01*
X36019446Y-35903934D01*
X36008925Y-35910240D01*
X35997835Y-35915485D01*
X35986286Y-35919618D01*
X35974386Y-35922598D01*
X35962252Y-35924398D01*
X35950000Y-35925000D01*
X35700000Y-35925000D01*
X35687748Y-35924398D01*
X35675614Y-35922598D01*
X35663714Y-35919618D01*
X35652165Y-35915485D01*
X35641075Y-35910240D01*
X35630554Y-35903934D01*
X35620701Y-35896626D01*
X35611612Y-35888388D01*
X35603374Y-35879299D01*
X35596066Y-35869446D01*
X35589760Y-35858925D01*
X35584515Y-35847835D01*
X35580382Y-35836286D01*
X35577402Y-35824386D01*
X35575602Y-35812252D01*
X35575000Y-35800000D01*
X35575000Y-34425000D01*
X35575602Y-34412748D01*
X35577402Y-34400614D01*
X35580382Y-34388714D01*
X35584515Y-34377165D01*
X35589760Y-34366075D01*
X35596066Y-34355554D01*
X35603374Y-34345701D01*
X35611612Y-34336612D01*
X35620701Y-34328374D01*
X35630554Y-34321066D01*
X35641075Y-34314760D01*
X35652165Y-34309515D01*
X35663714Y-34305382D01*
X35675614Y-34302402D01*
X35687748Y-34300602D01*
X35700000Y-34300000D01*
X35950000Y-34300000D01*
X35962252Y-34300602D01*
G37*
G04 #@! TD.AperFunction*
G04 #@! TA.AperFunction,SMDPad,CuDef*
G36*
X36612252Y-34300602D02*
G01*
X36624386Y-34302402D01*
X36636286Y-34305382D01*
X36647835Y-34309515D01*
X36658925Y-34314760D01*
X36669446Y-34321066D01*
X36679299Y-34328374D01*
X36688388Y-34336612D01*
X36696626Y-34345701D01*
X36703934Y-34355554D01*
X36710240Y-34366075D01*
X36715485Y-34377165D01*
X36719618Y-34388714D01*
X36722598Y-34400614D01*
X36724398Y-34412748D01*
X36725000Y-34425000D01*
X36725000Y-35800000D01*
X36724398Y-35812252D01*
X36722598Y-35824386D01*
X36719618Y-35836286D01*
X36715485Y-35847835D01*
X36710240Y-35858925D01*
X36703934Y-35869446D01*
X36696626Y-35879299D01*
X36688388Y-35888388D01*
X36679299Y-35896626D01*
X36669446Y-35903934D01*
X36658925Y-35910240D01*
X36647835Y-35915485D01*
X36636286Y-35919618D01*
X36624386Y-35922598D01*
X36612252Y-35924398D01*
X36600000Y-35925000D01*
X36350000Y-35925000D01*
X36337748Y-35924398D01*
X36325614Y-35922598D01*
X36313714Y-35919618D01*
X36302165Y-35915485D01*
X36291075Y-35910240D01*
X36280554Y-35903934D01*
X36270701Y-35896626D01*
X36261612Y-35888388D01*
X36253374Y-35879299D01*
X36246066Y-35869446D01*
X36239760Y-35858925D01*
X36234515Y-35847835D01*
X36230382Y-35836286D01*
X36227402Y-35824386D01*
X36225602Y-35812252D01*
X36225000Y-35800000D01*
X36225000Y-34425000D01*
X36225602Y-34412748D01*
X36227402Y-34400614D01*
X36230382Y-34388714D01*
X36234515Y-34377165D01*
X36239760Y-34366075D01*
X36246066Y-34355554D01*
X36253374Y-34345701D01*
X36261612Y-34336612D01*
X36270701Y-34328374D01*
X36280554Y-34321066D01*
X36291075Y-34314760D01*
X36302165Y-34309515D01*
X36313714Y-34305382D01*
X36325614Y-34302402D01*
X36337748Y-34300602D01*
X36350000Y-34300000D01*
X36600000Y-34300000D01*
X36612252Y-34300602D01*
G37*
G04 #@! TD.AperFunction*
G04 #@! TA.AperFunction,SMDPad,CuDef*
G36*
X40474505Y-35151204D02*
G01*
X40498773Y-35154804D01*
X40522572Y-35160765D01*
X40545671Y-35169030D01*
X40567850Y-35179520D01*
X40588893Y-35192132D01*
X40608599Y-35206747D01*
X40626777Y-35223223D01*
X40643253Y-35241401D01*
X40657868Y-35261107D01*
X40670480Y-35282150D01*
X40680970Y-35304329D01*
X40689235Y-35327428D01*
X40695196Y-35351227D01*
X40698796Y-35375495D01*
X40700000Y-35399999D01*
X40700000Y-36050001D01*
X40698796Y-36074505D01*
X40695196Y-36098773D01*
X40689235Y-36122572D01*
X40680970Y-36145671D01*
X40670480Y-36167850D01*
X40657868Y-36188893D01*
X40643253Y-36208599D01*
X40626777Y-36226777D01*
X40608599Y-36243253D01*
X40588893Y-36257868D01*
X40567850Y-36270480D01*
X40545671Y-36280970D01*
X40522572Y-36289235D01*
X40498773Y-36295196D01*
X40474505Y-36298796D01*
X40450001Y-36300000D01*
X39549999Y-36300000D01*
X39525495Y-36298796D01*
X39501227Y-36295196D01*
X39477428Y-36289235D01*
X39454329Y-36280970D01*
X39432150Y-36270480D01*
X39411107Y-36257868D01*
X39391401Y-36243253D01*
X39373223Y-36226777D01*
X39356747Y-36208599D01*
X39342132Y-36188893D01*
X39329520Y-36167850D01*
X39319030Y-36145671D01*
X39310765Y-36122572D01*
X39304804Y-36098773D01*
X39301204Y-36074505D01*
X39300000Y-36050001D01*
X39300000Y-35399999D01*
X39301204Y-35375495D01*
X39304804Y-35351227D01*
X39310765Y-35327428D01*
X39319030Y-35304329D01*
X39329520Y-35282150D01*
X39342132Y-35261107D01*
X39356747Y-35241401D01*
X39373223Y-35223223D01*
X39391401Y-35206747D01*
X39411107Y-35192132D01*
X39432150Y-35179520D01*
X39454329Y-35169030D01*
X39477428Y-35160765D01*
X39501227Y-35154804D01*
X39525495Y-35151204D01*
X39549999Y-35150000D01*
X40450001Y-35150000D01*
X40474505Y-35151204D01*
G37*
G04 #@! TD.AperFunction*
G04 #@! TA.AperFunction,SMDPad,CuDef*
G36*
X40474505Y-33101204D02*
G01*
X40498773Y-33104804D01*
X40522572Y-33110765D01*
X40545671Y-33119030D01*
X40567850Y-33129520D01*
X40588893Y-33142132D01*
X40608599Y-33156747D01*
X40626777Y-33173223D01*
X40643253Y-33191401D01*
X40657868Y-33211107D01*
X40670480Y-33232150D01*
X40680970Y-33254329D01*
X40689235Y-33277428D01*
X40695196Y-33301227D01*
X40698796Y-33325495D01*
X40700000Y-33349999D01*
X40700000Y-34000001D01*
X40698796Y-34024505D01*
X40695196Y-34048773D01*
X40689235Y-34072572D01*
X40680970Y-34095671D01*
X40670480Y-34117850D01*
X40657868Y-34138893D01*
X40643253Y-34158599D01*
X40626777Y-34176777D01*
X40608599Y-34193253D01*
X40588893Y-34207868D01*
X40567850Y-34220480D01*
X40545671Y-34230970D01*
X40522572Y-34239235D01*
X40498773Y-34245196D01*
X40474505Y-34248796D01*
X40450001Y-34250000D01*
X39549999Y-34250000D01*
X39525495Y-34248796D01*
X39501227Y-34245196D01*
X39477428Y-34239235D01*
X39454329Y-34230970D01*
X39432150Y-34220480D01*
X39411107Y-34207868D01*
X39391401Y-34193253D01*
X39373223Y-34176777D01*
X39356747Y-34158599D01*
X39342132Y-34138893D01*
X39329520Y-34117850D01*
X39319030Y-34095671D01*
X39310765Y-34072572D01*
X39304804Y-34048773D01*
X39301204Y-34024505D01*
X39300000Y-34000001D01*
X39300000Y-33349999D01*
X39301204Y-33325495D01*
X39304804Y-33301227D01*
X39310765Y-33277428D01*
X39319030Y-33254329D01*
X39329520Y-33232150D01*
X39342132Y-33211107D01*
X39356747Y-33191401D01*
X39373223Y-33173223D01*
X39391401Y-33156747D01*
X39411107Y-33142132D01*
X39432150Y-33129520D01*
X39454329Y-33119030D01*
X39477428Y-33110765D01*
X39501227Y-33104804D01*
X39525495Y-33101204D01*
X39549999Y-33100000D01*
X40450001Y-33100000D01*
X40474505Y-33101204D01*
G37*
G04 #@! TD.AperFunction*
D12*
X36800000Y-40300000D03*
D13*
X34260000Y-40300000D03*
X31720000Y-40300000D03*
G04 #@! TA.AperFunction,ComponentPad*
D20*
G36*
X46144505Y-28501204D02*
G01*
X46168773Y-28504804D01*
X46192572Y-28510765D01*
X46215671Y-28519030D01*
X46237850Y-28529520D01*
X46258893Y-28542132D01*
X46278599Y-28556747D01*
X46296777Y-28573223D01*
X46313253Y-28591401D01*
X46327868Y-28611107D01*
X46340480Y-28632150D01*
X46350970Y-28654329D01*
X46359235Y-28677428D01*
X46365196Y-28701227D01*
X46368796Y-28725495D01*
X46370000Y-28749999D01*
X46370000Y-30450001D01*
X46368796Y-30474505D01*
X46365196Y-30498773D01*
X46359235Y-30522572D01*
X46350970Y-30545671D01*
X46340480Y-30567850D01*
X46327868Y-30588893D01*
X46313253Y-30608599D01*
X46296777Y-30626777D01*
X46278599Y-30643253D01*
X46258893Y-30657868D01*
X46237850Y-30670480D01*
X46215671Y-30680970D01*
X46192572Y-30689235D01*
X46168773Y-30695196D01*
X46144505Y-30698796D01*
X46120001Y-30700000D01*
X44879999Y-30700000D01*
X44855495Y-30698796D01*
X44831227Y-30695196D01*
X44807428Y-30689235D01*
X44784329Y-30680970D01*
X44762150Y-30670480D01*
X44741107Y-30657868D01*
X44721401Y-30643253D01*
X44703223Y-30626777D01*
X44686747Y-30608599D01*
X44672132Y-30588893D01*
X44659520Y-30567850D01*
X44649030Y-30545671D01*
X44640765Y-30522572D01*
X44634804Y-30498773D01*
X44631204Y-30474505D01*
X44630000Y-30450001D01*
X44630000Y-28749999D01*
X44631204Y-28725495D01*
X44634804Y-28701227D01*
X44640765Y-28677428D01*
X44649030Y-28654329D01*
X44659520Y-28632150D01*
X44672132Y-28611107D01*
X44686747Y-28591401D01*
X44703223Y-28573223D01*
X44721401Y-28556747D01*
X44741107Y-28542132D01*
X44762150Y-28529520D01*
X44784329Y-28519030D01*
X44807428Y-28510765D01*
X44831227Y-28504804D01*
X44855495Y-28501204D01*
X44879999Y-28500000D01*
X46120001Y-28500000D01*
X46144505Y-28501204D01*
G37*
G04 #@! TD.AperFunction*
D21*
X42960000Y-29600000D03*
D12*
X70240000Y-60700000D03*
D13*
X70240000Y-63240000D03*
X67700000Y-60700000D03*
X67700000Y-63240000D03*
X65160000Y-60700000D03*
X65160000Y-63240000D03*
X62620000Y-60700000D03*
X62620000Y-63240000D03*
X60080000Y-60700000D03*
X60080000Y-63240000D03*
D22*
X69100000Y-34800000D03*
X31250000Y-50500000D03*
X32250000Y-50500000D03*
X33250000Y-50500000D03*
X34250000Y-50750000D03*
X35250000Y-50500000D03*
X36250000Y-50500000D03*
X37250000Y-50500000D03*
X38250000Y-50500000D03*
X39250000Y-50500000D03*
X40250000Y-50500000D03*
X41000000Y-50000000D03*
X41750000Y-49250000D03*
X42500000Y-48500000D03*
X43250000Y-47750000D03*
X44000000Y-47000000D03*
X44750000Y-46250000D03*
X45500000Y-45500000D03*
X31250000Y-48500000D03*
X32250000Y-48500000D03*
X35750000Y-48500000D03*
X36750000Y-48500000D03*
X37750000Y-48500000D03*
X38750000Y-48500000D03*
X39750000Y-48250000D03*
X40500000Y-47500000D03*
X41250000Y-46750000D03*
X42000000Y-46000000D03*
X42750000Y-45250000D03*
X43500000Y-44500000D03*
X44250000Y-43750000D03*
X45000000Y-43250000D03*
X46300000Y-45100000D03*
X47200000Y-45100000D03*
X45900000Y-43100000D03*
X46800000Y-43100000D03*
X47700000Y-43100000D03*
X63400000Y-57700000D03*
X67600000Y-31200000D03*
X65300000Y-30900000D03*
X32900000Y-47800000D03*
X32900000Y-46900000D03*
X32900000Y-46000000D03*
X35600000Y-47700000D03*
X59000000Y-54800000D03*
X57400000Y-55900000D03*
X53500000Y-57200000D03*
X58600000Y-52600000D03*
X65844922Y-52423682D03*
X58600000Y-53700000D03*
X65981010Y-53711108D03*
X57300000Y-45800000D03*
X55100000Y-43500000D03*
X44300000Y-33100000D03*
X41400000Y-36900000D03*
X53900000Y-49600000D03*
X52594093Y-50990900D03*
X53164212Y-51877413D03*
X55102475Y-49900002D03*
X53178628Y-48788127D03*
X51700000Y-50300000D03*
X46500000Y-48000000D03*
D23*
X42114000Y-27300000D02*
X42960000Y-28146000D01*
X34275000Y-30637500D02*
X34275000Y-29999184D01*
X34525000Y-30887500D02*
X34275000Y-30637500D01*
X34275000Y-29999184D02*
X32800000Y-28524184D01*
X42960000Y-28146000D02*
X42960000Y-29500000D01*
X32800000Y-28524184D02*
X32800000Y-27600000D01*
X32800000Y-27600000D02*
X33100000Y-27300000D01*
X33100000Y-27300000D02*
X42114000Y-27300000D01*
X59000000Y-54800000D02*
X58500000Y-54800000D01*
X58500000Y-54800000D02*
X57400000Y-55900000D01*
X51500000Y-60400000D02*
X51500000Y-58846000D01*
X53146000Y-57200000D02*
X53500000Y-57200000D01*
X51500000Y-58846000D02*
X53146000Y-57200000D01*
X65668604Y-52600000D02*
X65844922Y-52423682D01*
X58600000Y-52600000D02*
X65668604Y-52600000D01*
X65969902Y-53700000D02*
X65981010Y-53711108D01*
X58600000Y-53700000D02*
X65969902Y-53700000D01*
X57300000Y-45800000D02*
X55100000Y-43600000D01*
X55100000Y-43600000D02*
X55100000Y-43500000D01*
X36725000Y-30637500D02*
X36475000Y-30887500D01*
X36725000Y-30000816D02*
X36725000Y-30637500D01*
X37831826Y-28893990D02*
X36725000Y-30000816D01*
X44300000Y-33100000D02*
X43734315Y-33100000D01*
X39528305Y-28893990D02*
X37831826Y-28893990D01*
X43734315Y-33100000D02*
X39528305Y-28893990D01*
X36475000Y-35112500D02*
X36725000Y-35362500D01*
X36725000Y-35699184D02*
X37925816Y-36900000D01*
X36725000Y-35362500D02*
X36725000Y-35699184D01*
X40000000Y-36300000D02*
X40000000Y-35725000D01*
X37925816Y-36900000D02*
X39400000Y-36900000D01*
X39400000Y-36900000D02*
X40000000Y-36300000D01*
D24*
X40225000Y-35725000D02*
X41400000Y-36900000D01*
X40000000Y-35725000D02*
X40225000Y-35725000D01*
D23*
X52594093Y-50905907D02*
X52594093Y-50990900D01*
X53900000Y-49600000D02*
X52594093Y-50905907D01*
X55102475Y-49939150D02*
X55102475Y-49900002D01*
X53164212Y-51877413D02*
X55102475Y-49939150D01*
D24*
X53178628Y-48788127D02*
X51700000Y-50266755D01*
X51700000Y-50266755D02*
X51700000Y-50300000D01*
D23*
X36054000Y-59750000D02*
X42975000Y-59750000D01*
X35025000Y-59750000D02*
X36054000Y-59750000D01*
X42975000Y-59750000D02*
X42975000Y-51525000D01*
X42975000Y-51525000D02*
X46500000Y-48000000D01*
G36*
X79234955Y-26138537D02*
G01*
X79191648Y-26341764D01*
X79281370Y-26508000D01*
X80118000Y-26508000D01*
X80118000Y-26488000D01*
X80372000Y-26488000D01*
X80372000Y-26508000D01*
X81208630Y-26508000D01*
X81298352Y-26341764D01*
X81255045Y-26138537D01*
X81250081Y-26127000D01*
X84699919Y-26127000D01*
X84694955Y-26138537D01*
X84651648Y-26341764D01*
X84741370Y-26508000D01*
X85578000Y-26508000D01*
X85578000Y-26488000D01*
X85832000Y-26488000D01*
X85832000Y-26508000D01*
X86668630Y-26508000D01*
X86758352Y-26341764D01*
X86715045Y-26138537D01*
X86710081Y-26127000D01*
X88088716Y-26127000D01*
X87973633Y-26299234D01*
X87710927Y-26933463D01*
X87577000Y-27606758D01*
X87577000Y-28293242D01*
X87710927Y-28966537D01*
X87973633Y-29600766D01*
X88355024Y-30171558D01*
X88840442Y-30656976D01*
X89411234Y-31038367D01*
X90045463Y-31301073D01*
X90718758Y-31435000D01*
X91405242Y-31435000D01*
X92078537Y-31301073D01*
X92712766Y-31038367D01*
X92873000Y-30931302D01*
X92873000Y-38873000D01*
X73000000Y-38873000D01*
X72975224Y-38875440D01*
X72951399Y-38882667D01*
X72929443Y-38894403D01*
X72910197Y-38910197D01*
X72894403Y-38929443D01*
X72882667Y-38951399D01*
X72875440Y-38975224D01*
X72873000Y-39000000D01*
X72873000Y-64000000D01*
X72875440Y-64024776D01*
X72882667Y-64048601D01*
X72894403Y-64070557D01*
X72910197Y-64089803D01*
X72929443Y-64105597D01*
X72951399Y-64117333D01*
X72975224Y-64124560D01*
X73000000Y-64127000D01*
X92873000Y-64127000D01*
X92873000Y-67068698D01*
X92712766Y-66961633D01*
X92078537Y-66698927D01*
X91405242Y-66565000D01*
X90718758Y-66565000D01*
X90045463Y-66698927D01*
X89411234Y-66961633D01*
X88840442Y-67343024D01*
X88355024Y-67828442D01*
X87973633Y-68399234D01*
X87710927Y-69033463D01*
X87577000Y-69706758D01*
X87577000Y-70393242D01*
X87710927Y-71066537D01*
X87973633Y-71700766D01*
X88088716Y-71873000D01*
X81412188Y-71873000D01*
X81528158Y-71849932D01*
X81798411Y-71737990D01*
X82041632Y-71575475D01*
X82248475Y-71368632D01*
X82410990Y-71125411D01*
X82505145Y-70898100D01*
X82530201Y-70964949D01*
X82657353Y-71170052D01*
X82822076Y-71346408D01*
X83018039Y-71487239D01*
X83237712Y-71587134D01*
X83318020Y-71611489D01*
X83508000Y-71550627D01*
X83508000Y-70549000D01*
X83762000Y-70549000D01*
X83762000Y-71550627D01*
X83951980Y-71611489D01*
X84032288Y-71587134D01*
X84251961Y-71487239D01*
X84447924Y-71346408D01*
X84612647Y-71170052D01*
X84739799Y-70964949D01*
X84824495Y-70738981D01*
X84764187Y-70549000D01*
X83762000Y-70549000D01*
X83508000Y-70549000D01*
X83488000Y-70549000D01*
X83488000Y-70295000D01*
X83508000Y-70295000D01*
X83508000Y-70275000D01*
X83762000Y-70275000D01*
X83762000Y-70295000D01*
X84764187Y-70295000D01*
X84824495Y-70105019D01*
X84739799Y-69879051D01*
X84612647Y-69673948D01*
X84447924Y-69497592D01*
X84251961Y-69356761D01*
X84110455Y-69292412D01*
X84338411Y-69197990D01*
X84581632Y-69035475D01*
X84788475Y-68828632D01*
X84950990Y-68585411D01*
X85062932Y-68315158D01*
X85120000Y-68028260D01*
X85120000Y-67735740D01*
X85062932Y-67448842D01*
X84950990Y-67178589D01*
X84788475Y-66935368D01*
X84581632Y-66728525D01*
X84338411Y-66566010D01*
X84068158Y-66454068D01*
X83781260Y-66397000D01*
X83488740Y-66397000D01*
X83201842Y-66454068D01*
X82931589Y-66566010D01*
X82688368Y-66728525D01*
X82481525Y-66935368D01*
X82365000Y-67109760D01*
X82248475Y-66935368D01*
X82041632Y-66728525D01*
X81798411Y-66566010D01*
X81528158Y-66454068D01*
X81241260Y-66397000D01*
X80948740Y-66397000D01*
X80661842Y-66454068D01*
X80391589Y-66566010D01*
X80148368Y-66728525D01*
X79941525Y-66935368D01*
X79825000Y-67109760D01*
X79708475Y-66935368D01*
X79501632Y-66728525D01*
X79258411Y-66566010D01*
X78988158Y-66454068D01*
X78701260Y-66397000D01*
X78408740Y-66397000D01*
X78121842Y-66454068D01*
X77851589Y-66566010D01*
X77608368Y-66728525D01*
X77401525Y-66935368D01*
X77285000Y-67109760D01*
X77168475Y-66935368D01*
X76961632Y-66728525D01*
X76718411Y-66566010D01*
X76448158Y-66454068D01*
X76161260Y-66397000D01*
X75868740Y-66397000D01*
X75581842Y-66454068D01*
X75311589Y-66566010D01*
X75068368Y-66728525D01*
X74861525Y-66935368D01*
X74745000Y-67109760D01*
X74628475Y-66935368D01*
X74421632Y-66728525D01*
X74178411Y-66566010D01*
X73908158Y-66454068D01*
X73621260Y-66397000D01*
X73328740Y-66397000D01*
X73041842Y-66454068D01*
X72771589Y-66566010D01*
X72528368Y-66728525D01*
X72321525Y-66935368D01*
X72205000Y-67109760D01*
X72088475Y-66935368D01*
X71881632Y-66728525D01*
X71638411Y-66566010D01*
X71368158Y-66454068D01*
X71081260Y-66397000D01*
X70788740Y-66397000D01*
X70501842Y-66454068D01*
X70231589Y-66566010D01*
X69988368Y-66728525D01*
X69781525Y-66935368D01*
X69665000Y-67109760D01*
X69548475Y-66935368D01*
X69341632Y-66728525D01*
X69098411Y-66566010D01*
X68828158Y-66454068D01*
X68541260Y-66397000D01*
X68248740Y-66397000D01*
X67961842Y-66454068D01*
X67691589Y-66566010D01*
X67448368Y-66728525D01*
X67241525Y-66935368D01*
X67125000Y-67109760D01*
X67008475Y-66935368D01*
X66801632Y-66728525D01*
X66558411Y-66566010D01*
X66288158Y-66454068D01*
X66001260Y-66397000D01*
X65708740Y-66397000D01*
X65421842Y-66454068D01*
X65151589Y-66566010D01*
X64908368Y-66728525D01*
X64701525Y-66935368D01*
X64585000Y-67109760D01*
X64468475Y-66935368D01*
X64261632Y-66728525D01*
X64018411Y-66566010D01*
X63748158Y-66454068D01*
X63461260Y-66397000D01*
X63168740Y-66397000D01*
X62881842Y-66454068D01*
X62611589Y-66566010D01*
X62368368Y-66728525D01*
X62161525Y-66935368D01*
X62045000Y-67109760D01*
X61928475Y-66935368D01*
X61721632Y-66728525D01*
X61478411Y-66566010D01*
X61208158Y-66454068D01*
X60921260Y-66397000D01*
X60628740Y-66397000D01*
X60341842Y-66454068D01*
X60071589Y-66566010D01*
X59828368Y-66728525D01*
X59621525Y-66935368D01*
X59505000Y-67109760D01*
X59388475Y-66935368D01*
X59181632Y-66728525D01*
X58938411Y-66566010D01*
X58668158Y-66454068D01*
X58381260Y-66397000D01*
X58088740Y-66397000D01*
X57801842Y-66454068D01*
X57531589Y-66566010D01*
X57288368Y-66728525D01*
X57081525Y-66935368D01*
X56965000Y-67109760D01*
X56848475Y-66935368D01*
X56641632Y-66728525D01*
X56398411Y-66566010D01*
X56128158Y-66454068D01*
X55841260Y-66397000D01*
X55548740Y-66397000D01*
X55261842Y-66454068D01*
X54991589Y-66566010D01*
X54748368Y-66728525D01*
X54541525Y-66935368D01*
X54425000Y-67109760D01*
X54308475Y-66935368D01*
X54101632Y-66728525D01*
X53858411Y-66566010D01*
X53588158Y-66454068D01*
X53301260Y-66397000D01*
X53008740Y-66397000D01*
X52721842Y-66454068D01*
X52451589Y-66566010D01*
X52208368Y-66728525D01*
X52001525Y-66935368D01*
X51885000Y-67109760D01*
X51768475Y-66935368D01*
X51561632Y-66728525D01*
X51318411Y-66566010D01*
X51048158Y-66454068D01*
X50761260Y-66397000D01*
X50468740Y-66397000D01*
X50181842Y-66454068D01*
X49911589Y-66566010D01*
X49668368Y-66728525D01*
X49461525Y-66935368D01*
X49345000Y-67109760D01*
X49228475Y-66935368D01*
X49021632Y-66728525D01*
X48778411Y-66566010D01*
X48508158Y-66454068D01*
X48221260Y-66397000D01*
X47928740Y-66397000D01*
X47641842Y-66454068D01*
X47371589Y-66566010D01*
X47128368Y-66728525D01*
X46921525Y-66935368D01*
X46805000Y-67109760D01*
X46688475Y-66935368D01*
X46481632Y-66728525D01*
X46238411Y-66566010D01*
X45968158Y-66454068D01*
X45681260Y-66397000D01*
X45388740Y-66397000D01*
X45101842Y-66454068D01*
X44831589Y-66566010D01*
X44588368Y-66728525D01*
X44381525Y-66935368D01*
X44265000Y-67109760D01*
X44148475Y-66935368D01*
X43941632Y-66728525D01*
X43698411Y-66566010D01*
X43428158Y-66454068D01*
X43141260Y-66397000D01*
X42848740Y-66397000D01*
X42561842Y-66454068D01*
X42291589Y-66566010D01*
X42048368Y-66728525D01*
X41841525Y-66935368D01*
X41725000Y-67109760D01*
X41608475Y-66935368D01*
X41401632Y-66728525D01*
X41158411Y-66566010D01*
X40888158Y-66454068D01*
X40601260Y-66397000D01*
X40308740Y-66397000D01*
X40021842Y-66454068D01*
X39751589Y-66566010D01*
X39508368Y-66728525D01*
X39301525Y-66935368D01*
X39185000Y-67109760D01*
X39068475Y-66935368D01*
X38861632Y-66728525D01*
X38618411Y-66566010D01*
X38348158Y-66454068D01*
X38061260Y-66397000D01*
X37768740Y-66397000D01*
X37481842Y-66454068D01*
X37211589Y-66566010D01*
X36968368Y-66728525D01*
X36761525Y-66935368D01*
X36645000Y-67109760D01*
X36528475Y-66935368D01*
X36321632Y-66728525D01*
X36078411Y-66566010D01*
X35808158Y-66454068D01*
X35521260Y-66397000D01*
X35228740Y-66397000D01*
X34941842Y-66454068D01*
X34671589Y-66566010D01*
X34428368Y-66728525D01*
X34221525Y-66935368D01*
X34059010Y-67178589D01*
X33947068Y-67448842D01*
X33890000Y-67735740D01*
X33890000Y-68028260D01*
X33947068Y-68315158D01*
X34059010Y-68585411D01*
X34221525Y-68828632D01*
X34353380Y-68960487D01*
X34280820Y-68982498D01*
X34170506Y-69041463D01*
X34073815Y-69120815D01*
X33994463Y-69217506D01*
X33935498Y-69327820D01*
X33899188Y-69447518D01*
X33886928Y-69572000D01*
X33886928Y-71272000D01*
X33899188Y-71396482D01*
X33935498Y-71516180D01*
X33994463Y-71626494D01*
X34073815Y-71723185D01*
X34170506Y-71802537D01*
X34280820Y-71861502D01*
X34318724Y-71873000D01*
X30923284Y-71873000D01*
X31038367Y-71700766D01*
X31301073Y-71066537D01*
X31435000Y-70393242D01*
X31435000Y-69706758D01*
X31301073Y-69033463D01*
X31038367Y-68399234D01*
X30656976Y-67828442D01*
X30171558Y-67343024D01*
X29600766Y-66961633D01*
X28966537Y-66698927D01*
X28293242Y-66565000D01*
X27606758Y-66565000D01*
X26933463Y-66698927D01*
X26299234Y-66961633D01*
X26127000Y-67076716D01*
X26127000Y-63556981D01*
X58890505Y-63556981D01*
X58975201Y-63782949D01*
X59102353Y-63988052D01*
X59267076Y-64164408D01*
X59463039Y-64305239D01*
X59682712Y-64405134D01*
X59763020Y-64429489D01*
X59953000Y-64368627D01*
X59953000Y-63367000D01*
X58950813Y-63367000D01*
X58890505Y-63556981D01*
X26127000Y-63556981D01*
X26127000Y-62923019D01*
X58890505Y-62923019D01*
X58950813Y-63113000D01*
X59953000Y-63113000D01*
X59953000Y-62111373D01*
X59763020Y-62050511D01*
X59682712Y-62074866D01*
X59463039Y-62174761D01*
X59267076Y-62315592D01*
X59102353Y-62491948D01*
X58975201Y-62697051D01*
X58890505Y-62923019D01*
X26127000Y-62923019D01*
X26127000Y-59100000D01*
X33611928Y-59100000D01*
X33611928Y-60400000D01*
X33624188Y-60524482D01*
X33660498Y-60644180D01*
X33719463Y-60754494D01*
X33798815Y-60851185D01*
X33895506Y-60930537D01*
X34005820Y-60989502D01*
X34125518Y-61025812D01*
X34250000Y-61038072D01*
X35800000Y-61038072D01*
X35924482Y-61025812D01*
X36044180Y-60989502D01*
X36154494Y-60930537D01*
X36251185Y-60851185D01*
X36330537Y-60754494D01*
X36389502Y-60644180D01*
X36425812Y-60524482D01*
X36427041Y-60512000D01*
X41572959Y-60512000D01*
X41574188Y-60524482D01*
X41610498Y-60644180D01*
X41669463Y-60754494D01*
X41748815Y-60851185D01*
X41845506Y-60930537D01*
X41955820Y-60989502D01*
X42075518Y-61025812D01*
X42200000Y-61038072D01*
X43750000Y-61038072D01*
X43874482Y-61025812D01*
X43994180Y-60989502D01*
X44104494Y-60930537D01*
X44201185Y-60851185D01*
X44280537Y-60754494D01*
X44339502Y-60644180D01*
X44375812Y-60524482D01*
X44388072Y-60400000D01*
X44388072Y-59100000D01*
X49061928Y-59100000D01*
X49061928Y-61700000D01*
X49074188Y-61824482D01*
X49110498Y-61944180D01*
X49169463Y-62054494D01*
X49248815Y-62151185D01*
X49345506Y-62230537D01*
X49455820Y-62289502D01*
X49575518Y-62325812D01*
X49700000Y-62338072D01*
X53300000Y-62338072D01*
X53424482Y-62325812D01*
X53544180Y-62289502D01*
X53654494Y-62230537D01*
X53751185Y-62151185D01*
X53830537Y-62054494D01*
X53889502Y-61944180D01*
X53925812Y-61824482D01*
X53938072Y-61700000D01*
X53938072Y-61016981D01*
X58890505Y-61016981D01*
X58975201Y-61242949D01*
X59102353Y-61448052D01*
X59267076Y-61624408D01*
X59463039Y-61765239D01*
X59682712Y-61865134D01*
X59763020Y-61889489D01*
X59953000Y-61828627D01*
X59953000Y-60827000D01*
X58950813Y-60827000D01*
X58890505Y-61016981D01*
X53938072Y-61016981D01*
X53938072Y-60383019D01*
X58890505Y-60383019D01*
X58950813Y-60573000D01*
X59953000Y-60573000D01*
X59953000Y-59571373D01*
X60207000Y-59571373D01*
X60207000Y-60573000D01*
X60227000Y-60573000D01*
X60227000Y-60827000D01*
X60207000Y-60827000D01*
X60207000Y-61828627D01*
X60396980Y-61889489D01*
X60477288Y-61865134D01*
X60696961Y-61765239D01*
X60892924Y-61624408D01*
X61057647Y-61448052D01*
X61184799Y-61242949D01*
X61209855Y-61176100D01*
X61304010Y-61403411D01*
X61466525Y-61646632D01*
X61673368Y-61853475D01*
X61847760Y-61970000D01*
X61673368Y-62086525D01*
X61466525Y-62293368D01*
X61304010Y-62536589D01*
X61209855Y-62763900D01*
X61184799Y-62697051D01*
X61057647Y-62491948D01*
X60892924Y-62315592D01*
X60696961Y-62174761D01*
X60477288Y-62074866D01*
X60396980Y-62050511D01*
X60207000Y-62111373D01*
X60207000Y-63113000D01*
X60227000Y-63113000D01*
X60227000Y-63367000D01*
X60207000Y-63367000D01*
X60207000Y-64368627D01*
X60396980Y-64429489D01*
X60477288Y-64405134D01*
X60696961Y-64305239D01*
X60892924Y-64164408D01*
X61057647Y-63988052D01*
X61184799Y-63782949D01*
X61209855Y-63716100D01*
X61304010Y-63943411D01*
X61466525Y-64186632D01*
X61673368Y-64393475D01*
X61916589Y-64555990D01*
X62186842Y-64667932D01*
X62473740Y-64725000D01*
X62766260Y-64725000D01*
X63053158Y-64667932D01*
X63323411Y-64555990D01*
X63566632Y-64393475D01*
X63773475Y-64186632D01*
X63890000Y-64012240D01*
X64006525Y-64186632D01*
X64213368Y-64393475D01*
X64456589Y-64555990D01*
X64726842Y-64667932D01*
X65013740Y-64725000D01*
X65306260Y-64725000D01*
X65593158Y-64667932D01*
X65863411Y-64555990D01*
X66106632Y-64393475D01*
X66313475Y-64186632D01*
X66430000Y-64012240D01*
X66546525Y-64186632D01*
X66753368Y-64393475D01*
X66996589Y-64555990D01*
X67266842Y-64667932D01*
X67553740Y-64725000D01*
X67846260Y-64725000D01*
X68133158Y-64667932D01*
X68403411Y-64555990D01*
X68646632Y-64393475D01*
X68853475Y-64186632D01*
X68970000Y-64012240D01*
X69086525Y-64186632D01*
X69293368Y-64393475D01*
X69536589Y-64555990D01*
X69806842Y-64667932D01*
X70093740Y-64725000D01*
X70386260Y-64725000D01*
X70673158Y-64667932D01*
X70943411Y-64555990D01*
X71186632Y-64393475D01*
X71393475Y-64186632D01*
X71555990Y-63943411D01*
X71667932Y-63673158D01*
X71725000Y-63386260D01*
X71725000Y-63093740D01*
X71667932Y-62806842D01*
X71555990Y-62536589D01*
X71393475Y-62293368D01*
X71261620Y-62161513D01*
X71334180Y-62139502D01*
X71444494Y-62080537D01*
X71541185Y-62001185D01*
X71620537Y-61904494D01*
X71679502Y-61794180D01*
X71715812Y-61674482D01*
X71728072Y-61550000D01*
X71728072Y-59850000D01*
X71715812Y-59725518D01*
X71679502Y-59605820D01*
X71620537Y-59495506D01*
X71541185Y-59398815D01*
X71444494Y-59319463D01*
X71334180Y-59260498D01*
X71214482Y-59224188D01*
X71090000Y-59211928D01*
X69390000Y-59211928D01*
X69265518Y-59224188D01*
X69145820Y-59260498D01*
X69035506Y-59319463D01*
X68938815Y-59398815D01*
X68859463Y-59495506D01*
X68800498Y-59605820D01*
X68778487Y-59678380D01*
X68646632Y-59546525D01*
X68403411Y-59384010D01*
X68133158Y-59272068D01*
X67846260Y-59215000D01*
X67553740Y-59215000D01*
X67266842Y-59272068D01*
X66996589Y-59384010D01*
X66753368Y-59546525D01*
X66546525Y-59753368D01*
X66430000Y-59927760D01*
X66313475Y-59753368D01*
X66106632Y-59546525D01*
X65863411Y-59384010D01*
X65593158Y-59272068D01*
X65306260Y-59215000D01*
X65013740Y-59215000D01*
X64726842Y-59272068D01*
X64456589Y-59384010D01*
X64213368Y-59546525D01*
X64006525Y-59753368D01*
X63890000Y-59927760D01*
X63773475Y-59753368D01*
X63566632Y-59546525D01*
X63323411Y-59384010D01*
X63053158Y-59272068D01*
X62766260Y-59215000D01*
X62473740Y-59215000D01*
X62186842Y-59272068D01*
X61916589Y-59384010D01*
X61673368Y-59546525D01*
X61466525Y-59753368D01*
X61304010Y-59996589D01*
X61209855Y-60223900D01*
X61184799Y-60157051D01*
X61057647Y-59951948D01*
X60892924Y-59775592D01*
X60696961Y-59634761D01*
X60477288Y-59534866D01*
X60396980Y-59510511D01*
X60207000Y-59571373D01*
X59953000Y-59571373D01*
X59763020Y-59510511D01*
X59682712Y-59534866D01*
X59463039Y-59634761D01*
X59267076Y-59775592D01*
X59102353Y-59951948D01*
X58975201Y-60157051D01*
X58890505Y-60383019D01*
X53938072Y-60383019D01*
X53938072Y-59100000D01*
X53925812Y-58975518D01*
X53889502Y-58855820D01*
X53830537Y-58745506D01*
X53751185Y-58648815D01*
X53654494Y-58569463D01*
X53544180Y-58510498D01*
X53424482Y-58474188D01*
X53300000Y-58461928D01*
X52961702Y-58461928D01*
X53223377Y-58200253D01*
X53398061Y-58235000D01*
X53601939Y-58235000D01*
X53801898Y-58195226D01*
X53990256Y-58117205D01*
X54159774Y-58003937D01*
X54303937Y-57859774D01*
X54417205Y-57690256D01*
X54495226Y-57501898D01*
X54535000Y-57301939D01*
X54535000Y-57098061D01*
X54495226Y-56898102D01*
X54417205Y-56709744D01*
X54303937Y-56540226D01*
X54159774Y-56396063D01*
X53990256Y-56282795D01*
X53801898Y-56204774D01*
X53601939Y-56165000D01*
X53398061Y-56165000D01*
X53198102Y-56204774D01*
X53009744Y-56282795D01*
X52840226Y-56396063D01*
X52696063Y-56540226D01*
X52632044Y-56636037D01*
X52604578Y-56658578D01*
X52580716Y-56687654D01*
X50987649Y-58280721D01*
X50958579Y-58304578D01*
X50934722Y-58333648D01*
X50934721Y-58333649D01*
X50863355Y-58420608D01*
X50841269Y-58461928D01*
X49700000Y-58461928D01*
X49575518Y-58474188D01*
X49455820Y-58510498D01*
X49345506Y-58569463D01*
X49248815Y-58648815D01*
X49169463Y-58745506D01*
X49110498Y-58855820D01*
X49074188Y-58975518D01*
X49061928Y-59100000D01*
X44388072Y-59100000D01*
X44375812Y-58975518D01*
X44339502Y-58855820D01*
X44280537Y-58745506D01*
X44201185Y-58648815D01*
X44104494Y-58569463D01*
X43994180Y-58510498D01*
X43874482Y-58474188D01*
X43750000Y-58461928D01*
X43737000Y-58461928D01*
X43737000Y-55798061D01*
X56365000Y-55798061D01*
X56365000Y-56001939D01*
X56404774Y-56201898D01*
X56482795Y-56390256D01*
X56596063Y-56559774D01*
X56740226Y-56703937D01*
X56909744Y-56817205D01*
X57098102Y-56895226D01*
X57298061Y-56935000D01*
X57501939Y-56935000D01*
X57701898Y-56895226D01*
X57890256Y-56817205D01*
X58059774Y-56703937D01*
X58203937Y-56559774D01*
X58317205Y-56390256D01*
X58395226Y-56201898D01*
X58435000Y-56001939D01*
X58435000Y-55942630D01*
X58616292Y-55761339D01*
X58698102Y-55795226D01*
X58898061Y-55835000D01*
X59101939Y-55835000D01*
X59301898Y-55795226D01*
X59490256Y-55717205D01*
X59659774Y-55603937D01*
X59803937Y-55459774D01*
X59917205Y-55290256D01*
X59995226Y-55101898D01*
X60035000Y-54901939D01*
X60035000Y-54698061D01*
X59995226Y-54498102D01*
X59980272Y-54462000D01*
X65268191Y-54462000D01*
X65321236Y-54515045D01*
X65490754Y-54628313D01*
X65679112Y-54706334D01*
X65879071Y-54746108D01*
X66082949Y-54746108D01*
X66282908Y-54706334D01*
X66471266Y-54628313D01*
X66640784Y-54515045D01*
X66784947Y-54370882D01*
X66898215Y-54201364D01*
X66976236Y-54013006D01*
X67016010Y-53813047D01*
X67016010Y-53609169D01*
X66976236Y-53409210D01*
X66898215Y-53220852D01*
X66784947Y-53051334D01*
X66716234Y-52982621D01*
X66762127Y-52913938D01*
X66840148Y-52725580D01*
X66879922Y-52525621D01*
X66879922Y-52321743D01*
X66840148Y-52121784D01*
X66762127Y-51933426D01*
X66648859Y-51763908D01*
X66504696Y-51619745D01*
X66335178Y-51506477D01*
X66146820Y-51428456D01*
X65946861Y-51388682D01*
X65742983Y-51388682D01*
X65543024Y-51428456D01*
X65354666Y-51506477D01*
X65185148Y-51619745D01*
X65040985Y-51763908D01*
X64991478Y-51838000D01*
X59301711Y-51838000D01*
X59259774Y-51796063D01*
X59090256Y-51682795D01*
X58901898Y-51604774D01*
X58701939Y-51565000D01*
X58498061Y-51565000D01*
X58298102Y-51604774D01*
X58109744Y-51682795D01*
X57940226Y-51796063D01*
X57796063Y-51940226D01*
X57682795Y-52109744D01*
X57604774Y-52298102D01*
X57565000Y-52498061D01*
X57565000Y-52701939D01*
X57604774Y-52901898D01*
X57682795Y-53090256D01*
X57722715Y-53150000D01*
X57682795Y-53209744D01*
X57604774Y-53398102D01*
X57565000Y-53598061D01*
X57565000Y-53801939D01*
X57604774Y-54001898D01*
X57682795Y-54190256D01*
X57796063Y-54359774D01*
X57829329Y-54393040D01*
X57357370Y-54865000D01*
X57298061Y-54865000D01*
X57098102Y-54904774D01*
X56909744Y-54982795D01*
X56740226Y-55096063D01*
X56596063Y-55240226D01*
X56482795Y-55409744D01*
X56404774Y-55598102D01*
X56365000Y-55798061D01*
X43737000Y-55798061D01*
X43737000Y-51840630D01*
X45379569Y-50198061D01*
X50665000Y-50198061D01*
X50665000Y-50401939D01*
X50704774Y-50601898D01*
X50782795Y-50790256D01*
X50896063Y-50959774D01*
X51040226Y-51103937D01*
X51209744Y-51217205D01*
X51398102Y-51295226D01*
X51598061Y-51335000D01*
X51616348Y-51335000D01*
X51676888Y-51481156D01*
X51790156Y-51650674D01*
X51934319Y-51794837D01*
X52103837Y-51908105D01*
X52129212Y-51918616D01*
X52129212Y-51979352D01*
X52168986Y-52179311D01*
X52247007Y-52367669D01*
X52360275Y-52537187D01*
X52504438Y-52681350D01*
X52673956Y-52794618D01*
X52862314Y-52872639D01*
X53062273Y-52912413D01*
X53266151Y-52912413D01*
X53466110Y-52872639D01*
X53654468Y-52794618D01*
X53823986Y-52681350D01*
X53968149Y-52537187D01*
X54081417Y-52367669D01*
X54159438Y-52179311D01*
X54199212Y-51979352D01*
X54199212Y-51920043D01*
X55184254Y-50935002D01*
X55204414Y-50935002D01*
X55404373Y-50895228D01*
X55592731Y-50817207D01*
X55762249Y-50703939D01*
X55906412Y-50559776D01*
X56019680Y-50390258D01*
X56097701Y-50201900D01*
X56137475Y-50001941D01*
X56137475Y-49798063D01*
X56097701Y-49598104D01*
X56019680Y-49409746D01*
X55906412Y-49240228D01*
X55762249Y-49096065D01*
X55592731Y-48982797D01*
X55404373Y-48904776D01*
X55204414Y-48865002D01*
X55000536Y-48865002D01*
X54800577Y-48904776D01*
X54706334Y-48943813D01*
X54703937Y-48940226D01*
X54559774Y-48796063D01*
X54390256Y-48682795D01*
X54201898Y-48604774D01*
X54197250Y-48603849D01*
X54173854Y-48486229D01*
X54095833Y-48297871D01*
X53982565Y-48128353D01*
X53838402Y-47984190D01*
X53668884Y-47870922D01*
X53480526Y-47792901D01*
X53280567Y-47753127D01*
X53076689Y-47753127D01*
X52876730Y-47792901D01*
X52688372Y-47870922D01*
X52518854Y-47984190D01*
X52374691Y-48128353D01*
X52261423Y-48297871D01*
X52183402Y-48486229D01*
X52173498Y-48536022D01*
X51406395Y-49303124D01*
X51398102Y-49304774D01*
X51209744Y-49382795D01*
X51040226Y-49496063D01*
X50896063Y-49640226D01*
X50782795Y-49809744D01*
X50704774Y-49998102D01*
X50665000Y-50198061D01*
X45379569Y-50198061D01*
X46542631Y-49035000D01*
X46601939Y-49035000D01*
X46801898Y-48995226D01*
X46990256Y-48917205D01*
X47159774Y-48803937D01*
X47303937Y-48659774D01*
X47417205Y-48490256D01*
X47495226Y-48301898D01*
X47535000Y-48101939D01*
X47535000Y-47898061D01*
X47495226Y-47698102D01*
X47417205Y-47509744D01*
X47303937Y-47340226D01*
X47159774Y-47196063D01*
X46990256Y-47082795D01*
X46801898Y-47004774D01*
X46601939Y-46965000D01*
X46398061Y-46965000D01*
X46198102Y-47004774D01*
X46009744Y-47082795D01*
X45840226Y-47196063D01*
X45696063Y-47340226D01*
X45582795Y-47509744D01*
X45504774Y-47698102D01*
X45465000Y-47898061D01*
X45465000Y-47957369D01*
X42462649Y-50959721D01*
X42433579Y-50983578D01*
X42409722Y-51012648D01*
X42409721Y-51012649D01*
X42338355Y-51099608D01*
X42267599Y-51231985D01*
X42224027Y-51375622D01*
X42209314Y-51525000D01*
X42213001Y-51562433D01*
X42213000Y-58461928D01*
X42200000Y-58461928D01*
X42075518Y-58474188D01*
X41955820Y-58510498D01*
X41845506Y-58569463D01*
X41748815Y-58648815D01*
X41669463Y-58745506D01*
X41610498Y-58855820D01*
X41574188Y-58975518D01*
X41572959Y-58988000D01*
X36427041Y-58988000D01*
X36425812Y-58975518D01*
X36389502Y-58855820D01*
X36330537Y-58745506D01*
X36251185Y-58648815D01*
X36154494Y-58569463D01*
X36044180Y-58510498D01*
X35924482Y-58474188D01*
X35800000Y-58461928D01*
X34250000Y-58461928D01*
X34125518Y-58474188D01*
X34005820Y-58510498D01*
X33895506Y-58569463D01*
X33798815Y-58648815D01*
X33719463Y-58745506D01*
X33660498Y-58855820D01*
X33624188Y-58975518D01*
X33611928Y-59100000D01*
X26127000Y-59100000D01*
X26127000Y-54510360D01*
X31019246Y-54510360D01*
X31066737Y-54651110D01*
X31224921Y-54714966D01*
X31392524Y-54746735D01*
X31563104Y-54745195D01*
X31730106Y-54710407D01*
X31873263Y-54651110D01*
X31920754Y-54510360D01*
X31470000Y-54059605D01*
X31019246Y-54510360D01*
X26127000Y-54510360D01*
X26127000Y-53802524D01*
X30603265Y-53802524D01*
X30604805Y-53973104D01*
X30639593Y-54140106D01*
X30698890Y-54283263D01*
X30839640Y-54330754D01*
X31290395Y-53880000D01*
X31649605Y-53880000D01*
X32100360Y-54330754D01*
X32241110Y-54283263D01*
X32304966Y-54125079D01*
X32336735Y-53957476D01*
X32335195Y-53786896D01*
X32300407Y-53619894D01*
X32241110Y-53476737D01*
X32100360Y-53429246D01*
X31649605Y-53880000D01*
X31290395Y-53880000D01*
X30839640Y-53429246D01*
X30698890Y-53476737D01*
X30635034Y-53634921D01*
X30603265Y-53802524D01*
X26127000Y-53802524D01*
X26127000Y-53249640D01*
X31019246Y-53249640D01*
X31470000Y-53700395D01*
X31920754Y-53249640D01*
X31873263Y-53108890D01*
X31715079Y-53045034D01*
X31547476Y-53013265D01*
X31376896Y-53014805D01*
X31209894Y-53049593D01*
X31066737Y-53108890D01*
X31019246Y-53249640D01*
X26127000Y-53249640D01*
X26127000Y-45750360D01*
X31019246Y-45750360D01*
X31066737Y-45891110D01*
X31224921Y-45954966D01*
X31392524Y-45986735D01*
X31563104Y-45985195D01*
X31730106Y-45950407D01*
X31873263Y-45891110D01*
X31920754Y-45750360D01*
X31470000Y-45299605D01*
X31019246Y-45750360D01*
X26127000Y-45750360D01*
X26127000Y-45042524D01*
X30603265Y-45042524D01*
X30604805Y-45213104D01*
X30639593Y-45380106D01*
X30698890Y-45523263D01*
X30839640Y-45570754D01*
X31290395Y-45120000D01*
X31649605Y-45120000D01*
X32100360Y-45570754D01*
X32241110Y-45523263D01*
X32304966Y-45365079D01*
X32336735Y-45197476D01*
X32335195Y-45026896D01*
X32300407Y-44859894D01*
X32241110Y-44716737D01*
X32100360Y-44669246D01*
X31649605Y-45120000D01*
X31290395Y-45120000D01*
X30839640Y-44669246D01*
X30698890Y-44716737D01*
X30635034Y-44874921D01*
X30603265Y-45042524D01*
X26127000Y-45042524D01*
X26127000Y-44489640D01*
X31019246Y-44489640D01*
X31470000Y-44940395D01*
X31920754Y-44489640D01*
X31873263Y-44348890D01*
X31715079Y-44285034D01*
X31547476Y-44253265D01*
X31376896Y-44254805D01*
X31209894Y-44289593D01*
X31066737Y-44348890D01*
X31019246Y-44489640D01*
X26127000Y-44489640D01*
X26127000Y-43398061D01*
X54065000Y-43398061D01*
X54065000Y-43601939D01*
X54104774Y-43801898D01*
X54182795Y-43990256D01*
X54296063Y-44159774D01*
X54440226Y-44303937D01*
X54609744Y-44417205D01*
X54798102Y-44495226D01*
X54947266Y-44524896D01*
X56265000Y-45842631D01*
X56265000Y-45901939D01*
X56304774Y-46101898D01*
X56382795Y-46290256D01*
X56496063Y-46459774D01*
X56640226Y-46603937D01*
X56809744Y-46717205D01*
X56998102Y-46795226D01*
X57198061Y-46835000D01*
X57401939Y-46835000D01*
X57601898Y-46795226D01*
X57790256Y-46717205D01*
X57959774Y-46603937D01*
X58103937Y-46459774D01*
X58217205Y-46290256D01*
X58295226Y-46101898D01*
X58335000Y-45901939D01*
X58335000Y-45698061D01*
X58295226Y-45498102D01*
X58217205Y-45309744D01*
X58103937Y-45140226D01*
X57959774Y-44996063D01*
X57790256Y-44882795D01*
X57601898Y-44804774D01*
X57401939Y-44765000D01*
X57342631Y-44765000D01*
X56135000Y-43557370D01*
X56135000Y-43398061D01*
X56095226Y-43198102D01*
X56017205Y-43009744D01*
X55903937Y-42840226D01*
X55759774Y-42696063D01*
X55590256Y-42582795D01*
X55401898Y-42504774D01*
X55201939Y-42465000D01*
X54998061Y-42465000D01*
X54798102Y-42504774D01*
X54609744Y-42582795D01*
X54440226Y-42696063D01*
X54296063Y-42840226D01*
X54182795Y-43009744D01*
X54104774Y-43198102D01*
X54065000Y-43398061D01*
X26127000Y-43398061D01*
X26127000Y-40153740D01*
X30235000Y-40153740D01*
X30235000Y-40446260D01*
X30292068Y-40733158D01*
X30404010Y-41003411D01*
X30566525Y-41246632D01*
X30773368Y-41453475D01*
X31016589Y-41615990D01*
X31286842Y-41727932D01*
X31573740Y-41785000D01*
X31866260Y-41785000D01*
X32153158Y-41727932D01*
X32423411Y-41615990D01*
X32666632Y-41453475D01*
X32873475Y-41246632D01*
X32990000Y-41072240D01*
X33106525Y-41246632D01*
X33313368Y-41453475D01*
X33556589Y-41615990D01*
X33826842Y-41727932D01*
X34113740Y-41785000D01*
X34406260Y-41785000D01*
X34693158Y-41727932D01*
X34963411Y-41615990D01*
X35206632Y-41453475D01*
X35338487Y-41321620D01*
X35360498Y-41394180D01*
X35419463Y-41504494D01*
X35498815Y-41601185D01*
X35595506Y-41680537D01*
X35705820Y-41739502D01*
X35825518Y-41775812D01*
X35950000Y-41788072D01*
X37650000Y-41788072D01*
X37774482Y-41775812D01*
X37894180Y-41739502D01*
X38004494Y-41680537D01*
X38101185Y-41601185D01*
X38180537Y-41504494D01*
X38239502Y-41394180D01*
X38275812Y-41274482D01*
X38288072Y-41150000D01*
X38288072Y-39450000D01*
X38275812Y-39325518D01*
X38239502Y-39205820D01*
X38180537Y-39095506D01*
X38101185Y-38998815D01*
X38004494Y-38919463D01*
X37894180Y-38860498D01*
X37774482Y-38824188D01*
X37650000Y-38811928D01*
X35950000Y-38811928D01*
X35825518Y-38824188D01*
X35705820Y-38860498D01*
X35595506Y-38919463D01*
X35498815Y-38998815D01*
X35419463Y-39095506D01*
X35360498Y-39205820D01*
X35338487Y-39278380D01*
X35206632Y-39146525D01*
X34963411Y-38984010D01*
X34693158Y-38872068D01*
X34406260Y-38815000D01*
X34113740Y-38815000D01*
X33826842Y-38872068D01*
X33556589Y-38984010D01*
X33313368Y-39146525D01*
X33106525Y-39353368D01*
X32990000Y-39527760D01*
X32873475Y-39353368D01*
X32666632Y-39146525D01*
X32423411Y-38984010D01*
X32153158Y-38872068D01*
X31866260Y-38815000D01*
X31573740Y-38815000D01*
X31286842Y-38872068D01*
X31016589Y-38984010D01*
X30773368Y-39146525D01*
X30566525Y-39353368D01*
X30404010Y-39596589D01*
X30292068Y-39866842D01*
X30235000Y-40153740D01*
X26127000Y-40153740D01*
X26127000Y-30923284D01*
X26299234Y-31038367D01*
X26933463Y-31301073D01*
X27606758Y-31435000D01*
X28293242Y-31435000D01*
X28966537Y-31301073D01*
X29600766Y-31038367D01*
X30171558Y-30656976D01*
X30656976Y-30171558D01*
X31038367Y-29600766D01*
X31162948Y-29300000D01*
X31636807Y-29300000D01*
X31640001Y-29332429D01*
X31640000Y-36467581D01*
X31636807Y-36500000D01*
X31649550Y-36629383D01*
X31687290Y-36753793D01*
X31748575Y-36868450D01*
X31805713Y-36938072D01*
X31831052Y-36968948D01*
X31931550Y-37051425D01*
X32046207Y-37112710D01*
X32123000Y-37136005D01*
X32123000Y-37750000D01*
X32125440Y-37774776D01*
X32132667Y-37798601D01*
X32144403Y-37820557D01*
X32160197Y-37839803D01*
X32179443Y-37855597D01*
X32201399Y-37867333D01*
X32225224Y-37874560D01*
X32250000Y-37877000D01*
X32863995Y-37877000D01*
X32887290Y-37953793D01*
X32948575Y-38068450D01*
X33031052Y-38168948D01*
X33131550Y-38251425D01*
X33246207Y-38312710D01*
X33370617Y-38350450D01*
X33500000Y-38363193D01*
X33532419Y-38360000D01*
X37367581Y-38360000D01*
X37400000Y-38363193D01*
X37432419Y-38360000D01*
X37529383Y-38350450D01*
X37653793Y-38312710D01*
X37768450Y-38251425D01*
X37868948Y-38168948D01*
X37951425Y-38068450D01*
X38012710Y-37953793D01*
X38036005Y-37877000D01*
X38750000Y-37877000D01*
X38774776Y-37874560D01*
X38798601Y-37867333D01*
X38820557Y-37855597D01*
X38839803Y-37839803D01*
X38855597Y-37820557D01*
X38867333Y-37798601D01*
X38874560Y-37774776D01*
X38877000Y-37750000D01*
X38877000Y-37662000D01*
X39362577Y-37662000D01*
X39400000Y-37665686D01*
X39437423Y-37662000D01*
X39437426Y-37662000D01*
X39549378Y-37650974D01*
X39693015Y-37607402D01*
X39825392Y-37536645D01*
X39941422Y-37441422D01*
X39965283Y-37412347D01*
X40310198Y-37067433D01*
X40394870Y-37152105D01*
X40404774Y-37201898D01*
X40482795Y-37390256D01*
X40596063Y-37559774D01*
X40740226Y-37703937D01*
X40909744Y-37817205D01*
X41098102Y-37895226D01*
X41298061Y-37935000D01*
X41501939Y-37935000D01*
X41701898Y-37895226D01*
X41890256Y-37817205D01*
X42059774Y-37703937D01*
X42203937Y-37559774D01*
X42317205Y-37390256D01*
X42395226Y-37201898D01*
X42435000Y-37001939D01*
X42435000Y-36798061D01*
X42395226Y-36598102D01*
X42317205Y-36409744D01*
X42203937Y-36240226D01*
X42059774Y-36096063D01*
X41890256Y-35982795D01*
X41701898Y-35904774D01*
X41652105Y-35894870D01*
X41338072Y-35580837D01*
X41338072Y-35399999D01*
X41321008Y-35226745D01*
X41270472Y-35060149D01*
X41188405Y-34906613D01*
X41077962Y-34772038D01*
X40943387Y-34661595D01*
X40789851Y-34579528D01*
X40623255Y-34528992D01*
X40450001Y-34511928D01*
X39549999Y-34511928D01*
X39376745Y-34528992D01*
X39360000Y-34534072D01*
X39360000Y-29803315D01*
X43169036Y-33612352D01*
X43192893Y-33641422D01*
X43308923Y-33736645D01*
X43441300Y-33807402D01*
X43584937Y-33850974D01*
X43587517Y-33851228D01*
X43640226Y-33903937D01*
X43809744Y-34017205D01*
X43998102Y-34095226D01*
X44198061Y-34135000D01*
X44401939Y-34135000D01*
X44601898Y-34095226D01*
X44790256Y-34017205D01*
X44959774Y-33903937D01*
X45103937Y-33759774D01*
X45217205Y-33590256D01*
X45295226Y-33401898D01*
X45335000Y-33201939D01*
X45335000Y-32998061D01*
X45295226Y-32798102D01*
X45217205Y-32609744D01*
X45103937Y-32440226D01*
X44959774Y-32296063D01*
X44790256Y-32182795D01*
X44601898Y-32104774D01*
X44401939Y-32065000D01*
X44198061Y-32065000D01*
X43998102Y-32104774D01*
X43869846Y-32157900D01*
X42724683Y-31012738D01*
X42833000Y-30978751D01*
X42833000Y-29727000D01*
X41799037Y-29727000D01*
X41703140Y-29924783D01*
X41717247Y-30005302D01*
X40987162Y-29275217D01*
X41703140Y-29275217D01*
X41799037Y-29473000D01*
X42833000Y-29473000D01*
X42833000Y-28221249D01*
X43087000Y-28221249D01*
X43087000Y-29473000D01*
X43107000Y-29473000D01*
X43107000Y-29727000D01*
X43087000Y-29727000D01*
X43087000Y-30978751D01*
X43280125Y-31039348D01*
X43353411Y-31027461D01*
X43579465Y-30927701D01*
X43781713Y-30785757D01*
X43952383Y-30607084D01*
X44000017Y-30532133D01*
X44008992Y-30623255D01*
X44059528Y-30789851D01*
X44141595Y-30943387D01*
X44252038Y-31077962D01*
X44386613Y-31188405D01*
X44540149Y-31270472D01*
X44706745Y-31321008D01*
X44879999Y-31338072D01*
X46120001Y-31338072D01*
X46293255Y-31321008D01*
X46459851Y-31270472D01*
X46613387Y-31188405D01*
X46747962Y-31077962D01*
X46858405Y-30943387D01*
X46940472Y-30789851D01*
X46991008Y-30623255D01*
X47008072Y-30450001D01*
X47008072Y-29909315D01*
X79619143Y-29909315D01*
X79651623Y-30090464D01*
X79718820Y-30261795D01*
X79818151Y-30416725D01*
X79945798Y-30549299D01*
X80096856Y-30654423D01*
X80285285Y-30726075D01*
X80428000Y-30661044D01*
X80428000Y-29762000D01*
X80682000Y-29762000D01*
X80682000Y-30661044D01*
X80824715Y-30726075D01*
X81013144Y-30654423D01*
X81164202Y-30549299D01*
X81291849Y-30416725D01*
X81391180Y-30261795D01*
X81458377Y-30090464D01*
X81490857Y-29909315D01*
X84459143Y-29909315D01*
X84491623Y-30090464D01*
X84558820Y-30261795D01*
X84658151Y-30416725D01*
X84785798Y-30549299D01*
X84936856Y-30654423D01*
X85125285Y-30726075D01*
X85268000Y-30661044D01*
X85268000Y-29762000D01*
X85522000Y-29762000D01*
X85522000Y-30661044D01*
X85664715Y-30726075D01*
X85853144Y-30654423D01*
X86004202Y-30549299D01*
X86131849Y-30416725D01*
X86231180Y-30261795D01*
X86298377Y-30090464D01*
X86330857Y-29909315D01*
X86235711Y-29762000D01*
X85522000Y-29762000D01*
X85268000Y-29762000D01*
X84554289Y-29762000D01*
X84459143Y-29909315D01*
X81490857Y-29909315D01*
X81395711Y-29762000D01*
X80682000Y-29762000D01*
X80428000Y-29762000D01*
X79714289Y-29762000D01*
X79619143Y-29909315D01*
X47008072Y-29909315D01*
X47008072Y-29360685D01*
X79619143Y-29360685D01*
X79714289Y-29508000D01*
X80428000Y-29508000D01*
X80428000Y-28608956D01*
X80682000Y-28608956D01*
X80682000Y-29508000D01*
X81395711Y-29508000D01*
X81490857Y-29360685D01*
X84459143Y-29360685D01*
X84554289Y-29508000D01*
X85268000Y-29508000D01*
X85268000Y-28608956D01*
X85522000Y-28608956D01*
X85522000Y-29508000D01*
X86235711Y-29508000D01*
X86330857Y-29360685D01*
X86298377Y-29179536D01*
X86231180Y-29008205D01*
X86131849Y-28853275D01*
X86004202Y-28720701D01*
X85853144Y-28615577D01*
X85664715Y-28543925D01*
X85522000Y-28608956D01*
X85268000Y-28608956D01*
X85125285Y-28543925D01*
X84936856Y-28615577D01*
X84785798Y-28720701D01*
X84658151Y-28853275D01*
X84558820Y-29008205D01*
X84491623Y-29179536D01*
X84459143Y-29360685D01*
X81490857Y-29360685D01*
X81458377Y-29179536D01*
X81391180Y-29008205D01*
X81291849Y-28853275D01*
X81164202Y-28720701D01*
X81013144Y-28615577D01*
X80824715Y-28543925D01*
X80682000Y-28608956D01*
X80428000Y-28608956D01*
X80285285Y-28543925D01*
X80096856Y-28615577D01*
X79945798Y-28720701D01*
X79818151Y-28853275D01*
X79718820Y-29008205D01*
X79651623Y-29179536D01*
X79619143Y-29360685D01*
X47008072Y-29360685D01*
X47008072Y-28749999D01*
X46991008Y-28576745D01*
X46940472Y-28410149D01*
X46858405Y-28256613D01*
X46747962Y-28122038D01*
X46613387Y-28011595D01*
X46459851Y-27929528D01*
X46293255Y-27878992D01*
X46120001Y-27861928D01*
X44879999Y-27861928D01*
X44706745Y-27878992D01*
X44540149Y-27929528D01*
X44386613Y-28011595D01*
X44252038Y-28122038D01*
X44141595Y-28256613D01*
X44059528Y-28410149D01*
X44008992Y-28576745D01*
X44000017Y-28667867D01*
X43952383Y-28592916D01*
X43781713Y-28414243D01*
X43579465Y-28272299D01*
X43353411Y-28172539D01*
X43280125Y-28160652D01*
X43087000Y-28221249D01*
X42833000Y-28221249D01*
X42639875Y-28160652D01*
X42566589Y-28172539D01*
X42340535Y-28272299D01*
X42138287Y-28414243D01*
X41967617Y-28592916D01*
X41835084Y-28801452D01*
X41745781Y-29031837D01*
X41703140Y-29275217D01*
X40987162Y-29275217D01*
X40093589Y-28381644D01*
X40069727Y-28352568D01*
X39953697Y-28257345D01*
X39821320Y-28186588D01*
X39677683Y-28143016D01*
X39565731Y-28131990D01*
X39565728Y-28131990D01*
X39528305Y-28128304D01*
X39490882Y-28131990D01*
X38877000Y-28131990D01*
X38877000Y-28000000D01*
X38874560Y-27975224D01*
X38867333Y-27951399D01*
X38855597Y-27929443D01*
X38839803Y-27910197D01*
X38820557Y-27894403D01*
X38798601Y-27882667D01*
X38774776Y-27875440D01*
X38750000Y-27873000D01*
X38036005Y-27873000D01*
X38012710Y-27796207D01*
X37951425Y-27681550D01*
X37868948Y-27581052D01*
X37768450Y-27498575D01*
X37653793Y-27437290D01*
X37529383Y-27399550D01*
X37432419Y-27390000D01*
X37400000Y-27386807D01*
X37367581Y-27390000D01*
X33632419Y-27390000D01*
X33600000Y-27386807D01*
X33567581Y-27390000D01*
X33470617Y-27399550D01*
X33346207Y-27437290D01*
X33231550Y-27498575D01*
X33131052Y-27581052D01*
X33048575Y-27681550D01*
X32987290Y-27796207D01*
X32963995Y-27873000D01*
X32250000Y-27873000D01*
X32225224Y-27875440D01*
X32201399Y-27882667D01*
X32179443Y-27894403D01*
X32160197Y-27910197D01*
X32144403Y-27929443D01*
X32132667Y-27951399D01*
X32125440Y-27975224D01*
X32123000Y-28000000D01*
X32123000Y-28663995D01*
X32046207Y-28687290D01*
X31931550Y-28748575D01*
X31831052Y-28831052D01*
X31748575Y-28931550D01*
X31687290Y-29046207D01*
X31649550Y-29170617D01*
X31636807Y-29300000D01*
X31162948Y-29300000D01*
X31301073Y-28966537D01*
X31435000Y-28293242D01*
X31435000Y-27606758D01*
X31301073Y-26933463D01*
X31298908Y-26928236D01*
X79191648Y-26928236D01*
X79234955Y-27131463D01*
X79317077Y-27322336D01*
X79434859Y-27493520D01*
X79583774Y-27638437D01*
X79758099Y-27751518D01*
X79955568Y-27825561D01*
X80118000Y-27762319D01*
X80118000Y-26762000D01*
X80372000Y-26762000D01*
X80372000Y-27762319D01*
X80534432Y-27825561D01*
X80731901Y-27751518D01*
X80906226Y-27638437D01*
X81055141Y-27493520D01*
X81172923Y-27322336D01*
X81255045Y-27131463D01*
X81298352Y-26928236D01*
X84651648Y-26928236D01*
X84694955Y-27131463D01*
X84777077Y-27322336D01*
X84894859Y-27493520D01*
X85043774Y-27638437D01*
X85218099Y-27751518D01*
X85415568Y-27825561D01*
X85578000Y-27762319D01*
X85578000Y-26762000D01*
X85832000Y-26762000D01*
X85832000Y-27762319D01*
X85994432Y-27825561D01*
X86191901Y-27751518D01*
X86366226Y-27638437D01*
X86515141Y-27493520D01*
X86632923Y-27322336D01*
X86715045Y-27131463D01*
X86758352Y-26928236D01*
X86668630Y-26762000D01*
X85832000Y-26762000D01*
X85578000Y-26762000D01*
X84741370Y-26762000D01*
X84651648Y-26928236D01*
X81298352Y-26928236D01*
X81208630Y-26762000D01*
X80372000Y-26762000D01*
X80118000Y-26762000D01*
X79281370Y-26762000D01*
X79191648Y-26928236D01*
X31298908Y-26928236D01*
X31038367Y-26299234D01*
X30923284Y-26127000D01*
X79239919Y-26127000D01*
X79234955Y-26138537D01*
G37*
X79234955Y-26138537D02*
X79191648Y-26341764D01*
X79281370Y-26508000D01*
X80118000Y-26508000D01*
X80118000Y-26488000D01*
X80372000Y-26488000D01*
X80372000Y-26508000D01*
X81208630Y-26508000D01*
X81298352Y-26341764D01*
X81255045Y-26138537D01*
X81250081Y-26127000D01*
X84699919Y-26127000D01*
X84694955Y-26138537D01*
X84651648Y-26341764D01*
X84741370Y-26508000D01*
X85578000Y-26508000D01*
X85578000Y-26488000D01*
X85832000Y-26488000D01*
X85832000Y-26508000D01*
X86668630Y-26508000D01*
X86758352Y-26341764D01*
X86715045Y-26138537D01*
X86710081Y-26127000D01*
X88088716Y-26127000D01*
X87973633Y-26299234D01*
X87710927Y-26933463D01*
X87577000Y-27606758D01*
X87577000Y-28293242D01*
X87710927Y-28966537D01*
X87973633Y-29600766D01*
X88355024Y-30171558D01*
X88840442Y-30656976D01*
X89411234Y-31038367D01*
X90045463Y-31301073D01*
X90718758Y-31435000D01*
X91405242Y-31435000D01*
X92078537Y-31301073D01*
X92712766Y-31038367D01*
X92873000Y-30931302D01*
X92873000Y-38873000D01*
X73000000Y-38873000D01*
X72975224Y-38875440D01*
X72951399Y-38882667D01*
X72929443Y-38894403D01*
X72910197Y-38910197D01*
X72894403Y-38929443D01*
X72882667Y-38951399D01*
X72875440Y-38975224D01*
X72873000Y-39000000D01*
X72873000Y-64000000D01*
X72875440Y-64024776D01*
X72882667Y-64048601D01*
X72894403Y-64070557D01*
X72910197Y-64089803D01*
X72929443Y-64105597D01*
X72951399Y-64117333D01*
X72975224Y-64124560D01*
X73000000Y-64127000D01*
X92873000Y-64127000D01*
X92873000Y-67068698D01*
X92712766Y-66961633D01*
X92078537Y-66698927D01*
X91405242Y-66565000D01*
X90718758Y-66565000D01*
X90045463Y-66698927D01*
X89411234Y-66961633D01*
X88840442Y-67343024D01*
X88355024Y-67828442D01*
X87973633Y-68399234D01*
X87710927Y-69033463D01*
X87577000Y-69706758D01*
X87577000Y-70393242D01*
X87710927Y-71066537D01*
X87973633Y-71700766D01*
X88088716Y-71873000D01*
X81412188Y-71873000D01*
X81528158Y-71849932D01*
X81798411Y-71737990D01*
X82041632Y-71575475D01*
X82248475Y-71368632D01*
X82410990Y-71125411D01*
X82505145Y-70898100D01*
X82530201Y-70964949D01*
X82657353Y-71170052D01*
X82822076Y-71346408D01*
X83018039Y-71487239D01*
X83237712Y-71587134D01*
X83318020Y-71611489D01*
X83508000Y-71550627D01*
X83508000Y-70549000D01*
X83762000Y-70549000D01*
X83762000Y-71550627D01*
X83951980Y-71611489D01*
X84032288Y-71587134D01*
X84251961Y-71487239D01*
X84447924Y-71346408D01*
X84612647Y-71170052D01*
X84739799Y-70964949D01*
X84824495Y-70738981D01*
X84764187Y-70549000D01*
X83762000Y-70549000D01*
X83508000Y-70549000D01*
X83488000Y-70549000D01*
X83488000Y-70295000D01*
X83508000Y-70295000D01*
X83508000Y-70275000D01*
X83762000Y-70275000D01*
X83762000Y-70295000D01*
X84764187Y-70295000D01*
X84824495Y-70105019D01*
X84739799Y-69879051D01*
X84612647Y-69673948D01*
X84447924Y-69497592D01*
X84251961Y-69356761D01*
X84110455Y-69292412D01*
X84338411Y-69197990D01*
X84581632Y-69035475D01*
X84788475Y-68828632D01*
X84950990Y-68585411D01*
X85062932Y-68315158D01*
X85120000Y-68028260D01*
X85120000Y-67735740D01*
X85062932Y-67448842D01*
X84950990Y-67178589D01*
X84788475Y-66935368D01*
X84581632Y-66728525D01*
X84338411Y-66566010D01*
X84068158Y-66454068D01*
X83781260Y-66397000D01*
X83488740Y-66397000D01*
X83201842Y-66454068D01*
X82931589Y-66566010D01*
X82688368Y-66728525D01*
X82481525Y-66935368D01*
X82365000Y-67109760D01*
X82248475Y-66935368D01*
X82041632Y-66728525D01*
X81798411Y-66566010D01*
X81528158Y-66454068D01*
X81241260Y-66397000D01*
X80948740Y-66397000D01*
X80661842Y-66454068D01*
X80391589Y-66566010D01*
X80148368Y-66728525D01*
X79941525Y-66935368D01*
X79825000Y-67109760D01*
X79708475Y-66935368D01*
X79501632Y-66728525D01*
X79258411Y-66566010D01*
X78988158Y-66454068D01*
X78701260Y-66397000D01*
X78408740Y-66397000D01*
X78121842Y-66454068D01*
X77851589Y-66566010D01*
X77608368Y-66728525D01*
X77401525Y-66935368D01*
X77285000Y-67109760D01*
X77168475Y-66935368D01*
X76961632Y-66728525D01*
X76718411Y-66566010D01*
X76448158Y-66454068D01*
X76161260Y-66397000D01*
X75868740Y-66397000D01*
X75581842Y-66454068D01*
X75311589Y-66566010D01*
X75068368Y-66728525D01*
X74861525Y-66935368D01*
X74745000Y-67109760D01*
X74628475Y-66935368D01*
X74421632Y-66728525D01*
X74178411Y-66566010D01*
X73908158Y-66454068D01*
X73621260Y-66397000D01*
X73328740Y-66397000D01*
X73041842Y-66454068D01*
X72771589Y-66566010D01*
X72528368Y-66728525D01*
X72321525Y-66935368D01*
X72205000Y-67109760D01*
X72088475Y-66935368D01*
X71881632Y-66728525D01*
X71638411Y-66566010D01*
X71368158Y-66454068D01*
X71081260Y-66397000D01*
X70788740Y-66397000D01*
X70501842Y-66454068D01*
X70231589Y-66566010D01*
X69988368Y-66728525D01*
X69781525Y-66935368D01*
X69665000Y-67109760D01*
X69548475Y-66935368D01*
X69341632Y-66728525D01*
X69098411Y-66566010D01*
X68828158Y-66454068D01*
X68541260Y-66397000D01*
X68248740Y-66397000D01*
X67961842Y-66454068D01*
X67691589Y-66566010D01*
X67448368Y-66728525D01*
X67241525Y-66935368D01*
X67125000Y-67109760D01*
X67008475Y-66935368D01*
X66801632Y-66728525D01*
X66558411Y-66566010D01*
X66288158Y-66454068D01*
X66001260Y-66397000D01*
X65708740Y-66397000D01*
X65421842Y-66454068D01*
X65151589Y-66566010D01*
X64908368Y-66728525D01*
X64701525Y-66935368D01*
X64585000Y-67109760D01*
X64468475Y-66935368D01*
X64261632Y-66728525D01*
X64018411Y-66566010D01*
X63748158Y-66454068D01*
X63461260Y-66397000D01*
X63168740Y-66397000D01*
X62881842Y-66454068D01*
X62611589Y-66566010D01*
X62368368Y-66728525D01*
X62161525Y-66935368D01*
X62045000Y-67109760D01*
X61928475Y-66935368D01*
X61721632Y-66728525D01*
X61478411Y-66566010D01*
X61208158Y-66454068D01*
X60921260Y-66397000D01*
X60628740Y-66397000D01*
X60341842Y-66454068D01*
X60071589Y-66566010D01*
X59828368Y-66728525D01*
X59621525Y-66935368D01*
X59505000Y-67109760D01*
X59388475Y-66935368D01*
X59181632Y-66728525D01*
X58938411Y-66566010D01*
X58668158Y-66454068D01*
X58381260Y-66397000D01*
X58088740Y-66397000D01*
X57801842Y-66454068D01*
X57531589Y-66566010D01*
X57288368Y-66728525D01*
X57081525Y-66935368D01*
X56965000Y-67109760D01*
X56848475Y-66935368D01*
X56641632Y-66728525D01*
X56398411Y-66566010D01*
X56128158Y-66454068D01*
X55841260Y-66397000D01*
X55548740Y-66397000D01*
X55261842Y-66454068D01*
X54991589Y-66566010D01*
X54748368Y-66728525D01*
X54541525Y-66935368D01*
X54425000Y-67109760D01*
X54308475Y-66935368D01*
X54101632Y-66728525D01*
X53858411Y-66566010D01*
X53588158Y-66454068D01*
X53301260Y-66397000D01*
X53008740Y-66397000D01*
X52721842Y-66454068D01*
X52451589Y-66566010D01*
X52208368Y-66728525D01*
X52001525Y-66935368D01*
X51885000Y-67109760D01*
X51768475Y-66935368D01*
X51561632Y-66728525D01*
X51318411Y-66566010D01*
X51048158Y-66454068D01*
X50761260Y-66397000D01*
X50468740Y-66397000D01*
X50181842Y-66454068D01*
X49911589Y-66566010D01*
X49668368Y-66728525D01*
X49461525Y-66935368D01*
X49345000Y-67109760D01*
X49228475Y-66935368D01*
X49021632Y-66728525D01*
X48778411Y-66566010D01*
X48508158Y-66454068D01*
X48221260Y-66397000D01*
X47928740Y-66397000D01*
X47641842Y-66454068D01*
X47371589Y-66566010D01*
X47128368Y-66728525D01*
X46921525Y-66935368D01*
X46805000Y-67109760D01*
X46688475Y-66935368D01*
X46481632Y-66728525D01*
X46238411Y-66566010D01*
X45968158Y-66454068D01*
X45681260Y-66397000D01*
X45388740Y-66397000D01*
X45101842Y-66454068D01*
X44831589Y-66566010D01*
X44588368Y-66728525D01*
X44381525Y-66935368D01*
X44265000Y-67109760D01*
X44148475Y-66935368D01*
X43941632Y-66728525D01*
X43698411Y-66566010D01*
X43428158Y-66454068D01*
X43141260Y-66397000D01*
X42848740Y-66397000D01*
X42561842Y-66454068D01*
X42291589Y-66566010D01*
X42048368Y-66728525D01*
X41841525Y-66935368D01*
X41725000Y-67109760D01*
X41608475Y-66935368D01*
X41401632Y-66728525D01*
X41158411Y-66566010D01*
X40888158Y-66454068D01*
X40601260Y-66397000D01*
X40308740Y-66397000D01*
X40021842Y-66454068D01*
X39751589Y-66566010D01*
X39508368Y-66728525D01*
X39301525Y-66935368D01*
X39185000Y-67109760D01*
X39068475Y-66935368D01*
X38861632Y-66728525D01*
X38618411Y-66566010D01*
X38348158Y-66454068D01*
X38061260Y-66397000D01*
X37768740Y-66397000D01*
X37481842Y-66454068D01*
X37211589Y-66566010D01*
X36968368Y-66728525D01*
X36761525Y-66935368D01*
X36645000Y-67109760D01*
X36528475Y-66935368D01*
X36321632Y-66728525D01*
X36078411Y-66566010D01*
X35808158Y-66454068D01*
X35521260Y-66397000D01*
X35228740Y-66397000D01*
X34941842Y-66454068D01*
X34671589Y-66566010D01*
X34428368Y-66728525D01*
X34221525Y-66935368D01*
X34059010Y-67178589D01*
X33947068Y-67448842D01*
X33890000Y-67735740D01*
X33890000Y-68028260D01*
X33947068Y-68315158D01*
X34059010Y-68585411D01*
X34221525Y-68828632D01*
X34353380Y-68960487D01*
X34280820Y-68982498D01*
X34170506Y-69041463D01*
X34073815Y-69120815D01*
X33994463Y-69217506D01*
X33935498Y-69327820D01*
X33899188Y-69447518D01*
X33886928Y-69572000D01*
X33886928Y-71272000D01*
X33899188Y-71396482D01*
X33935498Y-71516180D01*
X33994463Y-71626494D01*
X34073815Y-71723185D01*
X34170506Y-71802537D01*
X34280820Y-71861502D01*
X34318724Y-71873000D01*
X30923284Y-71873000D01*
X31038367Y-71700766D01*
X31301073Y-71066537D01*
X31435000Y-70393242D01*
X31435000Y-69706758D01*
X31301073Y-69033463D01*
X31038367Y-68399234D01*
X30656976Y-67828442D01*
X30171558Y-67343024D01*
X29600766Y-66961633D01*
X28966537Y-66698927D01*
X28293242Y-66565000D01*
X27606758Y-66565000D01*
X26933463Y-66698927D01*
X26299234Y-66961633D01*
X26127000Y-67076716D01*
X26127000Y-63556981D01*
X58890505Y-63556981D01*
X58975201Y-63782949D01*
X59102353Y-63988052D01*
X59267076Y-64164408D01*
X59463039Y-64305239D01*
X59682712Y-64405134D01*
X59763020Y-64429489D01*
X59953000Y-64368627D01*
X59953000Y-63367000D01*
X58950813Y-63367000D01*
X58890505Y-63556981D01*
X26127000Y-63556981D01*
X26127000Y-62923019D01*
X58890505Y-62923019D01*
X58950813Y-63113000D01*
X59953000Y-63113000D01*
X59953000Y-62111373D01*
X59763020Y-62050511D01*
X59682712Y-62074866D01*
X59463039Y-62174761D01*
X59267076Y-62315592D01*
X59102353Y-62491948D01*
X58975201Y-62697051D01*
X58890505Y-62923019D01*
X26127000Y-62923019D01*
X26127000Y-59100000D01*
X33611928Y-59100000D01*
X33611928Y-60400000D01*
X33624188Y-60524482D01*
X33660498Y-60644180D01*
X33719463Y-60754494D01*
X33798815Y-60851185D01*
X33895506Y-60930537D01*
X34005820Y-60989502D01*
X34125518Y-61025812D01*
X34250000Y-61038072D01*
X35800000Y-61038072D01*
X35924482Y-61025812D01*
X36044180Y-60989502D01*
X36154494Y-60930537D01*
X36251185Y-60851185D01*
X36330537Y-60754494D01*
X36389502Y-60644180D01*
X36425812Y-60524482D01*
X36427041Y-60512000D01*
X41572959Y-60512000D01*
X41574188Y-60524482D01*
X41610498Y-60644180D01*
X41669463Y-60754494D01*
X41748815Y-60851185D01*
X41845506Y-60930537D01*
X41955820Y-60989502D01*
X42075518Y-61025812D01*
X42200000Y-61038072D01*
X43750000Y-61038072D01*
X43874482Y-61025812D01*
X43994180Y-60989502D01*
X44104494Y-60930537D01*
X44201185Y-60851185D01*
X44280537Y-60754494D01*
X44339502Y-60644180D01*
X44375812Y-60524482D01*
X44388072Y-60400000D01*
X44388072Y-59100000D01*
X49061928Y-59100000D01*
X49061928Y-61700000D01*
X49074188Y-61824482D01*
X49110498Y-61944180D01*
X49169463Y-62054494D01*
X49248815Y-62151185D01*
X49345506Y-62230537D01*
X49455820Y-62289502D01*
X49575518Y-62325812D01*
X49700000Y-62338072D01*
X53300000Y-62338072D01*
X53424482Y-62325812D01*
X53544180Y-62289502D01*
X53654494Y-62230537D01*
X53751185Y-62151185D01*
X53830537Y-62054494D01*
X53889502Y-61944180D01*
X53925812Y-61824482D01*
X53938072Y-61700000D01*
X53938072Y-61016981D01*
X58890505Y-61016981D01*
X58975201Y-61242949D01*
X59102353Y-61448052D01*
X59267076Y-61624408D01*
X59463039Y-61765239D01*
X59682712Y-61865134D01*
X59763020Y-61889489D01*
X59953000Y-61828627D01*
X59953000Y-60827000D01*
X58950813Y-60827000D01*
X58890505Y-61016981D01*
X53938072Y-61016981D01*
X53938072Y-60383019D01*
X58890505Y-60383019D01*
X58950813Y-60573000D01*
X59953000Y-60573000D01*
X59953000Y-59571373D01*
X60207000Y-59571373D01*
X60207000Y-60573000D01*
X60227000Y-60573000D01*
X60227000Y-60827000D01*
X60207000Y-60827000D01*
X60207000Y-61828627D01*
X60396980Y-61889489D01*
X60477288Y-61865134D01*
X60696961Y-61765239D01*
X60892924Y-61624408D01*
X61057647Y-61448052D01*
X61184799Y-61242949D01*
X61209855Y-61176100D01*
X61304010Y-61403411D01*
X61466525Y-61646632D01*
X61673368Y-61853475D01*
X61847760Y-61970000D01*
X61673368Y-62086525D01*
X61466525Y-62293368D01*
X61304010Y-62536589D01*
X61209855Y-62763900D01*
X61184799Y-62697051D01*
X61057647Y-62491948D01*
X60892924Y-62315592D01*
X60696961Y-62174761D01*
X60477288Y-62074866D01*
X60396980Y-62050511D01*
X60207000Y-62111373D01*
X60207000Y-63113000D01*
X60227000Y-63113000D01*
X60227000Y-63367000D01*
X60207000Y-63367000D01*
X60207000Y-64368627D01*
X60396980Y-64429489D01*
X60477288Y-64405134D01*
X60696961Y-64305239D01*
X60892924Y-64164408D01*
X61057647Y-63988052D01*
X61184799Y-63782949D01*
X61209855Y-63716100D01*
X61304010Y-63943411D01*
X61466525Y-64186632D01*
X61673368Y-64393475D01*
X61916589Y-64555990D01*
X62186842Y-64667932D01*
X62473740Y-64725000D01*
X62766260Y-64725000D01*
X63053158Y-64667932D01*
X63323411Y-64555990D01*
X63566632Y-64393475D01*
X63773475Y-64186632D01*
X63890000Y-64012240D01*
X64006525Y-64186632D01*
X64213368Y-64393475D01*
X64456589Y-64555990D01*
X64726842Y-64667932D01*
X65013740Y-64725000D01*
X65306260Y-64725000D01*
X65593158Y-64667932D01*
X65863411Y-64555990D01*
X66106632Y-64393475D01*
X66313475Y-64186632D01*
X66430000Y-64012240D01*
X66546525Y-64186632D01*
X66753368Y-64393475D01*
X66996589Y-64555990D01*
X67266842Y-64667932D01*
X67553740Y-64725000D01*
X67846260Y-64725000D01*
X68133158Y-64667932D01*
X68403411Y-64555990D01*
X68646632Y-64393475D01*
X68853475Y-64186632D01*
X68970000Y-64012240D01*
X69086525Y-64186632D01*
X69293368Y-64393475D01*
X69536589Y-64555990D01*
X69806842Y-64667932D01*
X70093740Y-64725000D01*
X70386260Y-64725000D01*
X70673158Y-64667932D01*
X70943411Y-64555990D01*
X71186632Y-64393475D01*
X71393475Y-64186632D01*
X71555990Y-63943411D01*
X71667932Y-63673158D01*
X71725000Y-63386260D01*
X71725000Y-63093740D01*
X71667932Y-62806842D01*
X71555990Y-62536589D01*
X71393475Y-62293368D01*
X71261620Y-62161513D01*
X71334180Y-62139502D01*
X71444494Y-62080537D01*
X71541185Y-62001185D01*
X71620537Y-61904494D01*
X71679502Y-61794180D01*
X71715812Y-61674482D01*
X71728072Y-61550000D01*
X71728072Y-59850000D01*
X71715812Y-59725518D01*
X71679502Y-59605820D01*
X71620537Y-59495506D01*
X71541185Y-59398815D01*
X71444494Y-59319463D01*
X71334180Y-59260498D01*
X71214482Y-59224188D01*
X71090000Y-59211928D01*
X69390000Y-59211928D01*
X69265518Y-59224188D01*
X69145820Y-59260498D01*
X69035506Y-59319463D01*
X68938815Y-59398815D01*
X68859463Y-59495506D01*
X68800498Y-59605820D01*
X68778487Y-59678380D01*
X68646632Y-59546525D01*
X68403411Y-59384010D01*
X68133158Y-59272068D01*
X67846260Y-59215000D01*
X67553740Y-59215000D01*
X67266842Y-59272068D01*
X66996589Y-59384010D01*
X66753368Y-59546525D01*
X66546525Y-59753368D01*
X66430000Y-59927760D01*
X66313475Y-59753368D01*
X66106632Y-59546525D01*
X65863411Y-59384010D01*
X65593158Y-59272068D01*
X65306260Y-59215000D01*
X65013740Y-59215000D01*
X64726842Y-59272068D01*
X64456589Y-59384010D01*
X64213368Y-59546525D01*
X64006525Y-59753368D01*
X63890000Y-59927760D01*
X63773475Y-59753368D01*
X63566632Y-59546525D01*
X63323411Y-59384010D01*
X63053158Y-59272068D01*
X62766260Y-59215000D01*
X62473740Y-59215000D01*
X62186842Y-59272068D01*
X61916589Y-59384010D01*
X61673368Y-59546525D01*
X61466525Y-59753368D01*
X61304010Y-59996589D01*
X61209855Y-60223900D01*
X61184799Y-60157051D01*
X61057647Y-59951948D01*
X60892924Y-59775592D01*
X60696961Y-59634761D01*
X60477288Y-59534866D01*
X60396980Y-59510511D01*
X60207000Y-59571373D01*
X59953000Y-59571373D01*
X59763020Y-59510511D01*
X59682712Y-59534866D01*
X59463039Y-59634761D01*
X59267076Y-59775592D01*
X59102353Y-59951948D01*
X58975201Y-60157051D01*
X58890505Y-60383019D01*
X53938072Y-60383019D01*
X53938072Y-59100000D01*
X53925812Y-58975518D01*
X53889502Y-58855820D01*
X53830537Y-58745506D01*
X53751185Y-58648815D01*
X53654494Y-58569463D01*
X53544180Y-58510498D01*
X53424482Y-58474188D01*
X53300000Y-58461928D01*
X52961702Y-58461928D01*
X53223377Y-58200253D01*
X53398061Y-58235000D01*
X53601939Y-58235000D01*
X53801898Y-58195226D01*
X53990256Y-58117205D01*
X54159774Y-58003937D01*
X54303937Y-57859774D01*
X54417205Y-57690256D01*
X54495226Y-57501898D01*
X54535000Y-57301939D01*
X54535000Y-57098061D01*
X54495226Y-56898102D01*
X54417205Y-56709744D01*
X54303937Y-56540226D01*
X54159774Y-56396063D01*
X53990256Y-56282795D01*
X53801898Y-56204774D01*
X53601939Y-56165000D01*
X53398061Y-56165000D01*
X53198102Y-56204774D01*
X53009744Y-56282795D01*
X52840226Y-56396063D01*
X52696063Y-56540226D01*
X52632044Y-56636037D01*
X52604578Y-56658578D01*
X52580716Y-56687654D01*
X50987649Y-58280721D01*
X50958579Y-58304578D01*
X50934722Y-58333648D01*
X50934721Y-58333649D01*
X50863355Y-58420608D01*
X50841269Y-58461928D01*
X49700000Y-58461928D01*
X49575518Y-58474188D01*
X49455820Y-58510498D01*
X49345506Y-58569463D01*
X49248815Y-58648815D01*
X49169463Y-58745506D01*
X49110498Y-58855820D01*
X49074188Y-58975518D01*
X49061928Y-59100000D01*
X44388072Y-59100000D01*
X44375812Y-58975518D01*
X44339502Y-58855820D01*
X44280537Y-58745506D01*
X44201185Y-58648815D01*
X44104494Y-58569463D01*
X43994180Y-58510498D01*
X43874482Y-58474188D01*
X43750000Y-58461928D01*
X43737000Y-58461928D01*
X43737000Y-55798061D01*
X56365000Y-55798061D01*
X56365000Y-56001939D01*
X56404774Y-56201898D01*
X56482795Y-56390256D01*
X56596063Y-56559774D01*
X56740226Y-56703937D01*
X56909744Y-56817205D01*
X57098102Y-56895226D01*
X57298061Y-56935000D01*
X57501939Y-56935000D01*
X57701898Y-56895226D01*
X57890256Y-56817205D01*
X58059774Y-56703937D01*
X58203937Y-56559774D01*
X58317205Y-56390256D01*
X58395226Y-56201898D01*
X58435000Y-56001939D01*
X58435000Y-55942630D01*
X58616292Y-55761339D01*
X58698102Y-55795226D01*
X58898061Y-55835000D01*
X59101939Y-55835000D01*
X59301898Y-55795226D01*
X59490256Y-55717205D01*
X59659774Y-55603937D01*
X59803937Y-55459774D01*
X59917205Y-55290256D01*
X59995226Y-55101898D01*
X60035000Y-54901939D01*
X60035000Y-54698061D01*
X59995226Y-54498102D01*
X59980272Y-54462000D01*
X65268191Y-54462000D01*
X65321236Y-54515045D01*
X65490754Y-54628313D01*
X65679112Y-54706334D01*
X65879071Y-54746108D01*
X66082949Y-54746108D01*
X66282908Y-54706334D01*
X66471266Y-54628313D01*
X66640784Y-54515045D01*
X66784947Y-54370882D01*
X66898215Y-54201364D01*
X66976236Y-54013006D01*
X67016010Y-53813047D01*
X67016010Y-53609169D01*
X66976236Y-53409210D01*
X66898215Y-53220852D01*
X66784947Y-53051334D01*
X66716234Y-52982621D01*
X66762127Y-52913938D01*
X66840148Y-52725580D01*
X66879922Y-52525621D01*
X66879922Y-52321743D01*
X66840148Y-52121784D01*
X66762127Y-51933426D01*
X66648859Y-51763908D01*
X66504696Y-51619745D01*
X66335178Y-51506477D01*
X66146820Y-51428456D01*
X65946861Y-51388682D01*
X65742983Y-51388682D01*
X65543024Y-51428456D01*
X65354666Y-51506477D01*
X65185148Y-51619745D01*
X65040985Y-51763908D01*
X64991478Y-51838000D01*
X59301711Y-51838000D01*
X59259774Y-51796063D01*
X59090256Y-51682795D01*
X58901898Y-51604774D01*
X58701939Y-51565000D01*
X58498061Y-51565000D01*
X58298102Y-51604774D01*
X58109744Y-51682795D01*
X57940226Y-51796063D01*
X57796063Y-51940226D01*
X57682795Y-52109744D01*
X57604774Y-52298102D01*
X57565000Y-52498061D01*
X57565000Y-52701939D01*
X57604774Y-52901898D01*
X57682795Y-53090256D01*
X57722715Y-53150000D01*
X57682795Y-53209744D01*
X57604774Y-53398102D01*
X57565000Y-53598061D01*
X57565000Y-53801939D01*
X57604774Y-54001898D01*
X57682795Y-54190256D01*
X57796063Y-54359774D01*
X57829329Y-54393040D01*
X57357370Y-54865000D01*
X57298061Y-54865000D01*
X57098102Y-54904774D01*
X56909744Y-54982795D01*
X56740226Y-55096063D01*
X56596063Y-55240226D01*
X56482795Y-55409744D01*
X56404774Y-55598102D01*
X56365000Y-55798061D01*
X43737000Y-55798061D01*
X43737000Y-51840630D01*
X45379569Y-50198061D01*
X50665000Y-50198061D01*
X50665000Y-50401939D01*
X50704774Y-50601898D01*
X50782795Y-50790256D01*
X50896063Y-50959774D01*
X51040226Y-51103937D01*
X51209744Y-51217205D01*
X51398102Y-51295226D01*
X51598061Y-51335000D01*
X51616348Y-51335000D01*
X51676888Y-51481156D01*
X51790156Y-51650674D01*
X51934319Y-51794837D01*
X52103837Y-51908105D01*
X52129212Y-51918616D01*
X52129212Y-51979352D01*
X52168986Y-52179311D01*
X52247007Y-52367669D01*
X52360275Y-52537187D01*
X52504438Y-52681350D01*
X52673956Y-52794618D01*
X52862314Y-52872639D01*
X53062273Y-52912413D01*
X53266151Y-52912413D01*
X53466110Y-52872639D01*
X53654468Y-52794618D01*
X53823986Y-52681350D01*
X53968149Y-52537187D01*
X54081417Y-52367669D01*
X54159438Y-52179311D01*
X54199212Y-51979352D01*
X54199212Y-51920043D01*
X55184254Y-50935002D01*
X55204414Y-50935002D01*
X55404373Y-50895228D01*
X55592731Y-50817207D01*
X55762249Y-50703939D01*
X55906412Y-50559776D01*
X56019680Y-50390258D01*
X56097701Y-50201900D01*
X56137475Y-50001941D01*
X56137475Y-49798063D01*
X56097701Y-49598104D01*
X56019680Y-49409746D01*
X55906412Y-49240228D01*
X55762249Y-49096065D01*
X55592731Y-48982797D01*
X55404373Y-48904776D01*
X55204414Y-48865002D01*
X55000536Y-48865002D01*
X54800577Y-48904776D01*
X54706334Y-48943813D01*
X54703937Y-48940226D01*
X54559774Y-48796063D01*
X54390256Y-48682795D01*
X54201898Y-48604774D01*
X54197250Y-48603849D01*
X54173854Y-48486229D01*
X54095833Y-48297871D01*
X53982565Y-48128353D01*
X53838402Y-47984190D01*
X53668884Y-47870922D01*
X53480526Y-47792901D01*
X53280567Y-47753127D01*
X53076689Y-47753127D01*
X52876730Y-47792901D01*
X52688372Y-47870922D01*
X52518854Y-47984190D01*
X52374691Y-48128353D01*
X52261423Y-48297871D01*
X52183402Y-48486229D01*
X52173498Y-48536022D01*
X51406395Y-49303124D01*
X51398102Y-49304774D01*
X51209744Y-49382795D01*
X51040226Y-49496063D01*
X50896063Y-49640226D01*
X50782795Y-49809744D01*
X50704774Y-49998102D01*
X50665000Y-50198061D01*
X45379569Y-50198061D01*
X46542631Y-49035000D01*
X46601939Y-49035000D01*
X46801898Y-48995226D01*
X46990256Y-48917205D01*
X47159774Y-48803937D01*
X47303937Y-48659774D01*
X47417205Y-48490256D01*
X47495226Y-48301898D01*
X47535000Y-48101939D01*
X47535000Y-47898061D01*
X47495226Y-47698102D01*
X47417205Y-47509744D01*
X47303937Y-47340226D01*
X47159774Y-47196063D01*
X46990256Y-47082795D01*
X46801898Y-47004774D01*
X46601939Y-46965000D01*
X46398061Y-46965000D01*
X46198102Y-47004774D01*
X46009744Y-47082795D01*
X45840226Y-47196063D01*
X45696063Y-47340226D01*
X45582795Y-47509744D01*
X45504774Y-47698102D01*
X45465000Y-47898061D01*
X45465000Y-47957369D01*
X42462649Y-50959721D01*
X42433579Y-50983578D01*
X42409722Y-51012648D01*
X42409721Y-51012649D01*
X42338355Y-51099608D01*
X42267599Y-51231985D01*
X42224027Y-51375622D01*
X42209314Y-51525000D01*
X42213001Y-51562433D01*
X42213000Y-58461928D01*
X42200000Y-58461928D01*
X42075518Y-58474188D01*
X41955820Y-58510498D01*
X41845506Y-58569463D01*
X41748815Y-58648815D01*
X41669463Y-58745506D01*
X41610498Y-58855820D01*
X41574188Y-58975518D01*
X41572959Y-58988000D01*
X36427041Y-58988000D01*
X36425812Y-58975518D01*
X36389502Y-58855820D01*
X36330537Y-58745506D01*
X36251185Y-58648815D01*
X36154494Y-58569463D01*
X36044180Y-58510498D01*
X35924482Y-58474188D01*
X35800000Y-58461928D01*
X34250000Y-58461928D01*
X34125518Y-58474188D01*
X34005820Y-58510498D01*
X33895506Y-58569463D01*
X33798815Y-58648815D01*
X33719463Y-58745506D01*
X33660498Y-58855820D01*
X33624188Y-58975518D01*
X33611928Y-59100000D01*
X26127000Y-59100000D01*
X26127000Y-54510360D01*
X31019246Y-54510360D01*
X31066737Y-54651110D01*
X31224921Y-54714966D01*
X31392524Y-54746735D01*
X31563104Y-54745195D01*
X31730106Y-54710407D01*
X31873263Y-54651110D01*
X31920754Y-54510360D01*
X31470000Y-54059605D01*
X31019246Y-54510360D01*
X26127000Y-54510360D01*
X26127000Y-53802524D01*
X30603265Y-53802524D01*
X30604805Y-53973104D01*
X30639593Y-54140106D01*
X30698890Y-54283263D01*
X30839640Y-54330754D01*
X31290395Y-53880000D01*
X31649605Y-53880000D01*
X32100360Y-54330754D01*
X32241110Y-54283263D01*
X32304966Y-54125079D01*
X32336735Y-53957476D01*
X32335195Y-53786896D01*
X32300407Y-53619894D01*
X32241110Y-53476737D01*
X32100360Y-53429246D01*
X31649605Y-53880000D01*
X31290395Y-53880000D01*
X30839640Y-53429246D01*
X30698890Y-53476737D01*
X30635034Y-53634921D01*
X30603265Y-53802524D01*
X26127000Y-53802524D01*
X26127000Y-53249640D01*
X31019246Y-53249640D01*
X31470000Y-53700395D01*
X31920754Y-53249640D01*
X31873263Y-53108890D01*
X31715079Y-53045034D01*
X31547476Y-53013265D01*
X31376896Y-53014805D01*
X31209894Y-53049593D01*
X31066737Y-53108890D01*
X31019246Y-53249640D01*
X26127000Y-53249640D01*
X26127000Y-45750360D01*
X31019246Y-45750360D01*
X31066737Y-45891110D01*
X31224921Y-45954966D01*
X31392524Y-45986735D01*
X31563104Y-45985195D01*
X31730106Y-45950407D01*
X31873263Y-45891110D01*
X31920754Y-45750360D01*
X31470000Y-45299605D01*
X31019246Y-45750360D01*
X26127000Y-45750360D01*
X26127000Y-45042524D01*
X30603265Y-45042524D01*
X30604805Y-45213104D01*
X30639593Y-45380106D01*
X30698890Y-45523263D01*
X30839640Y-45570754D01*
X31290395Y-45120000D01*
X31649605Y-45120000D01*
X32100360Y-45570754D01*
X32241110Y-45523263D01*
X32304966Y-45365079D01*
X32336735Y-45197476D01*
X32335195Y-45026896D01*
X32300407Y-44859894D01*
X32241110Y-44716737D01*
X32100360Y-44669246D01*
X31649605Y-45120000D01*
X31290395Y-45120000D01*
X30839640Y-44669246D01*
X30698890Y-44716737D01*
X30635034Y-44874921D01*
X30603265Y-45042524D01*
X26127000Y-45042524D01*
X26127000Y-44489640D01*
X31019246Y-44489640D01*
X31470000Y-44940395D01*
X31920754Y-44489640D01*
X31873263Y-44348890D01*
X31715079Y-44285034D01*
X31547476Y-44253265D01*
X31376896Y-44254805D01*
X31209894Y-44289593D01*
X31066737Y-44348890D01*
X31019246Y-44489640D01*
X26127000Y-44489640D01*
X26127000Y-43398061D01*
X54065000Y-43398061D01*
X54065000Y-43601939D01*
X54104774Y-43801898D01*
X54182795Y-43990256D01*
X54296063Y-44159774D01*
X54440226Y-44303937D01*
X54609744Y-44417205D01*
X54798102Y-44495226D01*
X54947266Y-44524896D01*
X56265000Y-45842631D01*
X56265000Y-45901939D01*
X56304774Y-46101898D01*
X56382795Y-46290256D01*
X56496063Y-46459774D01*
X56640226Y-46603937D01*
X56809744Y-46717205D01*
X56998102Y-46795226D01*
X57198061Y-46835000D01*
X57401939Y-46835000D01*
X57601898Y-46795226D01*
X57790256Y-46717205D01*
X57959774Y-46603937D01*
X58103937Y-46459774D01*
X58217205Y-46290256D01*
X58295226Y-46101898D01*
X58335000Y-45901939D01*
X58335000Y-45698061D01*
X58295226Y-45498102D01*
X58217205Y-45309744D01*
X58103937Y-45140226D01*
X57959774Y-44996063D01*
X57790256Y-44882795D01*
X57601898Y-44804774D01*
X57401939Y-44765000D01*
X57342631Y-44765000D01*
X56135000Y-43557370D01*
X56135000Y-43398061D01*
X56095226Y-43198102D01*
X56017205Y-43009744D01*
X55903937Y-42840226D01*
X55759774Y-42696063D01*
X55590256Y-42582795D01*
X55401898Y-42504774D01*
X55201939Y-42465000D01*
X54998061Y-42465000D01*
X54798102Y-42504774D01*
X54609744Y-42582795D01*
X54440226Y-42696063D01*
X54296063Y-42840226D01*
X54182795Y-43009744D01*
X54104774Y-43198102D01*
X54065000Y-43398061D01*
X26127000Y-43398061D01*
X26127000Y-40153740D01*
X30235000Y-40153740D01*
X30235000Y-40446260D01*
X30292068Y-40733158D01*
X30404010Y-41003411D01*
X30566525Y-41246632D01*
X30773368Y-41453475D01*
X31016589Y-41615990D01*
X31286842Y-41727932D01*
X31573740Y-41785000D01*
X31866260Y-41785000D01*
X32153158Y-41727932D01*
X32423411Y-41615990D01*
X32666632Y-41453475D01*
X32873475Y-41246632D01*
X32990000Y-41072240D01*
X33106525Y-41246632D01*
X33313368Y-41453475D01*
X33556589Y-41615990D01*
X33826842Y-41727932D01*
X34113740Y-41785000D01*
X34406260Y-41785000D01*
X34693158Y-41727932D01*
X34963411Y-41615990D01*
X35206632Y-41453475D01*
X35338487Y-41321620D01*
X35360498Y-41394180D01*
X35419463Y-41504494D01*
X35498815Y-41601185D01*
X35595506Y-41680537D01*
X35705820Y-41739502D01*
X35825518Y-41775812D01*
X35950000Y-41788072D01*
X37650000Y-41788072D01*
X37774482Y-41775812D01*
X37894180Y-41739502D01*
X38004494Y-41680537D01*
X38101185Y-41601185D01*
X38180537Y-41504494D01*
X38239502Y-41394180D01*
X38275812Y-41274482D01*
X38288072Y-41150000D01*
X38288072Y-39450000D01*
X38275812Y-39325518D01*
X38239502Y-39205820D01*
X38180537Y-39095506D01*
X38101185Y-38998815D01*
X38004494Y-38919463D01*
X37894180Y-38860498D01*
X37774482Y-38824188D01*
X37650000Y-38811928D01*
X35950000Y-38811928D01*
X35825518Y-38824188D01*
X35705820Y-38860498D01*
X35595506Y-38919463D01*
X35498815Y-38998815D01*
X35419463Y-39095506D01*
X35360498Y-39205820D01*
X35338487Y-39278380D01*
X35206632Y-39146525D01*
X34963411Y-38984010D01*
X34693158Y-38872068D01*
X34406260Y-38815000D01*
X34113740Y-38815000D01*
X33826842Y-38872068D01*
X33556589Y-38984010D01*
X33313368Y-39146525D01*
X33106525Y-39353368D01*
X32990000Y-39527760D01*
X32873475Y-39353368D01*
X32666632Y-39146525D01*
X32423411Y-38984010D01*
X32153158Y-38872068D01*
X31866260Y-38815000D01*
X31573740Y-38815000D01*
X31286842Y-38872068D01*
X31016589Y-38984010D01*
X30773368Y-39146525D01*
X30566525Y-39353368D01*
X30404010Y-39596589D01*
X30292068Y-39866842D01*
X30235000Y-40153740D01*
X26127000Y-40153740D01*
X26127000Y-30923284D01*
X26299234Y-31038367D01*
X26933463Y-31301073D01*
X27606758Y-31435000D01*
X28293242Y-31435000D01*
X28966537Y-31301073D01*
X29600766Y-31038367D01*
X30171558Y-30656976D01*
X30656976Y-30171558D01*
X31038367Y-29600766D01*
X31162948Y-29300000D01*
X31636807Y-29300000D01*
X31640001Y-29332429D01*
X31640000Y-36467581D01*
X31636807Y-36500000D01*
X31649550Y-36629383D01*
X31687290Y-36753793D01*
X31748575Y-36868450D01*
X31805713Y-36938072D01*
X31831052Y-36968948D01*
X31931550Y-37051425D01*
X32046207Y-37112710D01*
X32123000Y-37136005D01*
X32123000Y-37750000D01*
X32125440Y-37774776D01*
X32132667Y-37798601D01*
X32144403Y-37820557D01*
X32160197Y-37839803D01*
X32179443Y-37855597D01*
X32201399Y-37867333D01*
X32225224Y-37874560D01*
X32250000Y-37877000D01*
X32863995Y-37877000D01*
X32887290Y-37953793D01*
X32948575Y-38068450D01*
X33031052Y-38168948D01*
X33131550Y-38251425D01*
X33246207Y-38312710D01*
X33370617Y-38350450D01*
X33500000Y-38363193D01*
X33532419Y-38360000D01*
X37367581Y-38360000D01*
X37400000Y-38363193D01*
X37432419Y-38360000D01*
X37529383Y-38350450D01*
X37653793Y-38312710D01*
X37768450Y-38251425D01*
X37868948Y-38168948D01*
X37951425Y-38068450D01*
X38012710Y-37953793D01*
X38036005Y-37877000D01*
X38750000Y-37877000D01*
X38774776Y-37874560D01*
X38798601Y-37867333D01*
X38820557Y-37855597D01*
X38839803Y-37839803D01*
X38855597Y-37820557D01*
X38867333Y-37798601D01*
X38874560Y-37774776D01*
X38877000Y-37750000D01*
X38877000Y-37662000D01*
X39362577Y-37662000D01*
X39400000Y-37665686D01*
X39437423Y-37662000D01*
X39437426Y-37662000D01*
X39549378Y-37650974D01*
X39693015Y-37607402D01*
X39825392Y-37536645D01*
X39941422Y-37441422D01*
X39965283Y-37412347D01*
X40310198Y-37067433D01*
X40394870Y-37152105D01*
X40404774Y-37201898D01*
X40482795Y-37390256D01*
X40596063Y-37559774D01*
X40740226Y-37703937D01*
X40909744Y-37817205D01*
X41098102Y-37895226D01*
X41298061Y-37935000D01*
X41501939Y-37935000D01*
X41701898Y-37895226D01*
X41890256Y-37817205D01*
X42059774Y-37703937D01*
X42203937Y-37559774D01*
X42317205Y-37390256D01*
X42395226Y-37201898D01*
X42435000Y-37001939D01*
X42435000Y-36798061D01*
X42395226Y-36598102D01*
X42317205Y-36409744D01*
X42203937Y-36240226D01*
X42059774Y-36096063D01*
X41890256Y-35982795D01*
X41701898Y-35904774D01*
X41652105Y-35894870D01*
X41338072Y-35580837D01*
X41338072Y-35399999D01*
X41321008Y-35226745D01*
X41270472Y-35060149D01*
X41188405Y-34906613D01*
X41077962Y-34772038D01*
X40943387Y-34661595D01*
X40789851Y-34579528D01*
X40623255Y-34528992D01*
X40450001Y-34511928D01*
X39549999Y-34511928D01*
X39376745Y-34528992D01*
X39360000Y-34534072D01*
X39360000Y-29803315D01*
X43169036Y-33612352D01*
X43192893Y-33641422D01*
X43308923Y-33736645D01*
X43441300Y-33807402D01*
X43584937Y-33850974D01*
X43587517Y-33851228D01*
X43640226Y-33903937D01*
X43809744Y-34017205D01*
X43998102Y-34095226D01*
X44198061Y-34135000D01*
X44401939Y-34135000D01*
X44601898Y-34095226D01*
X44790256Y-34017205D01*
X44959774Y-33903937D01*
X45103937Y-33759774D01*
X45217205Y-33590256D01*
X45295226Y-33401898D01*
X45335000Y-33201939D01*
X45335000Y-32998061D01*
X45295226Y-32798102D01*
X45217205Y-32609744D01*
X45103937Y-32440226D01*
X44959774Y-32296063D01*
X44790256Y-32182795D01*
X44601898Y-32104774D01*
X44401939Y-32065000D01*
X44198061Y-32065000D01*
X43998102Y-32104774D01*
X43869846Y-32157900D01*
X42724683Y-31012738D01*
X42833000Y-30978751D01*
X42833000Y-29727000D01*
X41799037Y-29727000D01*
X41703140Y-29924783D01*
X41717247Y-30005302D01*
X40987162Y-29275217D01*
X41703140Y-29275217D01*
X41799037Y-29473000D01*
X42833000Y-29473000D01*
X42833000Y-28221249D01*
X43087000Y-28221249D01*
X43087000Y-29473000D01*
X43107000Y-29473000D01*
X43107000Y-29727000D01*
X43087000Y-29727000D01*
X43087000Y-30978751D01*
X43280125Y-31039348D01*
X43353411Y-31027461D01*
X43579465Y-30927701D01*
X43781713Y-30785757D01*
X43952383Y-30607084D01*
X44000017Y-30532133D01*
X44008992Y-30623255D01*
X44059528Y-30789851D01*
X44141595Y-30943387D01*
X44252038Y-31077962D01*
X44386613Y-31188405D01*
X44540149Y-31270472D01*
X44706745Y-31321008D01*
X44879999Y-31338072D01*
X46120001Y-31338072D01*
X46293255Y-31321008D01*
X46459851Y-31270472D01*
X46613387Y-31188405D01*
X46747962Y-31077962D01*
X46858405Y-30943387D01*
X46940472Y-30789851D01*
X46991008Y-30623255D01*
X47008072Y-30450001D01*
X47008072Y-29909315D01*
X79619143Y-29909315D01*
X79651623Y-30090464D01*
X79718820Y-30261795D01*
X79818151Y-30416725D01*
X79945798Y-30549299D01*
X80096856Y-30654423D01*
X80285285Y-30726075D01*
X80428000Y-30661044D01*
X80428000Y-29762000D01*
X80682000Y-29762000D01*
X80682000Y-30661044D01*
X80824715Y-30726075D01*
X81013144Y-30654423D01*
X81164202Y-30549299D01*
X81291849Y-30416725D01*
X81391180Y-30261795D01*
X81458377Y-30090464D01*
X81490857Y-29909315D01*
X84459143Y-29909315D01*
X84491623Y-30090464D01*
X84558820Y-30261795D01*
X84658151Y-30416725D01*
X84785798Y-30549299D01*
X84936856Y-30654423D01*
X85125285Y-30726075D01*
X85268000Y-30661044D01*
X85268000Y-29762000D01*
X85522000Y-29762000D01*
X85522000Y-30661044D01*
X85664715Y-30726075D01*
X85853144Y-30654423D01*
X86004202Y-30549299D01*
X86131849Y-30416725D01*
X86231180Y-30261795D01*
X86298377Y-30090464D01*
X86330857Y-29909315D01*
X86235711Y-29762000D01*
X85522000Y-29762000D01*
X85268000Y-29762000D01*
X84554289Y-29762000D01*
X84459143Y-29909315D01*
X81490857Y-29909315D01*
X81395711Y-29762000D01*
X80682000Y-29762000D01*
X80428000Y-29762000D01*
X79714289Y-29762000D01*
X79619143Y-29909315D01*
X47008072Y-29909315D01*
X47008072Y-29360685D01*
X79619143Y-29360685D01*
X79714289Y-29508000D01*
X80428000Y-29508000D01*
X80428000Y-28608956D01*
X80682000Y-28608956D01*
X80682000Y-29508000D01*
X81395711Y-29508000D01*
X81490857Y-29360685D01*
X84459143Y-29360685D01*
X84554289Y-29508000D01*
X85268000Y-29508000D01*
X85268000Y-28608956D01*
X85522000Y-28608956D01*
X85522000Y-29508000D01*
X86235711Y-29508000D01*
X86330857Y-29360685D01*
X86298377Y-29179536D01*
X86231180Y-29008205D01*
X86131849Y-28853275D01*
X86004202Y-28720701D01*
X85853144Y-28615577D01*
X85664715Y-28543925D01*
X85522000Y-28608956D01*
X85268000Y-28608956D01*
X85125285Y-28543925D01*
X84936856Y-28615577D01*
X84785798Y-28720701D01*
X84658151Y-28853275D01*
X84558820Y-29008205D01*
X84491623Y-29179536D01*
X84459143Y-29360685D01*
X81490857Y-29360685D01*
X81458377Y-29179536D01*
X81391180Y-29008205D01*
X81291849Y-28853275D01*
X81164202Y-28720701D01*
X81013144Y-28615577D01*
X80824715Y-28543925D01*
X80682000Y-28608956D01*
X80428000Y-28608956D01*
X80285285Y-28543925D01*
X80096856Y-28615577D01*
X79945798Y-28720701D01*
X79818151Y-28853275D01*
X79718820Y-29008205D01*
X79651623Y-29179536D01*
X79619143Y-29360685D01*
X47008072Y-29360685D01*
X47008072Y-28749999D01*
X46991008Y-28576745D01*
X46940472Y-28410149D01*
X46858405Y-28256613D01*
X46747962Y-28122038D01*
X46613387Y-28011595D01*
X46459851Y-27929528D01*
X46293255Y-27878992D01*
X46120001Y-27861928D01*
X44879999Y-27861928D01*
X44706745Y-27878992D01*
X44540149Y-27929528D01*
X44386613Y-28011595D01*
X44252038Y-28122038D01*
X44141595Y-28256613D01*
X44059528Y-28410149D01*
X44008992Y-28576745D01*
X44000017Y-28667867D01*
X43952383Y-28592916D01*
X43781713Y-28414243D01*
X43579465Y-28272299D01*
X43353411Y-28172539D01*
X43280125Y-28160652D01*
X43087000Y-28221249D01*
X42833000Y-28221249D01*
X42639875Y-28160652D01*
X42566589Y-28172539D01*
X42340535Y-28272299D01*
X42138287Y-28414243D01*
X41967617Y-28592916D01*
X41835084Y-28801452D01*
X41745781Y-29031837D01*
X41703140Y-29275217D01*
X40987162Y-29275217D01*
X40093589Y-28381644D01*
X40069727Y-28352568D01*
X39953697Y-28257345D01*
X39821320Y-28186588D01*
X39677683Y-28143016D01*
X39565731Y-28131990D01*
X39565728Y-28131990D01*
X39528305Y-28128304D01*
X39490882Y-28131990D01*
X38877000Y-28131990D01*
X38877000Y-28000000D01*
X38874560Y-27975224D01*
X38867333Y-27951399D01*
X38855597Y-27929443D01*
X38839803Y-27910197D01*
X38820557Y-27894403D01*
X38798601Y-27882667D01*
X38774776Y-27875440D01*
X38750000Y-27873000D01*
X38036005Y-27873000D01*
X38012710Y-27796207D01*
X37951425Y-27681550D01*
X37868948Y-27581052D01*
X37768450Y-27498575D01*
X37653793Y-27437290D01*
X37529383Y-27399550D01*
X37432419Y-27390000D01*
X37400000Y-27386807D01*
X37367581Y-27390000D01*
X33632419Y-27390000D01*
X33600000Y-27386807D01*
X33567581Y-27390000D01*
X33470617Y-27399550D01*
X33346207Y-27437290D01*
X33231550Y-27498575D01*
X33131052Y-27581052D01*
X33048575Y-27681550D01*
X32987290Y-27796207D01*
X32963995Y-27873000D01*
X32250000Y-27873000D01*
X32225224Y-27875440D01*
X32201399Y-27882667D01*
X32179443Y-27894403D01*
X32160197Y-27910197D01*
X32144403Y-27929443D01*
X32132667Y-27951399D01*
X32125440Y-27975224D01*
X32123000Y-28000000D01*
X32123000Y-28663995D01*
X32046207Y-28687290D01*
X31931550Y-28748575D01*
X31831052Y-28831052D01*
X31748575Y-28931550D01*
X31687290Y-29046207D01*
X31649550Y-29170617D01*
X31636807Y-29300000D01*
X31162948Y-29300000D01*
X31301073Y-28966537D01*
X31435000Y-28293242D01*
X31435000Y-27606758D01*
X31301073Y-26933463D01*
X31298908Y-26928236D01*
X79191648Y-26928236D01*
X79234955Y-27131463D01*
X79317077Y-27322336D01*
X79434859Y-27493520D01*
X79583774Y-27638437D01*
X79758099Y-27751518D01*
X79955568Y-27825561D01*
X80118000Y-27762319D01*
X80118000Y-26762000D01*
X80372000Y-26762000D01*
X80372000Y-27762319D01*
X80534432Y-27825561D01*
X80731901Y-27751518D01*
X80906226Y-27638437D01*
X81055141Y-27493520D01*
X81172923Y-27322336D01*
X81255045Y-27131463D01*
X81298352Y-26928236D01*
X84651648Y-26928236D01*
X84694955Y-27131463D01*
X84777077Y-27322336D01*
X84894859Y-27493520D01*
X85043774Y-27638437D01*
X85218099Y-27751518D01*
X85415568Y-27825561D01*
X85578000Y-27762319D01*
X85578000Y-26762000D01*
X85832000Y-26762000D01*
X85832000Y-27762319D01*
X85994432Y-27825561D01*
X86191901Y-27751518D01*
X86366226Y-27638437D01*
X86515141Y-27493520D01*
X86632923Y-27322336D01*
X86715045Y-27131463D01*
X86758352Y-26928236D01*
X86668630Y-26762000D01*
X85832000Y-26762000D01*
X85578000Y-26762000D01*
X84741370Y-26762000D01*
X84651648Y-26928236D01*
X81298352Y-26928236D01*
X81208630Y-26762000D01*
X80372000Y-26762000D01*
X80118000Y-26762000D01*
X79281370Y-26762000D01*
X79191648Y-26928236D01*
X31298908Y-26928236D01*
X31038367Y-26299234D01*
X30923284Y-26127000D01*
X79239919Y-26127000D01*
X79234955Y-26138537D01*
M02*
