G04 #@! TF.GenerationSoftware,KiCad,Pcbnew,5.1.5*
G04 #@! TF.CreationDate,2020-03-06T00:10:35-08:00*
G04 #@! TF.ProjectId,orangepi-neo-gps,6f72616e-6765-4706-992d-6e656f2d6770,1*
G04 #@! TF.SameCoordinates,Original*
G04 #@! TF.FileFunction,Profile,NP*
%FSLAX46Y46*%
G04 Gerber Fmt 4.6, Leading zero omitted, Abs format (unit mm)*
G04 Created by KiCad (PCBNEW 5.1.5) date 2020-03-06 00:10:35*
%MOMM*%
%LPD*%
G04 APERTURE LIST*
%ADD10C,0.050000*%
G04 APERTURE END LIST*
D10*
X33500000Y-37800000D02*
X33500000Y-37000000D01*
X37400000Y-37800000D02*
X37400000Y-37000000D01*
X37400000Y-37800000D02*
X33500000Y-37800000D01*
X38000000Y-36400000D02*
X38800000Y-36400000D01*
X38000000Y-29300000D02*
X38800000Y-29300000D01*
X38800000Y-29300000D02*
X38800000Y-36400000D01*
X33600000Y-27950000D02*
X37400000Y-27950000D01*
X37400000Y-27950000D02*
X37400000Y-28750000D01*
X33600000Y-28750000D02*
X33600000Y-27950000D01*
X32200000Y-36500000D02*
X32200000Y-29300000D01*
X33000000Y-29300000D02*
X32200000Y-29300000D01*
X33000000Y-36500000D02*
X32200000Y-36500000D01*
X38000000Y-36400000D02*
X38000000Y-29300000D01*
X74012000Y-63000000D02*
X94012000Y-63000000D01*
X74012000Y-40000000D02*
X74012000Y-63000000D01*
X94012000Y-40000000D02*
X74012000Y-40000000D01*
X94012000Y-40000000D02*
X94012000Y-25000000D01*
X94012000Y-73000000D02*
X94012000Y-63000000D01*
X33500000Y-37000000D02*
X37400000Y-37000000D01*
X33000000Y-29300000D02*
X33000000Y-36500000D01*
X37400000Y-28750000D02*
X33600000Y-28750000D01*
X25000000Y-73000000D02*
X94012000Y-73000000D01*
X25000000Y-25000000D02*
X25000000Y-73000000D01*
X25000000Y-25000000D02*
X94012000Y-25000000D01*
M02*
